<svg width="1584" height="1011" viewBox="0 0 1584 1011" fill="none" xmlns="http://www.w3.org/2000/svg">
<g clip-path="url(#clip0)">
<rect width="1584" height="1011" fill="white"/>
<rect x="10" y="191" width="1548" height="790" fill="#1DD6D6" fill-opacity="0.2"/>
<rect x="485" y="791" width="283" height="141" fill="#3DF339" fill-opacity="0.4"/>
<rect x="485" y="472" width="283" height="141" fill="#5F53E3" fill-opacity="0.4"/>
<rect x="485" y="331" width="283" height="141" fill="#5F53E3" fill-opacity="0.15"/>
<path d="M587.648 879L585.008 845.496H588.608L590 864.696L590.72 874.824H591.104L595.52 854.232H600.032L604.448 874.824H604.832L605.552 864.696L606.944 845.496H610.448L607.808 879H602L597.92 858.984H597.536L593.456 879H587.648ZM626.941 879.576C625.149 879.576 623.533 879.272 622.093 878.664C620.685 878.056 619.469 877.192 618.445 876.072C617.453 874.92 616.685 873.56 616.141 871.992C615.597 870.392 615.325 868.616 615.325 866.664C615.325 864.68 615.597 862.888 616.141 861.288C616.717 859.688 617.501 858.328 618.493 857.208C619.485 856.056 620.669 855.176 622.045 854.568C623.453 853.96 625.005 853.656 626.701 853.656C628.365 853.656 629.869 853.96 631.213 854.568C632.589 855.176 633.757 856.024 634.717 857.112C635.677 858.168 636.413 859.432 636.925 860.904C637.437 862.376 637.693 863.992 637.693 865.752V867.576H619.357V868.728C619.357 869.816 619.533 870.824 619.885 871.752C620.237 872.68 620.733 873.48 621.373 874.152C622.045 874.824 622.845 875.352 623.773 875.736C624.733 876.088 625.789 876.264 626.941 876.264C628.605 876.264 630.045 875.88 631.261 875.112C632.477 874.344 633.405 873.288 634.045 871.944L636.877 873.864C636.141 875.528 634.909 876.904 633.181 877.992C631.485 879.048 629.405 879.576 626.941 879.576ZM626.701 856.824C625.645 856.824 624.669 857.016 623.773 857.4C622.877 857.784 622.093 858.312 621.421 858.984C620.781 859.656 620.269 860.456 619.885 861.384C619.533 862.28 619.357 863.272 619.357 864.36V864.696H633.565V864.168C633.565 863.08 633.389 862.088 633.037 861.192C632.717 860.296 632.253 859.528 631.645 858.888C631.069 858.216 630.349 857.704 629.485 857.352C628.653 857 627.725 856.824 626.701 856.824ZM645.451 843.48H649.291V858.264H649.483C651.083 855.192 653.627 853.656 657.115 853.656C660.155 853.656 662.523 854.792 664.219 857.064C665.947 859.336 666.811 862.52 666.811 866.616C666.811 870.712 665.947 873.896 664.219 876.168C662.523 878.44 660.155 879.576 657.115 879.576C653.627 879.576 651.083 878.04 649.483 874.968H649.291V879H645.451V843.48ZM655.627 876.168C657.867 876.168 659.595 875.496 660.811 874.152C662.059 872.776 662.683 870.968 662.683 868.728V864.504C662.683 862.264 662.059 860.472 660.811 859.128C659.595 857.752 657.867 857.064 655.627 857.064C654.763 857.064 653.947 857.176 653.179 857.4C652.411 857.624 651.739 857.96 651.163 858.408C650.587 858.824 650.123 859.352 649.771 859.992C649.451 860.6 649.291 861.32 649.291 862.152V871.08C649.291 871.912 649.451 872.648 649.771 873.288C650.123 873.896 650.587 874.424 651.163 874.872C651.739 875.288 652.411 875.608 653.179 875.832C653.947 876.056 654.763 876.168 655.627 876.168Z" fill="black"/>
<path d="M55.5896 233.632H55.2536V262H51.6056V228.496H57.3176L68.7416 256.576H69.0776V228.496H72.7256V262H67.0136L55.5896 233.632ZM91.3789 262.576C89.5869 262.576 87.9709 262.272 86.5309 261.664C85.1229 261.056 83.9069 260.192 82.8829 259.072C81.8909 257.92 81.1229 256.56 80.5789 254.992C80.0349 253.392 79.7629 251.616 79.7629 249.664C79.7629 247.68 80.0349 245.888 80.5789 244.288C81.1549 242.688 81.9389 241.328 82.9309 240.208C83.9229 239.056 85.1069 238.176 86.4829 237.568C87.8909 236.96 89.4429 236.656 91.1389 236.656C92.8029 236.656 94.3069 236.96 95.6509 237.568C97.0269 238.176 98.1949 239.024 99.1549 240.112C100.115 241.168 100.851 242.432 101.363 243.904C101.875 245.376 102.131 246.992 102.131 248.752V250.576H83.7949V251.728C83.7949 252.816 83.9709 253.824 84.3229 254.752C84.6749 255.68 85.1709 256.48 85.8109 257.152C86.4829 257.824 87.2829 258.352 88.2109 258.736C89.1709 259.088 90.2269 259.264 91.3789 259.264C93.0429 259.264 94.4829 258.88 95.6989 258.112C96.9149 257.344 97.8429 256.288 98.4829 254.944L101.315 256.864C100.579 258.528 99.3469 259.904 97.6189 260.992C95.9229 262.048 93.8429 262.576 91.3789 262.576ZM91.1389 239.824C90.0829 239.824 89.1069 240.016 88.2109 240.4C87.3149 240.784 86.5309 241.312 85.8589 241.984C85.2189 242.656 84.7069 243.456 84.3229 244.384C83.9709 245.28 83.7949 246.272 83.7949 247.36V247.696H98.0029V247.168C98.0029 246.08 97.8269 245.088 97.4749 244.192C97.1549 243.296 96.6909 242.528 96.0829 241.888C95.5069 241.216 94.7869 240.704 93.9229 240.352C93.0909 240 92.1629 239.824 91.1389 239.824ZM120.928 262C119.04 262 117.648 261.472 116.752 260.416C115.888 259.36 115.456 258 115.456 256.336V240.496H107.2V237.232H113.344C114.176 237.232 114.752 237.072 115.072 236.752C115.424 236.4 115.6 235.808 115.6 234.976V228.496H119.296V237.232H130.576V240.496H119.296V258.736H130.576V262H120.928ZM137.949 258.736H146.589V229.744H137.949V226.48H150.429V258.736H159.069V262H137.949V258.736ZM178.827 231.76C177.707 231.76 176.923 231.536 176.475 231.088C176.027 230.608 175.803 230.016 175.803 229.312V228.544C175.803 227.84 176.027 227.264 176.475 226.816C176.923 226.336 177.707 226.096 178.827 226.096C179.947 226.096 180.731 226.336 181.179 226.816C181.627 227.264 181.851 227.84 181.851 228.544V229.312C181.851 230.016 181.627 230.608 181.179 231.088C180.731 231.536 179.947 231.76 178.827 231.76ZM167.979 258.736H176.907V240.496H167.979V237.232H180.747V258.736H189.099V262H167.979V258.736ZM195.656 258.736H204.008V240.496H195.176V237.232H204.008V232.144C204.008 230.48 204.44 229.12 205.304 228.064C206.2 227.008 207.592 226.48 209.48 226.48H217.784V229.744H207.848V237.232H217.784V240.496H207.848V258.736H216.68V262H195.656V258.736ZM242.869 237.232H246.709L234.421 267.424C234.133 268.128 233.813 268.736 233.461 269.248C233.109 269.792 232.693 270.224 232.213 270.544C231.733 270.896 231.157 271.152 230.485 271.312C229.813 271.504 229.013 271.6 228.085 271.6H224.437V268.336H230.197L232.981 261.52L222.997 237.232H226.933L231.109 247.6L234.805 257.008H234.997L238.693 247.6L242.869 237.232Z" fill="black"/>
<path d="M559.468 555.536H559.228C558.94 556.176 558.604 556.8 558.22 557.408C557.836 558.016 557.34 558.56 556.732 559.04C556.156 559.488 555.452 559.856 554.62 560.144C553.788 560.432 552.796 560.576 551.644 560.576C547.996 560.576 545.276 559.104 543.484 556.16C541.724 553.216 540.844 548.992 540.844 543.488C540.844 537.728 541.82 533.36 543.772 530.384C545.724 527.408 548.732 525.92 552.796 525.92C554.364 525.92 555.724 526.128 556.876 526.544C558.028 526.96 559.004 527.52 559.804 528.224C560.636 528.928 561.324 529.728 561.868 530.624C562.412 531.488 562.86 532.368 563.212 533.264L559.756 534.848C559.468 534.112 559.132 533.424 558.748 532.784C558.396 532.112 557.948 531.536 557.404 531.056C556.892 530.544 556.268 530.144 555.532 529.856C554.796 529.568 553.932 529.424 552.94 529.424C550.252 529.424 548.268 530.432 546.988 532.448C545.74 534.464 545.116 537.152 545.116 540.512V545.696C545.116 547.392 545.244 548.944 545.5 550.352C545.756 551.728 546.172 552.928 546.748 553.952C547.356 554.976 548.124 555.776 549.052 556.352C550.012 556.896 551.18 557.168 552.556 557.168C554.732 557.168 556.428 556.512 557.644 555.2C558.86 553.888 559.468 552.192 559.468 550.112V546.656H552.412V543.44H563.212V560H559.468V555.536ZM590.698 560C589.194 560 588.122 559.616 587.482 558.848C586.842 558.08 586.442 557.12 586.282 555.968H586.042C585.498 557.408 584.618 558.544 583.402 559.376C582.218 560.176 580.618 560.576 578.602 560.576C576.01 560.576 573.946 559.904 572.41 558.56C570.874 557.216 570.105 555.376 570.105 553.04C570.105 550.736 570.938 548.96 572.602 547.712C574.298 546.464 577.018 545.84 580.762 545.84H586.042V543.392C586.042 541.568 585.53 540.208 584.506 539.312C583.482 538.384 582.026 537.92 580.138 537.92C578.474 537.92 577.114 538.256 576.058 538.928C575.002 539.568 574.154 540.448 573.514 541.568L570.922 539.648C571.242 539.008 571.674 538.384 572.218 537.776C572.762 537.168 573.434 536.64 574.234 536.192C575.034 535.712 575.946 535.344 576.97 535.088C577.994 534.8 579.13 534.656 580.378 534.656C583.29 534.656 585.594 535.392 587.29 536.864C589.018 538.336 589.882 540.384 589.882 543.008V556.64H593.338V560H590.698ZM579.273 557.36C580.266 557.36 581.162 557.248 581.962 557.024C582.794 556.768 583.514 556.448 584.122 556.064C584.73 555.648 585.194 555.168 585.514 554.624C585.866 554.048 586.042 553.44 586.042 552.8V548.72H580.762C578.458 548.72 576.778 549.04 575.722 549.68C574.666 550.32 574.138 551.248 574.138 552.464V553.472C574.138 554.752 574.586 555.728 575.482 556.4C576.41 557.04 577.674 557.36 579.273 557.36ZM611.319 560C609.431 560 608.039 559.472 607.143 558.416C606.279 557.36 605.847 556 605.847 554.336V538.496H597.591V535.232H603.735C604.567 535.232 605.143 535.072 605.463 534.752C605.815 534.4 605.991 533.808 605.991 532.976V526.496H609.687V535.232H620.967V538.496H609.687V556.736H620.967V560H611.319ZM639.188 560.576C636.596 560.576 634.356 560.144 632.468 559.28C630.612 558.384 629.028 557.2 627.716 555.728L630.308 553.472C631.492 554.72 632.788 555.68 634.196 556.352C635.604 557.024 637.3 557.36 639.284 557.36C641.204 557.36 642.772 557.024 643.988 556.352C645.236 555.648 645.86 554.56 645.86 553.088C645.86 552.448 645.732 551.92 645.476 551.504C645.252 551.056 644.932 550.704 644.516 550.448C644.1 550.192 643.636 550 643.124 549.872C642.612 549.712 642.068 549.584 641.492 549.488L637.604 548.912C636.74 548.784 635.796 548.608 634.772 548.384C633.78 548.16 632.868 547.808 632.036 547.328C631.204 546.816 630.5 546.144 629.924 545.312C629.38 544.48 629.108 543.392 629.108 542.048C629.108 540.8 629.348 539.728 629.828 538.832C630.34 537.904 631.044 537.136 631.94 536.528C632.836 535.888 633.892 535.424 635.108 535.136C636.324 534.816 637.652 534.656 639.092 534.656C641.332 534.656 643.268 535.008 644.9 535.712C646.564 536.416 647.988 537.392 649.172 538.64L646.676 540.992C646.388 540.64 646.02 540.288 645.572 539.936C645.156 539.552 644.628 539.216 643.988 538.928C643.38 538.608 642.66 538.352 641.828 538.16C640.996 537.968 640.036 537.872 638.948 537.872C636.996 537.872 635.492 538.208 634.436 538.88C633.412 539.552 632.9 540.528 632.9 541.808C632.9 542.448 633.012 542.992 633.236 543.44C633.492 543.856 633.828 544.192 634.244 544.448C634.66 544.704 635.124 544.912 635.636 545.072C636.18 545.2 636.724 545.312 637.268 545.408L641.156 545.984C642.052 546.112 642.996 546.288 643.988 546.512C644.98 546.736 645.892 547.104 646.724 547.616C647.556 548.096 648.244 548.752 648.788 549.584C649.364 550.416 649.652 551.504 649.652 552.848C649.652 555.312 648.692 557.216 646.772 558.56C644.884 559.904 642.356 560.576 639.188 560.576ZM657.841 524.48H661.681V539.264H661.873C663.473 536.192 666.017 534.656 669.505 534.656C672.545 534.656 674.913 535.792 676.609 538.064C678.337 540.336 679.201 543.52 679.201 547.616C679.201 551.712 678.337 554.896 676.609 557.168C674.913 559.44 672.545 560.576 669.505 560.576C666.017 560.576 663.473 559.04 661.873 555.968H661.681V560H657.841V524.48ZM668.017 557.168C670.257 557.168 671.985 556.496 673.201 555.152C674.449 553.776 675.073 551.968 675.073 549.728V545.504C675.073 543.264 674.449 541.472 673.201 540.128C671.985 538.752 670.257 538.064 668.017 538.064C667.153 538.064 666.337 538.176 665.569 538.4C664.801 538.624 664.129 538.96 663.553 539.408C662.977 539.824 662.513 540.352 662.161 540.992C661.841 541.6 661.681 542.32 661.681 543.152V552.08C661.681 552.912 661.841 553.648 662.161 554.288C662.513 554.896 662.977 555.424 663.553 555.872C664.129 556.288 664.801 556.608 665.569 556.832C666.337 557.056 667.153 557.168 668.017 557.168ZM704.479 535.232H708.319L696.031 565.424C695.743 566.128 695.423 566.736 695.071 567.248C694.719 567.792 694.303 568.224 693.823 568.544C693.343 568.896 692.767 569.152 692.095 569.312C691.423 569.504 690.623 569.6 689.695 569.6H686.047V566.336H691.807L694.591 559.52L684.607 535.232H688.543L692.719 545.6L696.415 555.008H696.607L700.303 545.6L704.479 535.232Z" fill="black"/>
<path d="M562.899 418H558.867V384.496H571.059C574.163 384.496 576.531 385.344 578.163 387.04C579.795 388.736 580.611 391.104 580.611 394.144C580.611 396.864 579.907 399.04 578.499 400.672C577.091 402.304 575.043 403.248 572.355 403.504L580.899 418H576.387L568.227 403.696H562.899V418ZM570.963 400.288C572.659 400.288 573.971 399.872 574.899 399.04C575.859 398.176 576.339 396.96 576.339 395.392V392.896C576.339 391.328 575.859 390.128 574.899 389.296C573.971 388.432 572.659 388 570.963 388H562.899V400.288H570.963ZM598.16 418.576C596.368 418.576 594.752 418.272 593.312 417.664C591.904 417.056 590.688 416.192 589.664 415.072C588.672 413.92 587.904 412.56 587.36 410.992C586.816 409.392 586.544 407.616 586.544 405.664C586.544 403.68 586.816 401.888 587.36 400.288C587.936 398.688 588.72 397.328 589.712 396.208C590.704 395.056 591.888 394.176 593.264 393.568C594.672 392.96 596.224 392.656 597.92 392.656C599.584 392.656 601.088 392.96 602.432 393.568C603.808 394.176 604.976 395.024 605.936 396.112C606.896 397.168 607.632 398.432 608.144 399.904C608.656 401.376 608.912 402.992 608.912 404.752V406.576H590.576V407.728C590.576 408.816 590.752 409.824 591.104 410.752C591.456 411.68 591.952 412.48 592.592 413.152C593.264 413.824 594.064 414.352 594.992 414.736C595.952 415.088 597.008 415.264 598.16 415.264C599.824 415.264 601.264 414.88 602.48 414.112C603.696 413.344 604.624 412.288 605.264 410.944L608.096 412.864C607.36 414.528 606.128 415.904 604.4 416.992C602.704 418.048 600.624 418.576 598.16 418.576ZM597.92 395.824C596.864 395.824 595.888 396.016 594.992 396.4C594.096 396.784 593.312 397.312 592.64 397.984C592 398.656 591.488 399.456 591.104 400.384C590.752 401.28 590.576 402.272 590.576 403.36V403.696H604.784V403.168C604.784 402.08 604.608 401.088 604.256 400.192C603.936 399.296 603.472 398.528 602.864 397.888C602.288 397.216 601.568 396.704 600.704 396.352C599.872 396 598.944 395.824 597.92 395.824ZM635.869 418C634.365 418 633.293 417.616 632.653 416.848C632.013 416.08 631.613 415.12 631.453 413.968H631.213C630.669 415.408 629.789 416.544 628.573 417.376C627.389 418.176 625.789 418.576 623.773 418.576C621.181 418.576 619.117 417.904 617.581 416.56C616.045 415.216 615.277 413.376 615.277 411.04C615.277 408.736 616.109 406.96 617.773 405.712C619.469 404.464 622.189 403.84 625.933 403.84H631.213V401.392C631.213 399.568 630.701 398.208 629.677 397.312C628.653 396.384 627.197 395.92 625.309 395.92C623.645 395.92 622.285 396.256 621.229 396.928C620.173 397.568 619.325 398.448 618.685 399.568L616.093 397.648C616.413 397.008 616.845 396.384 617.389 395.776C617.933 395.168 618.605 394.64 619.405 394.192C620.205 393.712 621.117 393.344 622.141 393.088C623.165 392.8 624.301 392.656 625.549 392.656C628.461 392.656 630.765 393.392 632.461 394.864C634.189 396.336 635.053 398.384 635.053 401.008V414.64H638.509V418H635.869ZM624.445 415.36C625.437 415.36 626.333 415.248 627.133 415.024C627.965 414.768 628.685 414.448 629.293 414.064C629.901 413.648 630.365 413.168 630.685 412.624C631.037 412.048 631.213 411.44 631.213 410.8V406.72H625.933C623.629 406.72 621.949 407.04 620.893 407.68C619.837 408.32 619.309 409.248 619.309 410.464V411.472C619.309 412.752 619.757 413.728 620.653 414.4C621.581 415.04 622.845 415.36 624.445 415.36ZM656.155 418.576C654.363 418.576 652.763 418.272 651.355 417.664C649.979 417.024 648.811 416.144 647.851 415.024C646.891 413.904 646.155 412.544 645.643 410.944C645.163 409.344 644.923 407.568 644.923 405.616C644.923 403.664 645.179 401.888 645.691 400.288C646.203 398.688 646.939 397.328 647.899 396.208C648.859 395.056 650.027 394.176 651.403 393.568C652.779 392.96 654.347 392.656 656.107 392.656C658.507 392.656 660.459 393.184 661.963 394.24C663.467 395.296 664.571 396.672 665.275 398.368L662.203 400C661.755 398.72 661.003 397.728 659.947 397.024C658.923 396.32 657.643 395.968 656.107 395.968C654.987 395.968 653.979 396.16 653.083 396.544C652.219 396.896 651.483 397.408 650.875 398.08C650.267 398.752 649.803 399.552 649.483 400.48C649.195 401.408 649.051 402.416 649.051 403.504V407.728C649.051 408.816 649.195 409.824 649.483 410.752C649.803 411.68 650.267 412.48 650.875 413.152C651.483 413.824 652.235 414.352 653.131 414.736C654.027 415.088 655.051 415.264 656.203 415.264C657.867 415.264 659.243 414.88 660.331 414.112C661.419 413.344 662.283 412.288 662.923 410.944L665.659 412.816C664.923 414.48 663.771 415.856 662.203 416.944C660.667 418.032 658.651 418.576 656.155 418.576ZM685.272 418C683.384 418 681.992 417.472 681.096 416.416C680.232 415.36 679.8 414 679.8 412.336V396.496H671.544V393.232H677.688C678.52 393.232 679.096 393.072 679.416 392.752C679.768 392.4 679.944 391.808 679.944 390.976V384.496H683.64V393.232H694.92V396.496H683.64V414.736H694.92V418H685.272Z" fill="black"/>
<rect x="485" y="12" width="283" height="141" fill="#E35353" fill-opacity="0.4"/>
<path d="M551.46 99.576C548.452 99.576 545.988 99.032 544.068 97.944C542.148 96.824 540.564 95.4 539.316 93.672L542.244 91.272C543.556 92.904 544.932 94.12 546.372 94.92C547.844 95.72 549.588 96.12 551.604 96.12C554.036 96.12 555.892 95.56 557.172 94.44C558.452 93.32 559.092 91.752 559.092 89.736C559.092 88.104 558.628 86.84 557.7 85.944C556.772 85.016 555.156 84.36 552.852 83.976L549.108 83.352C547.476 83.064 546.1 82.632 544.98 82.056C543.892 81.48 543.012 80.792 542.34 79.992C541.668 79.16 541.188 78.264 540.9 77.304C540.612 76.312 540.468 75.288 540.468 74.232C540.468 71.16 541.476 68.84 543.492 67.272C545.508 65.704 548.228 64.92 551.652 64.92C554.34 64.92 556.596 65.368 558.42 66.264C560.276 67.16 561.764 68.424 562.884 70.056L560.052 72.504C559.124 71.288 558.004 70.296 556.692 69.528C555.38 68.76 553.684 68.376 551.604 68.376C549.332 68.376 547.588 68.856 546.372 69.816C545.156 70.776 544.548 72.216 544.548 74.136C544.548 75.64 544.996 76.872 545.892 77.832C546.82 78.76 548.468 79.432 550.836 79.848L554.436 80.472C556.068 80.76 557.444 81.192 558.564 81.768C559.684 82.344 560.58 83.032 561.252 83.832C561.956 84.632 562.452 85.528 562.74 86.52C563.028 87.512 563.172 88.552 563.172 89.64C563.172 92.744 562.148 95.176 560.1 96.936C558.084 98.696 555.204 99.576 551.46 99.576ZM589.698 99C588.194 99 587.122 98.616 586.482 97.848C585.842 97.08 585.442 96.12 585.282 94.968H585.042C584.498 96.408 583.618 97.544 582.402 98.376C581.218 99.176 579.618 99.576 577.602 99.576C575.01 99.576 572.946 98.904 571.41 97.56C569.874 96.216 569.105 94.376 569.105 92.04C569.105 89.736 569.938 87.96 571.602 86.712C573.298 85.464 576.018 84.84 579.762 84.84H585.042V82.392C585.042 80.568 584.53 79.208 583.506 78.312C582.482 77.384 581.026 76.92 579.138 76.92C577.474 76.92 576.114 77.256 575.058 77.928C574.002 78.568 573.154 79.448 572.514 80.568L569.922 78.648C570.242 78.008 570.674 77.384 571.218 76.776C571.762 76.168 572.434 75.64 573.234 75.192C574.034 74.712 574.946 74.344 575.97 74.088C576.994 73.8 578.13 73.656 579.378 73.656C582.29 73.656 584.594 74.392 586.29 75.864C588.018 77.336 588.882 79.384 588.882 82.008V95.64H592.338V99H589.698ZM578.273 96.36C579.266 96.36 580.162 96.248 580.962 96.024C581.794 95.768 582.514 95.448 583.122 95.064C583.73 94.648 584.194 94.168 584.514 93.624C584.866 93.048 585.042 92.44 585.042 91.8V87.72H579.762C577.458 87.72 575.778 88.04 574.722 88.68C573.666 89.32 573.138 90.248 573.138 91.464V92.472C573.138 93.752 573.586 94.728 574.482 95.4C575.41 96.04 576.674 96.36 578.273 96.36ZM599.423 99V74.232H603.263V78.264H603.455C603.711 77.656 604.031 77.08 604.415 76.536C604.799 75.96 605.263 75.464 605.807 75.048C606.383 74.632 607.055 74.296 607.823 74.04C608.591 73.784 609.487 73.656 610.511 73.656C613.103 73.656 615.183 74.488 616.751 76.152C618.319 77.784 619.103 80.104 619.103 83.112V99H615.263V83.784C615.263 81.512 614.767 79.832 613.775 78.744C612.783 77.624 611.327 77.064 609.407 77.064C608.639 77.064 607.887 77.16 607.151 77.352C606.415 77.544 605.759 77.832 605.183 78.216C604.607 78.6 604.143 79.096 603.791 79.704C603.439 80.312 603.263 81.016 603.263 81.816V99H599.423ZM639.436 68.76C638.316 68.76 637.532 68.536 637.084 68.088C636.636 67.608 636.412 67.016 636.412 66.312V65.544C636.412 64.84 636.636 64.264 637.084 63.816C637.532 63.336 638.316 63.096 639.436 63.096C640.556 63.096 641.34 63.336 641.788 63.816C642.236 64.264 642.46 64.84 642.46 65.544V66.312C642.46 67.016 642.236 67.608 641.788 68.088C641.34 68.536 640.556 68.76 639.436 68.76ZM628.588 95.736H637.516V77.496H628.588V74.232H641.356V95.736H649.708V99H628.588V95.736ZM667.881 99C665.993 99 664.601 98.472 663.705 97.416C662.841 96.36 662.409 95 662.409 93.336V77.496H654.153V74.232H660.297C661.129 74.232 661.705 74.072 662.025 73.752C662.377 73.4 662.553 72.808 662.553 71.976V65.496H666.249V74.232H677.529V77.496H666.249V95.736H677.529V99H667.881ZM703.479 74.232H707.319L695.031 104.424C694.743 105.128 694.423 105.736 694.071 106.248C693.719 106.792 693.303 107.224 692.823 107.544C692.343 107.896 691.767 108.152 691.095 108.312C690.423 108.504 689.623 108.6 688.695 108.6H685.047V105.336H690.807L693.591 98.52L683.607 74.232H687.543L691.719 84.6L695.415 94.008H695.607L699.303 84.6L703.479 74.232Z" fill="black"/>
<rect x="1278" y="10" width="283" height="141" fill="black" fill-opacity="0.6"/>
<path d="M1351.47 92.536H1351.23C1350.94 93.176 1350.6 93.8 1350.22 94.408C1349.84 95.016 1349.34 95.56 1348.73 96.04C1348.16 96.488 1347.45 96.856 1346.62 97.144C1345.79 97.432 1344.8 97.576 1343.64 97.576C1340 97.576 1337.28 96.104 1335.48 93.16C1333.72 90.216 1332.84 85.992 1332.84 80.488C1332.84 74.728 1333.82 70.36 1335.77 67.384C1337.72 64.408 1340.73 62.92 1344.8 62.92C1346.36 62.92 1347.72 63.128 1348.88 63.544C1350.03 63.96 1351 64.52 1351.8 65.224C1352.64 65.928 1353.32 66.728 1353.87 67.624C1354.41 68.488 1354.86 69.368 1355.21 70.264L1351.76 71.848C1351.47 71.112 1351.13 70.424 1350.75 69.784C1350.4 69.112 1349.95 68.536 1349.4 68.056C1348.89 67.544 1348.27 67.144 1347.53 66.856C1346.8 66.568 1345.93 66.424 1344.94 66.424C1342.25 66.424 1340.27 67.432 1338.99 69.448C1337.74 71.464 1337.12 74.152 1337.12 77.512V82.696C1337.12 84.392 1337.24 85.944 1337.5 87.352C1337.76 88.728 1338.17 89.928 1338.75 90.952C1339.36 91.976 1340.12 92.776 1341.05 93.352C1342.01 93.896 1343.18 94.168 1344.56 94.168C1346.73 94.168 1348.43 93.512 1349.64 92.2C1350.86 90.888 1351.47 89.192 1351.47 87.112V83.656H1344.41V80.44H1355.21V97H1351.47V92.536ZM1374.87 66.76C1373.75 66.76 1372.97 66.536 1372.52 66.088C1372.07 65.608 1371.85 65.016 1371.85 64.312V63.544C1371.85 62.84 1372.07 62.264 1372.52 61.816C1372.97 61.336 1373.75 61.096 1374.87 61.096C1375.99 61.096 1376.78 61.336 1377.23 61.816C1377.67 62.264 1377.9 62.84 1377.9 63.544V64.312C1377.9 65.016 1377.67 65.608 1377.23 66.088C1376.78 66.536 1375.99 66.76 1374.87 66.76ZM1364.03 93.736H1372.95V75.496H1364.03V72.232H1376.79V93.736H1385.15V97H1364.03V93.736ZM1403.32 97C1401.43 97 1400.04 96.472 1399.14 95.416C1398.28 94.36 1397.85 93 1397.85 91.336V75.496H1389.59V72.232H1395.73C1396.57 72.232 1397.14 72.072 1397.46 71.752C1397.81 71.4 1397.99 70.808 1397.99 69.976V63.496H1401.69V72.232H1412.97V75.496H1401.69V93.736H1412.97V97H1403.32ZM1437.43 81.784H1424.37V97H1420.34V63.496H1424.37V78.28H1437.43V63.496H1441.46V97H1437.43V81.784ZM1465.54 92.968H1465.35C1465.09 93.576 1464.77 94.168 1464.39 94.744C1464 95.288 1463.52 95.768 1462.95 96.184C1462.4 96.6 1461.75 96.936 1460.98 97.192C1460.21 97.448 1459.31 97.576 1458.29 97.576C1455.7 97.576 1453.62 96.76 1452.05 95.128C1450.48 93.464 1449.7 91.128 1449.7 88.12V72.232H1453.54V87.448C1453.54 89.72 1454.03 91.416 1455.03 92.536C1456.02 93.624 1457.47 94.168 1459.39 94.168C1460.16 94.168 1460.91 94.072 1461.65 93.88C1462.39 93.688 1463.04 93.4 1463.62 93.016C1464.19 92.632 1464.66 92.152 1465.01 91.576C1465.36 90.968 1465.54 90.248 1465.54 89.416V72.232H1469.38V97H1465.54V92.968ZM1478.62 61.48H1482.46V76.264H1482.65C1484.25 73.192 1486.8 71.656 1490.29 71.656C1493.33 71.656 1495.69 72.792 1497.39 75.064C1499.12 77.336 1499.98 80.52 1499.98 84.616C1499.98 88.712 1499.12 91.896 1497.39 94.168C1495.69 96.44 1493.33 97.576 1490.29 97.576C1486.8 97.576 1484.25 96.04 1482.65 92.968H1482.46V97H1478.62V61.48ZM1488.8 94.168C1491.04 94.168 1492.77 93.496 1493.98 92.152C1495.23 90.776 1495.85 88.968 1495.85 86.728V82.504C1495.85 80.264 1495.23 78.472 1493.98 77.128C1492.77 75.752 1491.04 75.064 1488.8 75.064C1487.93 75.064 1487.12 75.176 1486.35 75.4C1485.58 75.624 1484.91 75.96 1484.33 76.408C1483.76 76.824 1483.29 77.352 1482.94 77.992C1482.62 78.6 1482.46 79.32 1482.46 80.152V89.08C1482.46 89.912 1482.62 90.648 1482.94 91.288C1483.29 91.896 1483.76 92.424 1484.33 92.872C1484.91 93.288 1485.58 93.608 1486.35 93.832C1487.12 94.056 1487.93 94.168 1488.8 94.168Z" fill="white"/>
<line x1="629" y1="611" x2="629" y2="791" stroke="black" stroke-width="6"/>
<line x1="630.879" y1="793.121" x2="612.879" y2="775.121" stroke="black" stroke-width="6"/>
<line y1="-3" x2="25.4558" y2="-3" transform="matrix(0.707107 -0.707107 -0.707107 -0.707107 625 791)" stroke="black" stroke-width="6"/>
<line x1="625" y1="151" x2="625" y2="331" stroke="black" stroke-width="6"/>
<line x1="626.879" y1="333.121" x2="608.879" y2="315.121" stroke="black" stroke-width="6"/>
<line y1="-3" x2="25.4558" y2="-3" transform="matrix(0.707107 -0.707107 -0.707107 -0.707107 621 331)" stroke="black" stroke-width="6"/>
<line y1="-3" x2="25.4558" y2="-3" transform="matrix(0.707107 0.707107 0.707107 -0.707107 770 468)" stroke="black" stroke-width="6"/>
<line x1="767.879" y1="473.879" x2="785.879" y2="455.879" stroke="black" stroke-width="6"/>
<path d="M711.171 704.856H702.467V715H699.779V692.664H702.467V702.52H711.171V692.664H713.859V715H711.171V704.856ZM727.35 695V715H724.662V695H717.206V692.664H734.806V695H727.35ZM750.154 703.8V696.728H749.898L745.194 708.216L740.49 696.728H740.234V703.8V715H737.77V692.664H741.226L745.162 702.52H745.354L749.29 692.664H752.618V715H750.154V703.8ZM758.621 715V692.664H761.309V712.664H771.901V715H758.621ZM782.193 710.648H786.321L782.641 719.512H780.497L782.193 710.648ZM822.68 715.384C819.949 715.384 817.912 714.392 816.568 712.408C815.245 710.424 814.584 707.565 814.584 703.832C814.584 700.099 815.245 697.24 816.568 695.256C817.912 693.272 819.949 692.28 822.68 692.28C823.704 692.28 824.589 692.419 825.336 692.696C826.082 692.973 826.722 693.347 827.256 693.816C827.789 694.285 828.237 694.819 828.6 695.416C828.962 695.992 829.282 696.579 829.56 697.176L827.256 698.232C827.064 697.741 826.84 697.283 826.584 696.856C826.328 696.408 826.018 696.024 825.656 695.704C825.314 695.363 824.898 695.096 824.408 694.904C823.938 694.712 823.362 694.616 822.68 694.616C820.909 694.616 819.586 695.288 818.712 696.632C817.858 697.976 817.432 699.768 817.432 702.008V705.656C817.432 707.896 817.858 709.688 818.712 711.032C819.586 712.376 820.909 713.048 822.68 713.048C823.362 713.048 823.938 712.952 824.408 712.76C824.898 712.568 825.314 712.312 825.656 711.992C826.018 711.651 826.328 711.267 826.584 710.84C826.84 710.392 827.064 709.923 827.256 709.432L829.56 710.488C829.282 711.107 828.962 711.704 828.6 712.28C828.237 712.856 827.789 713.379 827.256 713.848C826.722 714.317 826.082 714.691 825.336 714.968C824.589 715.245 823.704 715.384 822.68 715.384ZM841.067 715.384C839.062 715.384 837.419 715.021 836.139 714.296C834.859 713.549 833.803 712.6 832.971 711.448L834.923 709.848C835.798 710.936 836.715 711.747 837.675 712.28C838.657 712.813 839.819 713.08 841.163 713.08C842.785 713.08 844.022 712.707 844.875 711.96C845.729 711.213 846.155 710.168 846.155 708.824C846.155 707.736 845.846 706.893 845.227 706.296C844.609 705.677 843.531 705.24 841.995 704.984L839.499 704.568C838.411 704.376 837.494 704.088 836.747 703.704C836.022 703.32 835.435 702.861 834.987 702.328C834.539 701.773 834.219 701.176 834.027 700.536C833.835 699.875 833.739 699.192 833.739 698.488C833.739 696.44 834.411 694.893 835.755 693.848C837.099 692.803 838.913 692.28 841.195 692.28C842.987 692.28 844.491 692.579 845.707 693.176C846.945 693.773 847.937 694.616 848.683 695.704L846.795 697.336C846.177 696.525 845.43 695.864 844.555 695.352C843.681 694.84 842.55 694.584 841.163 694.584C839.649 694.584 838.486 694.904 837.675 695.544C836.865 696.184 836.459 697.144 836.459 698.424C836.459 699.427 836.758 700.248 837.355 700.888C837.974 701.507 839.073 701.955 840.651 702.232L843.051 702.648C844.139 702.84 845.057 703.128 845.803 703.512C846.55 703.896 847.147 704.355 847.595 704.888C848.065 705.421 848.395 706.019 848.587 706.68C848.779 707.341 848.875 708.035 848.875 708.76C848.875 710.829 848.193 712.451 846.827 713.624C845.483 714.797 843.563 715.384 841.067 715.384ZM860.255 715.384C858.249 715.384 856.607 715.021 855.327 714.296C854.047 713.549 852.991 712.6 852.159 711.448L854.111 709.848C854.985 710.936 855.903 711.747 856.863 712.28C857.844 712.813 859.007 713.08 860.351 713.08C861.972 713.08 863.209 712.707 864.063 711.96C864.916 711.213 865.343 710.168 865.343 708.824C865.343 707.736 865.033 706.893 864.415 706.296C863.796 705.677 862.719 705.24 861.183 704.984L858.687 704.568C857.599 704.376 856.681 704.088 855.935 703.704C855.209 703.32 854.623 702.861 854.175 702.328C853.727 701.773 853.407 701.176 853.215 700.536C853.023 699.875 852.927 699.192 852.927 698.488C852.927 696.44 853.599 694.893 854.943 693.848C856.287 692.803 858.1 692.28 860.383 692.28C862.175 692.28 863.679 692.579 864.895 693.176C866.132 693.773 867.124 694.616 867.871 695.704L865.983 697.336C865.364 696.525 864.617 695.864 863.743 695.352C862.868 694.84 861.737 694.584 860.351 694.584C858.836 694.584 857.673 694.904 856.863 695.544C856.052 696.184 855.647 697.144 855.647 698.424C855.647 699.427 855.945 700.248 856.543 700.888C857.161 701.507 858.26 701.955 859.839 702.232L862.239 702.648C863.327 702.84 864.244 703.128 864.991 703.512C865.737 703.896 866.335 704.355 866.783 704.888C867.252 705.421 867.583 706.019 867.775 706.68C867.967 707.341 868.063 708.035 868.063 708.76C868.063 710.829 867.38 712.451 866.015 713.624C864.671 714.797 862.751 715.384 860.255 715.384ZM878.13 710.648H882.258L878.578 719.512H876.434L878.13 710.648ZM923.641 692.664V709.208C923.641 710.147 923.481 711 923.161 711.768C922.841 712.536 922.383 713.187 921.785 713.72C921.209 714.253 920.516 714.669 919.705 714.968C918.895 715.245 918.009 715.384 917.049 715.384C915.343 715.384 913.935 714.947 912.825 714.072C911.716 713.176 910.991 711.928 910.649 710.328L913.209 709.784C913.316 710.232 913.455 710.659 913.625 711.064C913.817 711.448 914.063 711.789 914.361 712.088C914.681 712.365 915.065 712.589 915.513 712.76C915.961 712.931 916.495 713.016 917.113 713.016C918.329 713.016 919.268 712.675 919.929 711.992C920.612 711.288 920.953 710.2 920.953 708.728V695H912.889V692.664H923.641ZM937.005 715.384C934.999 715.384 933.357 715.021 932.077 714.296C930.797 713.549 929.741 712.6 928.909 711.448L930.861 709.848C931.735 710.936 932.653 711.747 933.613 712.28C934.594 712.813 935.757 713.08 937.101 713.08C938.722 713.08 939.959 712.707 940.813 711.96C941.666 711.213 942.093 710.168 942.093 708.824C942.093 707.736 941.783 706.893 941.165 706.296C940.546 705.677 939.469 705.24 937.933 704.984L935.437 704.568C934.349 704.376 933.431 704.088 932.685 703.704C931.959 703.32 931.373 702.861 930.925 702.328C930.477 701.773 930.157 701.176 929.965 700.536C929.773 699.875 929.677 699.192 929.677 698.488C929.677 696.44 930.349 694.893 931.693 693.848C933.037 692.803 934.85 692.28 937.133 692.28C938.925 692.28 940.429 692.579 941.645 693.176C942.882 693.773 943.874 694.616 944.621 695.704L942.733 697.336C942.114 696.525 941.367 695.864 940.493 695.352C939.618 694.84 938.487 694.584 937.101 694.584C935.586 694.584 934.423 694.904 933.613 695.544C932.802 696.184 932.397 697.144 932.397 698.424C932.397 699.427 932.695 700.248 933.293 700.888C933.911 701.507 935.01 701.955 936.589 702.232L938.989 702.648C940.077 702.84 940.994 703.128 941.741 703.512C942.487 703.896 943.085 704.355 943.533 704.888C944.002 705.421 944.333 706.019 944.525 706.68C944.717 707.341 944.813 708.035 944.813 708.76C944.813 710.829 944.13 712.451 942.765 713.624C941.421 714.797 939.501 715.384 937.005 715.384ZM954.88 710.648H959.008L955.328 719.512H953.184L954.88 710.648ZM994.919 715.384C993.725 715.384 992.647 715.181 991.687 714.776C990.749 714.371 989.938 713.795 989.255 713.048C988.594 712.28 988.082 711.373 987.719 710.328C987.357 709.261 987.175 708.077 987.175 706.776C987.175 705.453 987.357 704.259 987.719 703.192C988.103 702.125 988.626 701.219 989.287 700.472C989.949 699.704 990.738 699.117 991.655 698.712C992.594 698.307 993.629 698.104 994.759 698.104C995.869 698.104 996.871 698.307 997.767 698.712C998.685 699.117 999.463 699.683 1000.1 700.408C1000.74 701.112 1001.23 701.955 1001.58 702.936C1001.92 703.917 1002.09 704.995 1002.09 706.168V707.384H989.863V708.152C989.863 708.877 989.981 709.549 990.215 710.168C990.45 710.787 990.781 711.32 991.207 711.768C991.655 712.216 992.189 712.568 992.807 712.824C993.447 713.059 994.151 713.176 994.919 713.176C996.029 713.176 996.989 712.92 997.799 712.408C998.61 711.896 999.229 711.192 999.655 710.296L1001.54 711.576C1001.05 712.685 1000.23 713.603 999.079 714.328C997.949 715.032 996.562 715.384 994.919 715.384ZM994.759 700.216C994.055 700.216 993.405 700.344 992.807 700.6C992.21 700.856 991.687 701.208 991.239 701.656C990.813 702.104 990.471 702.637 990.215 703.256C989.981 703.853 989.863 704.515 989.863 705.24V705.464H999.335V705.112C999.335 704.387 999.218 703.725 998.983 703.128C998.77 702.531 998.461 702.019 998.055 701.592C997.671 701.144 997.191 700.803 996.615 700.568C996.061 700.333 995.442 700.216 994.759 700.216ZM1014.62 715C1013.36 715 1012.43 714.648 1011.83 713.944C1011.26 713.24 1010.97 712.333 1010.97 711.224V700.664H1005.47V698.488H1009.56C1010.12 698.488 1010.5 698.381 1010.71 698.168C1010.95 697.933 1011.07 697.539 1011.07 696.984V692.664H1013.53V698.488H1021.05V700.664H1013.53V712.824H1021.05V715H1014.62ZM1033.58 715.384C1032.39 715.384 1031.32 715.181 1030.38 714.776C1029.46 714.349 1028.69 713.763 1028.05 713.016C1027.41 712.269 1026.92 711.363 1026.57 710.296C1026.25 709.229 1026.09 708.045 1026.09 706.744C1026.09 705.443 1026.26 704.259 1026.61 703.192C1026.95 702.125 1027.44 701.219 1028.08 700.472C1028.72 699.704 1029.5 699.117 1030.41 698.712C1031.33 698.307 1032.38 698.104 1033.55 698.104C1035.15 698.104 1036.45 698.456 1037.45 699.16C1038.46 699.864 1039.19 700.781 1039.66 701.912L1037.61 703C1037.32 702.147 1036.81 701.485 1036.11 701.016C1035.43 700.547 1034.57 700.312 1033.55 700.312C1032.8 700.312 1032.13 700.44 1031.53 700.696C1030.96 700.931 1030.47 701.272 1030.06 701.72C1029.66 702.168 1029.35 702.701 1029.13 703.32C1028.94 703.939 1028.85 704.611 1028.85 705.336V708.152C1028.85 708.877 1028.94 709.549 1029.13 710.168C1029.35 710.787 1029.66 711.32 1030.06 711.768C1030.47 712.216 1030.97 712.568 1031.57 712.824C1032.16 713.059 1032.85 713.176 1033.61 713.176C1034.72 713.176 1035.64 712.92 1036.37 712.408C1037.09 711.896 1037.67 711.192 1038.09 710.296L1039.92 711.544C1039.43 712.653 1038.66 713.571 1037.61 714.296C1036.59 715.021 1035.25 715.384 1033.58 715.384ZM1052.19 715.288C1051.32 715.288 1050.7 715.107 1050.34 714.744C1050 714.381 1049.83 713.923 1049.83 713.368V712.792C1049.83 712.237 1050 711.779 1050.34 711.416C1050.7 711.053 1051.32 710.872 1052.19 710.872C1053.07 710.872 1053.68 711.053 1054.02 711.416C1054.38 711.779 1054.56 712.237 1054.56 712.792V713.368C1054.56 713.923 1054.38 714.381 1054.02 714.744C1053.68 715.107 1053.07 715.288 1052.19 715.288Z" fill="black"/>
<path d="M712.423 230.664V247.208C712.423 248.147 712.263 249 711.943 249.768C711.623 250.536 711.164 251.187 710.567 251.72C709.991 252.253 709.297 252.669 708.487 252.968C707.676 253.245 706.791 253.384 705.831 253.384C704.124 253.384 702.716 252.947 701.607 252.072C700.497 251.176 699.772 249.928 699.431 248.328L701.991 247.784C702.097 248.232 702.236 248.659 702.407 249.064C702.599 249.448 702.844 249.789 703.143 250.088C703.463 250.365 703.847 250.589 704.295 250.76C704.743 250.931 705.276 251.016 705.895 251.016C707.111 251.016 708.049 250.675 708.711 249.992C709.393 249.288 709.735 248.2 709.735 246.728V233H701.671V230.664H712.423ZM725.786 253.384C723.781 253.384 722.138 253.021 720.858 252.296C719.578 251.549 718.522 250.6 717.69 249.448L719.642 247.848C720.517 248.936 721.434 249.747 722.394 250.28C723.375 250.813 724.538 251.08 725.882 251.08C727.503 251.08 728.741 250.707 729.594 249.96C730.447 249.213 730.874 248.168 730.874 246.824C730.874 245.736 730.565 244.893 729.946 244.296C729.327 243.677 728.25 243.24 726.714 242.984L724.218 242.568C723.13 242.376 722.213 242.088 721.466 241.704C720.741 241.32 720.154 240.861 719.706 240.328C719.258 239.773 718.938 239.176 718.746 238.536C718.554 237.875 718.458 237.192 718.458 236.488C718.458 234.44 719.13 232.893 720.474 231.848C721.818 230.803 723.631 230.28 725.914 230.28C727.706 230.28 729.21 230.579 730.426 231.176C731.663 231.773 732.655 232.616 733.402 233.704L731.514 235.336C730.895 234.525 730.149 233.864 729.274 233.352C728.399 232.84 727.269 232.584 725.882 232.584C724.367 232.584 723.205 232.904 722.394 233.544C721.583 234.184 721.178 235.144 721.178 236.424C721.178 237.427 721.477 238.248 722.074 238.888C722.693 239.507 723.791 239.955 725.37 240.232L727.77 240.648C728.858 240.84 729.775 241.128 730.522 241.512C731.269 241.896 731.866 242.355 732.314 242.888C732.783 243.421 733.114 244.019 733.306 244.68C733.498 245.341 733.594 246.035 733.594 246.76C733.594 248.829 732.911 250.451 731.546 251.624C730.202 252.797 728.282 253.384 725.786 253.384ZM745.038 253.384C743.672 253.384 742.499 253.128 741.518 252.616C740.536 252.083 739.726 251.325 739.086 250.344C738.446 249.363 737.976 248.157 737.678 246.728C737.379 245.299 737.23 243.667 737.23 241.832C737.23 240.019 737.379 238.397 737.678 236.968C737.976 235.517 738.446 234.301 739.086 233.32C739.726 232.339 740.536 231.592 741.518 231.08C742.499 230.547 743.672 230.28 745.038 230.28C746.403 230.28 747.576 230.547 748.558 231.08C749.539 231.592 750.35 232.339 750.99 233.32C751.63 234.301 752.099 235.517 752.398 236.968C752.696 238.397 752.846 240.019 752.846 241.832C752.846 243.667 752.696 245.299 752.398 246.728C752.099 248.157 751.63 249.363 750.99 250.344C750.35 251.325 749.539 252.083 748.558 252.616C747.576 253.128 746.403 253.384 745.038 253.384ZM745.038 251.048C745.934 251.048 746.691 250.877 747.31 250.536C747.928 250.173 748.44 249.672 748.846 249.032C749.251 248.392 749.539 247.624 749.71 246.728C749.902 245.811 749.998 244.787 749.998 243.656V240.008C749.998 238.899 749.902 237.885 749.71 236.968C749.539 236.051 749.251 235.272 748.846 234.632C748.44 233.992 747.928 233.501 747.31 233.16C746.691 232.797 745.934 232.616 745.038 232.616C744.142 232.616 743.384 232.797 742.766 233.16C742.147 233.501 741.635 233.992 741.23 234.632C740.824 235.272 740.526 236.051 740.334 236.968C740.163 237.885 740.078 238.899 740.078 240.008V243.656C740.078 244.787 740.163 245.811 740.334 246.728C740.526 247.624 740.824 248.392 741.23 249.032C741.635 249.672 742.147 250.173 742.766 250.536C743.384 250.877 744.142 251.048 745.038 251.048ZM759.841 234.088H759.617V253H757.185V230.664H760.993L768.609 249.384H768.833V230.664H771.265V253H767.457L759.841 234.088ZM782.036 248.648H786.165L782.485 257.512H780.341L782.036 248.648ZM826.396 250.024H826.236C826.044 250.451 825.82 250.867 825.564 251.272C825.308 251.677 824.977 252.04 824.572 252.36C824.188 252.659 823.718 252.904 823.164 253.096C822.609 253.288 821.948 253.384 821.18 253.384C818.748 253.384 816.934 252.403 815.74 250.44C814.566 248.477 813.98 245.661 813.98 241.992C813.98 238.152 814.63 235.24 815.932 233.256C817.233 231.272 819.238 230.28 821.948 230.28C822.993 230.28 823.9 230.419 824.668 230.696C825.436 230.973 826.086 231.347 826.62 231.816C827.174 232.285 827.633 232.819 827.996 233.416C828.358 233.992 828.657 234.579 828.892 235.176L826.588 236.232C826.396 235.741 826.172 235.283 825.916 234.856C825.681 234.408 825.382 234.024 825.02 233.704C824.678 233.363 824.262 233.096 823.772 232.904C823.281 232.712 822.705 232.616 822.044 232.616C820.252 232.616 818.929 233.288 818.076 234.632C817.244 235.976 816.828 237.768 816.828 240.008V243.464C816.828 244.595 816.913 245.629 817.084 246.568C817.254 247.485 817.532 248.285 817.916 248.968C818.321 249.651 818.833 250.184 819.452 250.568C820.092 250.931 820.87 251.112 821.788 251.112C823.238 251.112 824.369 250.675 825.18 249.8C825.99 248.925 826.396 247.795 826.396 246.408V244.104H821.692V241.96H828.892V253H826.396V250.024ZM833.839 250.824H838.671V238.664H833.839V236.488H841.231V240.648H841.391C841.732 239.347 842.372 238.333 843.311 237.608C844.271 236.861 845.487 236.488 846.959 236.488H849.263V239.048H846.159C844.687 239.048 843.492 239.475 842.575 240.328C841.679 241.181 841.231 242.301 841.231 243.688V250.824H847.631V253H833.839V250.824ZM866.403 253C865.4 253 864.685 252.744 864.259 252.232C863.832 251.72 863.565 251.08 863.459 250.312H863.299C862.936 251.272 862.349 252.029 861.539 252.584C860.749 253.117 859.683 253.384 858.339 253.384C856.611 253.384 855.235 252.936 854.211 252.04C853.187 251.144 852.674 249.917 852.674 248.36C852.674 246.824 853.229 245.64 854.339 244.808C855.469 243.976 857.283 243.56 859.779 243.56H863.299V241.928C863.299 240.712 862.957 239.805 862.275 239.208C861.592 238.589 860.621 238.28 859.363 238.28C858.253 238.28 857.347 238.504 856.643 238.952C855.939 239.379 855.373 239.965 854.947 240.712L853.219 239.432C853.432 239.005 853.72 238.589 854.083 238.184C854.445 237.779 854.893 237.427 855.427 237.128C855.96 236.808 856.568 236.563 857.251 236.392C857.933 236.2 858.691 236.104 859.523 236.104C861.464 236.104 863 236.595 864.131 237.576C865.283 238.557 865.859 239.923 865.859 241.672V250.76H868.163V253H866.403ZM858.786 251.24C859.448 251.24 860.045 251.165 860.579 251.016C861.133 250.845 861.613 250.632 862.019 250.376C862.424 250.099 862.733 249.779 862.947 249.416C863.181 249.032 863.299 248.627 863.299 248.2V245.48H859.779C858.243 245.48 857.123 245.693 856.419 246.12C855.715 246.547 855.363 247.165 855.363 247.976V248.648C855.363 249.501 855.661 250.152 856.259 250.6C856.877 251.027 857.72 251.24 858.786 251.24ZM872.79 236.488H875.35V239.176H875.478C876.545 237.128 878.241 236.104 880.566 236.104C882.593 236.104 884.171 236.861 885.302 238.376C886.454 239.891 887.03 242.013 887.03 244.744C887.03 247.475 886.454 249.597 885.302 251.112C884.171 252.627 882.593 253.384 880.566 253.384C878.241 253.384 876.545 252.36 875.478 250.312H875.35V259.4H872.79V236.488ZM879.574 251.112C881.067 251.112 882.219 250.664 883.03 249.768C883.862 248.851 884.278 247.645 884.278 246.152V243.336C884.278 241.843 883.862 240.648 883.03 239.752C882.219 238.835 881.067 238.376 879.574 238.376C878.998 238.376 878.454 238.451 877.942 238.6C877.43 238.749 876.982 238.973 876.598 239.272C876.214 239.549 875.905 239.901 875.67 240.328C875.457 240.733 875.35 241.213 875.35 241.768V247.72C875.35 248.275 875.457 248.765 875.67 249.192C875.905 249.597 876.214 249.949 876.598 250.248C876.982 250.525 877.43 250.739 877.942 250.888C878.454 251.037 878.998 251.112 879.574 251.112ZM892.074 229.32H894.634V239.176H894.762C894.932 238.771 895.146 238.387 895.402 238.024C895.658 237.64 895.967 237.309 896.33 237.032C896.714 236.755 897.162 236.531 897.674 236.36C898.186 236.189 898.783 236.104 899.466 236.104C901.194 236.104 902.58 236.659 903.626 237.768C904.671 238.856 905.194 240.403 905.194 242.408V253H902.634V242.856C902.634 241.341 902.303 240.221 901.642 239.496C900.98 238.749 900.01 238.376 898.73 238.376C898.218 238.376 897.716 238.44 897.226 238.568C896.735 238.696 896.298 238.888 895.914 239.144C895.53 239.4 895.22 239.731 894.986 240.136C894.751 240.541 894.634 241.011 894.634 241.544V253H892.074V229.32ZM923.837 258.248H920.093C918.834 258.248 917.906 257.896 917.309 257.192C916.733 256.488 916.445 255.581 916.445 254.472V253.288C915.314 253.139 914.333 252.776 913.501 252.2C912.69 251.603 912.018 250.824 911.485 249.864C910.952 248.883 910.557 247.72 910.301 246.376C910.045 245.011 909.917 243.496 909.917 241.832C909.917 240.019 910.066 238.397 910.365 236.968C910.664 235.517 911.133 234.301 911.773 233.32C912.413 232.339 913.224 231.592 914.205 231.08C915.186 230.547 916.36 230.28 917.725 230.28C919.09 230.28 920.264 230.547 921.245 231.08C922.226 231.592 923.037 232.339 923.677 233.32C924.317 234.301 924.786 235.517 925.085 236.968C925.384 238.397 925.533 240.019 925.533 241.832C925.533 245.181 925.01 247.859 923.965 249.864C922.92 251.848 921.266 252.989 919.005 253.288V256.072H923.837V258.248ZM917.725 251.048C918.621 251.048 919.378 250.877 919.997 250.536C920.616 250.173 921.128 249.672 921.533 249.032C921.938 248.392 922.226 247.624 922.397 246.728C922.589 245.811 922.685 244.787 922.685 243.656V240.008C922.685 238.899 922.589 237.885 922.397 236.968C922.226 236.051 921.938 235.272 921.533 234.632C921.128 233.992 920.616 233.501 919.997 233.16C919.378 232.797 918.621 232.616 917.725 232.616C916.829 232.616 916.072 232.797 915.453 233.16C914.834 233.501 914.322 233.992 913.917 234.632C913.512 235.272 913.213 236.051 913.021 236.968C912.85 237.885 912.765 238.899 912.765 240.008V243.656C912.765 244.787 912.85 245.811 913.021 246.728C913.213 247.624 913.512 248.392 913.917 249.032C914.322 249.672 914.834 250.173 915.453 250.536C916.072 250.877 916.829 251.048 917.725 251.048ZM931.153 253V230.664H933.841V250.664H944.433V253H931.153ZM954.724 248.648H958.852L955.172 257.512H953.028L954.724 248.648ZM999.435 241.8V234.728H999.179L994.475 246.216L989.771 234.728H989.515V241.8V253H987.051V230.664H990.507L994.443 240.52H994.635L998.571 230.664H1001.9V253H999.435V241.8ZM1013.95 253.384C1012.76 253.384 1011.68 253.181 1010.72 252.776C1009.78 252.371 1008.97 251.795 1008.29 251.048C1007.63 250.28 1007.11 249.373 1006.75 248.328C1006.39 247.261 1006.21 246.077 1006.21 244.776C1006.21 243.453 1006.39 242.259 1006.75 241.192C1007.13 240.125 1007.66 239.219 1008.32 238.472C1008.98 237.704 1009.77 237.117 1010.69 236.712C1011.63 236.307 1012.66 236.104 1013.79 236.104C1014.9 236.104 1015.9 236.307 1016.8 236.712C1017.72 237.117 1018.49 237.683 1019.13 238.408C1019.77 239.112 1020.27 239.955 1020.61 240.936C1020.95 241.917 1021.12 242.995 1021.12 244.168V245.384H1008.89V246.152C1008.89 246.877 1009.01 247.549 1009.25 248.168C1009.48 248.787 1009.81 249.32 1010.24 249.768C1010.69 250.216 1011.22 250.568 1011.84 250.824C1012.48 251.059 1013.18 251.176 1013.95 251.176C1015.06 251.176 1016.02 250.92 1016.83 250.408C1017.64 249.896 1018.26 249.192 1018.69 248.296L1020.57 249.576C1020.08 250.685 1019.26 251.603 1018.11 252.328C1016.98 253.032 1015.59 253.384 1013.95 253.384ZM1013.79 238.216C1013.09 238.216 1012.44 238.344 1011.84 238.6C1011.24 238.856 1010.72 239.208 1010.27 239.656C1009.84 240.104 1009.5 240.637 1009.25 241.256C1009.01 241.853 1008.89 242.515 1008.89 243.24V243.464H1018.37V243.112C1018.37 242.387 1018.25 241.725 1018.01 241.128C1017.8 240.531 1017.49 240.019 1017.09 239.592C1016.7 239.144 1016.22 238.803 1015.65 238.568C1015.09 238.333 1014.47 238.216 1013.79 238.216ZM1036.85 250.312H1036.72C1035.66 252.36 1033.96 253.384 1031.63 253.384C1029.61 253.384 1028.02 252.627 1026.87 251.112C1025.74 249.597 1025.17 247.475 1025.17 244.744C1025.17 242.013 1025.74 239.891 1026.87 238.376C1028.02 236.861 1029.61 236.104 1031.63 236.104C1033.96 236.104 1035.66 237.128 1036.72 239.176H1036.85V229.32H1039.41V253H1036.85V250.312ZM1032.63 251.112C1033.2 251.112 1033.75 251.037 1034.26 250.888C1034.77 250.739 1035.22 250.525 1035.6 250.248C1035.99 249.949 1036.28 249.597 1036.5 249.192C1036.73 248.765 1036.85 248.275 1036.85 247.72V241.768C1036.85 241.213 1036.73 240.733 1036.5 240.328C1036.28 239.901 1035.99 239.549 1035.6 239.272C1035.22 238.973 1034.77 238.749 1034.26 238.6C1033.75 238.451 1033.2 238.376 1032.63 238.376C1031.13 238.376 1029.97 238.835 1029.14 239.752C1028.33 240.648 1027.92 241.843 1027.92 243.336V246.152C1027.92 247.645 1028.33 248.851 1029.14 249.768C1029.97 250.664 1031.13 251.112 1032.63 251.112ZM1053.06 232.84C1052.31 232.84 1051.79 232.691 1051.49 232.392C1051.19 232.072 1051.05 231.677 1051.05 231.208V230.696C1051.05 230.227 1051.19 229.843 1051.49 229.544C1051.79 229.224 1052.31 229.064 1053.06 229.064C1053.81 229.064 1054.33 229.224 1054.63 229.544C1054.93 229.843 1055.08 230.227 1055.08 230.696V231.208C1055.08 231.677 1054.93 232.072 1054.63 232.392C1054.33 232.691 1053.81 232.84 1053.06 232.84ZM1045.83 250.824H1051.78V238.664H1045.83V236.488H1054.34V250.824H1059.91V253H1045.83V250.824ZM1077.47 253C1076.46 253 1075.75 252.744 1075.32 252.232C1074.89 251.72 1074.63 251.08 1074.52 250.312H1074.36C1074 251.272 1073.41 252.029 1072.6 252.584C1071.81 253.117 1070.75 253.384 1069.4 253.384C1067.67 253.384 1066.3 252.936 1065.27 252.04C1064.25 251.144 1063.74 249.917 1063.74 248.36C1063.74 246.824 1064.29 245.64 1065.4 244.808C1066.53 243.976 1068.35 243.56 1070.84 243.56H1074.36V241.928C1074.36 240.712 1074.02 239.805 1073.34 239.208C1072.65 238.589 1071.68 238.28 1070.43 238.28C1069.32 238.28 1068.41 238.504 1067.71 238.952C1067 239.379 1066.44 239.965 1066.01 240.712L1064.28 239.432C1064.49 239.005 1064.78 238.589 1065.15 238.184C1065.51 237.779 1065.96 237.427 1066.49 237.128C1067.02 236.808 1067.63 236.563 1068.31 236.392C1069 236.2 1069.75 236.104 1070.59 236.104C1072.53 236.104 1074.06 236.595 1075.19 237.576C1076.35 238.557 1076.92 239.923 1076.92 241.672V250.76H1079.23V253H1077.47ZM1069.85 251.24C1070.51 251.24 1071.11 251.165 1071.64 251.016C1072.2 250.845 1072.68 250.632 1073.08 250.376C1073.49 250.099 1073.8 249.779 1074.01 249.416C1074.24 249.032 1074.36 248.627 1074.36 248.2V245.48H1070.84C1069.31 245.48 1068.19 245.693 1067.48 246.12C1066.78 246.547 1066.43 247.165 1066.43 247.976V248.648C1066.43 249.501 1066.72 250.152 1067.32 250.6C1067.94 251.027 1068.78 251.24 1069.85 251.24ZM1085.77 244.616V241.928H1095.05V244.616H1085.77ZM1102.66 250.824H1108.22V238.664H1102.34V236.488H1108.22V233.096C1108.22 231.987 1108.51 231.08 1109.09 230.376C1109.69 229.672 1110.61 229.32 1111.87 229.32H1117.41V231.496H1110.78V236.488H1117.41V238.664H1110.78V250.824H1116.67V253H1102.66V250.824ZM1129.81 232.84C1129.06 232.84 1128.54 232.691 1128.24 232.392C1127.94 232.072 1127.8 231.677 1127.8 231.208V230.696C1127.8 230.227 1127.94 229.843 1128.24 229.544C1128.54 229.224 1129.06 229.064 1129.81 229.064C1130.56 229.064 1131.08 229.224 1131.38 229.544C1131.68 229.843 1131.83 230.227 1131.83 230.696V231.208C1131.83 231.677 1131.68 232.072 1131.38 232.392C1131.08 232.691 1130.56 232.84 1129.81 232.84ZM1122.58 250.824H1128.53V238.664H1122.58V236.488H1131.09V250.824H1136.66V253H1122.58V250.824ZM1140.94 250.824H1146.7V231.496H1140.94V229.32H1149.26V250.824H1155.02V253H1140.94V250.824ZM1167.45 253.384C1166.26 253.384 1165.18 253.181 1164.22 252.776C1163.28 252.371 1162.47 251.795 1161.79 251.048C1161.13 250.28 1160.61 249.373 1160.25 248.328C1159.89 247.261 1159.71 246.077 1159.71 244.776C1159.71 243.453 1159.89 242.259 1160.25 241.192C1160.63 240.125 1161.16 239.219 1161.82 238.472C1162.48 237.704 1163.27 237.117 1164.19 236.712C1165.13 236.307 1166.16 236.104 1167.29 236.104C1168.4 236.104 1169.4 236.307 1170.3 236.712C1171.22 237.117 1171.99 237.683 1172.63 238.408C1173.27 239.112 1173.77 239.955 1174.11 240.936C1174.45 241.917 1174.62 242.995 1174.62 244.168V245.384H1162.39V246.152C1162.39 246.877 1162.51 247.549 1162.75 248.168C1162.98 248.787 1163.31 249.32 1163.74 249.768C1164.19 250.216 1164.72 250.568 1165.34 250.824C1165.98 251.059 1166.68 251.176 1167.45 251.176C1168.56 251.176 1169.52 250.92 1170.33 250.408C1171.14 249.896 1171.76 249.192 1172.19 248.296L1174.07 249.576C1173.58 250.685 1172.76 251.603 1171.61 252.328C1170.48 253.032 1169.09 253.384 1167.45 253.384ZM1167.29 238.216C1166.59 238.216 1165.94 238.344 1165.34 238.6C1164.74 238.856 1164.22 239.208 1163.77 239.656C1163.34 240.104 1163 240.637 1162.75 241.256C1162.51 241.853 1162.39 242.515 1162.39 243.24V243.464H1171.87V243.112C1171.87 242.387 1171.75 241.725 1171.51 241.128C1171.3 240.531 1170.99 240.019 1170.59 239.592C1170.2 239.144 1169.72 238.803 1169.15 238.568C1168.59 238.333 1167.97 238.216 1167.29 238.216ZM1179.21 250.824H1184.05V238.664H1179.21V236.488H1186.61V240.648H1186.77C1187.11 239.347 1187.75 238.333 1188.69 237.608C1189.65 236.861 1190.86 236.488 1192.33 236.488H1194.64V239.048H1191.53C1190.06 239.048 1188.87 239.475 1187.95 240.328C1187.05 241.181 1186.61 242.301 1186.61 243.688V250.824H1193.01V253H1179.21V250.824Z" fill="black"/>
<line x1="773" y1="470" x2="1417" y2="470" stroke="black" stroke-width="6"/>
<line x1="1414" y1="473" x2="1414" y2="151" stroke="black" stroke-width="6"/>
</g>
<defs>
<clipPath id="clip0">
<rect width="1584" height="1011" fill="white"/>
</clipPath>
</defs>
</svg>
