<svg width="1546" height="971" viewBox="0 0 1546 971" fill="none" xmlns="http://www.w3.org/2000/svg">
<g clip-path="url(#clip0)">
<rect width="1546" height="971" fill="white"/>
<rect x="-2" y="181" width="1548" height="790" fill="#1DD6D6" fill-opacity="0.2"/>
<path d="M871.13 519V496.664H885.21V499H873.818V506.52H884.25V508.856H873.818V519H871.13ZM889.902 516.824H894.734V504.664H889.902V502.488H897.294V506.648H897.454C897.795 505.347 898.435 504.333 899.374 503.608C900.334 502.861 901.55 502.488 903.022 502.488H905.326V505.048H902.222C900.75 505.048 899.555 505.475 898.638 506.328C897.742 507.181 897.294 508.301 897.294 509.688V516.824H903.694V519H889.902V516.824ZM916.225 519.384C915.073 519.384 914.028 519.181 913.089 518.776C912.172 518.371 911.382 517.795 910.721 517.048C910.081 516.28 909.59 515.373 909.249 514.328C908.908 513.261 908.737 512.067 908.737 510.744C908.737 509.443 908.908 508.259 909.249 507.192C909.59 506.125 910.081 505.219 910.721 504.472C911.382 503.704 912.172 503.117 913.089 502.712C914.028 502.307 915.073 502.104 916.225 502.104C917.377 502.104 918.412 502.307 919.329 502.712C920.268 503.117 921.057 503.704 921.697 504.472C922.358 505.219 922.86 506.125 923.201 507.192C923.542 508.259 923.713 509.443 923.713 510.744C923.713 512.067 923.542 513.261 923.201 514.328C922.86 515.373 922.358 516.28 921.697 517.048C921.057 517.795 920.268 518.371 919.329 518.776C918.412 519.181 917.377 519.384 916.225 519.384ZM916.225 517.176C917.654 517.176 918.806 516.749 919.681 515.896C920.556 515.043 920.993 513.72 920.993 511.928V509.56C920.993 507.768 920.556 506.445 919.681 505.592C918.806 504.739 917.654 504.312 916.225 504.312C914.796 504.312 913.644 504.739 912.769 505.592C911.894 506.445 911.457 507.768 911.457 509.56V511.928C911.457 513.72 911.894 515.043 912.769 515.896C913.644 516.749 914.796 517.176 916.225 517.176ZM928.949 519V502.488H931.509V505.176H931.637C931.807 504.771 932.021 504.387 932.277 504.024C932.533 503.64 932.842 503.309 933.205 503.032C933.589 502.755 934.037 502.531 934.549 502.36C935.061 502.189 935.658 502.104 936.341 502.104C938.069 502.104 939.455 502.659 940.501 503.768C941.546 504.856 942.069 506.403 942.069 508.408V519H939.509V508.856C939.509 507.341 939.178 506.221 938.517 505.496C937.855 504.749 936.885 504.376 935.605 504.376C935.093 504.376 934.591 504.44 934.101 504.568C933.61 504.696 933.173 504.888 932.789 505.144C932.405 505.4 932.095 505.731 931.861 506.136C931.626 506.541 931.509 507.011 931.509 507.544V519H928.949ZM955.4 519C954.141 519 953.213 518.648 952.616 517.944C952.04 517.24 951.752 516.333 951.752 515.224V504.664H946.248V502.488H950.344C950.899 502.488 951.283 502.381 951.496 502.168C951.731 501.933 951.848 501.539 951.848 500.984V496.664H954.312V502.488H961.832V504.664H954.312V516.824H961.832V519H955.4ZM974.076 519.384C972.881 519.384 971.804 519.181 970.844 518.776C969.905 518.371 969.094 517.795 968.411 517.048C967.75 516.28 967.238 515.373 966.876 514.328C966.513 513.261 966.332 512.077 966.332 510.776C966.332 509.453 966.513 508.259 966.876 507.192C967.26 506.125 967.782 505.219 968.444 504.472C969.105 503.704 969.894 503.117 970.812 502.712C971.75 502.307 972.785 502.104 973.916 502.104C975.025 502.104 976.028 502.307 976.924 502.712C977.841 503.117 978.62 503.683 979.26 504.408C979.9 505.112 980.39 505.955 980.732 506.936C981.073 507.917 981.244 508.995 981.244 510.168V511.384H969.02V512.152C969.02 512.877 969.137 513.549 969.372 514.168C969.606 514.787 969.937 515.32 970.364 515.768C970.812 516.216 971.345 516.568 971.964 516.824C972.604 517.059 973.308 517.176 974.076 517.176C975.185 517.176 976.145 516.92 976.956 516.408C977.766 515.896 978.385 515.192 978.812 514.296L980.7 515.576C980.209 516.685 979.388 517.603 978.236 518.328C977.105 519.032 975.718 519.384 974.076 519.384ZM973.916 504.216C973.212 504.216 972.561 504.344 971.964 504.6C971.366 504.856 970.844 505.208 970.396 505.656C969.969 506.104 969.628 506.637 969.372 507.256C969.137 507.853 969.02 508.515 969.02 509.24V509.464H978.492V509.112C978.492 508.387 978.374 507.725 978.14 507.128C977.926 506.531 977.617 506.019 977.212 505.592C976.828 505.144 976.348 504.803 975.772 504.568C975.217 504.333 974.598 504.216 973.916 504.216ZM986.511 519V502.488H989.071V505.176H989.199C989.37 504.771 989.583 504.387 989.839 504.024C990.095 503.64 990.404 503.309 990.767 503.032C991.151 502.755 991.599 502.531 992.111 502.36C992.623 502.189 993.22 502.104 993.903 502.104C995.631 502.104 997.018 502.659 998.063 503.768C999.108 504.856 999.631 506.403 999.631 508.408V519H997.071V508.856C997.071 507.341 996.74 506.221 996.079 505.496C995.418 504.749 994.447 504.376 993.167 504.376C992.655 504.376 992.154 504.44 991.663 504.568C991.172 504.696 990.735 504.888 990.351 505.144C989.967 505.4 989.658 505.731 989.423 506.136C989.188 506.541 989.071 507.011 989.071 507.544V519H986.511ZM1016.16 516.312H1016.03C1014.97 518.36 1013.27 519.384 1010.95 519.384C1008.92 519.384 1007.33 518.627 1006.18 517.112C1005.05 515.597 1004.48 513.475 1004.48 510.744C1004.48 508.013 1005.05 505.891 1006.18 504.376C1007.33 502.861 1008.92 502.104 1010.95 502.104C1013.27 502.104 1014.97 503.128 1016.03 505.176H1016.16V495.32H1018.72V519H1016.16V516.312ZM1011.94 517.112C1012.51 517.112 1013.06 517.037 1013.57 516.888C1014.08 516.739 1014.53 516.525 1014.91 516.248C1015.3 515.949 1015.6 515.597 1015.81 515.192C1016.05 514.765 1016.16 514.275 1016.16 513.72V507.768C1016.16 507.213 1016.05 506.733 1015.81 506.328C1015.6 505.901 1015.3 505.549 1014.91 505.272C1014.53 504.973 1014.08 504.749 1013.57 504.6C1013.06 504.451 1012.51 504.376 1011.94 504.376C1010.45 504.376 1009.28 504.835 1008.45 505.752C1007.64 506.648 1007.23 507.843 1007.23 509.336V512.152C1007.23 513.645 1007.64 514.851 1008.45 515.768C1009.28 516.664 1010.45 517.112 1011.94 517.112ZM1030.13 517.016V510.328H1023.73V508.152H1030.13V501.464H1032.57V508.152H1038.97V510.328H1032.57V517.016H1030.13ZM1050.73 519.384C1049 519.384 1047.51 519.096 1046.25 518.52C1045.01 517.923 1043.96 517.133 1043.08 516.152L1044.81 514.648C1045.6 515.48 1046.46 516.12 1047.4 516.568C1048.34 517.016 1049.47 517.24 1050.79 517.24C1052.07 517.24 1053.12 517.016 1053.93 516.568C1054.76 516.099 1055.18 515.373 1055.18 514.392C1055.18 513.965 1055.09 513.613 1054.92 513.336C1054.77 513.037 1054.56 512.803 1054.28 512.632C1054 512.461 1053.69 512.333 1053.35 512.248C1053.01 512.141 1052.65 512.056 1052.27 511.992L1049.67 511.608C1049.1 511.523 1048.47 511.405 1047.79 511.256C1047.12 511.107 1046.52 510.872 1045.96 510.552C1045.41 510.211 1044.94 509.763 1044.55 509.208C1044.19 508.653 1044.01 507.928 1044.01 507.032C1044.01 506.2 1044.17 505.485 1044.49 504.888C1044.83 504.269 1045.3 503.757 1045.9 503.352C1046.49 502.925 1047.2 502.616 1048.01 502.424C1048.82 502.211 1049.71 502.104 1050.67 502.104C1052.16 502.104 1053.45 502.339 1054.54 502.808C1055.65 503.277 1056.6 503.928 1057.39 504.76L1055.72 506.328C1055.53 506.093 1055.28 505.859 1054.99 505.624C1054.71 505.368 1054.36 505.144 1053.93 504.952C1053.52 504.739 1053.04 504.568 1052.49 504.44C1051.93 504.312 1051.29 504.248 1050.57 504.248C1049.27 504.248 1048.27 504.472 1047.56 504.92C1046.88 505.368 1046.54 506.019 1046.54 506.872C1046.54 507.299 1046.61 507.661 1046.76 507.96C1046.93 508.237 1047.16 508.461 1047.43 508.632C1047.71 508.803 1048.02 508.941 1048.36 509.048C1048.72 509.133 1049.09 509.208 1049.45 509.272L1052.04 509.656C1052.64 509.741 1053.27 509.859 1053.93 510.008C1054.59 510.157 1055.2 510.403 1055.75 510.744C1056.31 511.064 1056.77 511.501 1057.13 512.056C1057.51 512.611 1057.71 513.336 1057.71 514.232C1057.71 515.875 1057.07 517.144 1055.79 518.04C1054.53 518.936 1052.84 519.384 1050.73 519.384ZM1070.01 519.384C1068.82 519.384 1067.74 519.181 1066.78 518.776C1065.84 518.371 1065.03 517.795 1064.35 517.048C1063.69 516.28 1063.18 515.373 1062.81 514.328C1062.45 513.261 1062.27 512.077 1062.27 510.776C1062.27 509.453 1062.45 508.259 1062.81 507.192C1063.2 506.125 1063.72 505.219 1064.38 504.472C1065.04 503.704 1065.83 503.117 1066.75 502.712C1067.69 502.307 1068.72 502.104 1069.85 502.104C1070.96 502.104 1071.97 502.307 1072.86 502.712C1073.78 503.117 1074.56 503.683 1075.2 504.408C1075.84 505.112 1076.33 505.955 1076.67 506.936C1077.01 507.917 1077.18 508.995 1077.18 510.168V511.384H1064.96V512.152C1064.96 512.877 1065.07 513.549 1065.31 514.168C1065.54 514.787 1065.87 515.32 1066.3 515.768C1066.75 516.216 1067.28 516.568 1067.9 516.824C1068.54 517.059 1069.25 517.176 1070.01 517.176C1071.12 517.176 1072.08 516.92 1072.89 516.408C1073.7 515.896 1074.32 515.192 1074.75 514.296L1076.64 515.576C1076.15 516.685 1075.33 517.603 1074.17 518.328C1073.04 519.032 1071.66 519.384 1070.01 519.384ZM1069.85 504.216C1069.15 504.216 1068.5 504.344 1067.9 504.6C1067.3 504.856 1066.78 505.208 1066.33 505.656C1065.91 506.104 1065.57 506.637 1065.31 507.256C1065.07 507.853 1064.96 508.515 1064.96 509.24V509.464H1074.43V509.112C1074.43 508.387 1074.31 507.725 1074.08 507.128C1073.86 506.531 1073.55 506.019 1073.15 505.592C1072.77 505.144 1072.29 504.803 1071.71 504.568C1071.15 504.333 1070.54 504.216 1069.85 504.216ZM1081.78 516.824H1086.61V504.664H1081.78V502.488H1089.17V506.648H1089.33C1089.67 505.347 1090.31 504.333 1091.25 503.608C1092.21 502.861 1093.42 502.488 1094.9 502.488H1097.2V505.048H1094.1C1092.62 505.048 1091.43 505.475 1090.51 506.328C1089.62 507.181 1089.17 508.301 1089.17 509.688V516.824H1095.57V519H1081.78V516.824ZM1106.47 519L1100.55 502.488H1103.14L1105.51 509.4L1108.07 516.856H1108.2L1110.76 509.4L1113.12 502.488H1115.65L1109.73 519H1106.47ZM1127.58 519.384C1126.38 519.384 1125.3 519.181 1124.34 518.776C1123.4 518.371 1122.59 517.795 1121.91 517.048C1121.25 516.28 1120.74 515.373 1120.38 514.328C1120.01 513.261 1119.83 512.077 1119.83 510.776C1119.83 509.453 1120.01 508.259 1120.38 507.192C1120.76 506.125 1121.28 505.219 1121.94 504.472C1122.6 503.704 1123.39 503.117 1124.31 502.712C1125.25 502.307 1126.28 502.104 1127.42 502.104C1128.52 502.104 1129.53 502.307 1130.42 502.712C1131.34 503.117 1132.12 503.683 1132.76 504.408C1133.4 505.112 1133.89 505.955 1134.23 506.936C1134.57 507.917 1134.74 508.995 1134.74 510.168V511.384H1122.52V512.152C1122.52 512.877 1122.64 513.549 1122.87 514.168C1123.11 514.787 1123.44 515.32 1123.86 515.768C1124.31 516.216 1124.84 516.568 1125.46 516.824C1126.1 517.059 1126.81 517.176 1127.58 517.176C1128.68 517.176 1129.64 516.92 1130.46 516.408C1131.27 515.896 1131.88 515.192 1132.31 514.296L1134.2 515.576C1133.71 516.685 1132.89 517.603 1131.74 518.328C1130.6 519.032 1129.22 519.384 1127.58 519.384ZM1127.42 504.216C1126.71 504.216 1126.06 504.344 1125.46 504.6C1124.87 504.856 1124.34 505.208 1123.9 505.656C1123.47 506.104 1123.13 506.637 1122.87 507.256C1122.64 507.853 1122.52 508.515 1122.52 509.24V509.464H1131.99V509.112C1131.99 508.387 1131.87 507.725 1131.64 507.128C1131.43 506.531 1131.12 506.019 1130.71 505.592C1130.33 505.144 1129.85 504.803 1129.27 504.568C1128.72 504.333 1128.1 504.216 1127.42 504.216ZM1139.34 516.824H1144.17V504.664H1139.34V502.488H1146.73V506.648H1146.89C1147.23 505.347 1147.87 504.333 1148.81 503.608C1149.77 502.861 1150.99 502.488 1152.46 502.488H1154.76V505.048H1151.66C1150.19 505.048 1148.99 505.475 1148.08 506.328C1147.18 507.181 1146.73 508.301 1146.73 509.688V516.824H1153.13V519H1139.34V516.824ZM1158.62 516.824H1164.38V497.496H1158.62V495.32H1166.94V516.824H1172.7V519H1158.62V516.824ZM1185.14 519.384C1183.94 519.384 1182.87 519.181 1181.91 518.776C1180.97 518.371 1180.16 517.795 1179.47 517.048C1178.81 516.28 1178.3 515.373 1177.94 514.328C1177.58 513.261 1177.39 512.077 1177.39 510.776C1177.39 509.453 1177.58 508.259 1177.94 507.192C1178.32 506.125 1178.84 505.219 1179.51 504.472C1180.17 503.704 1180.96 503.117 1181.87 502.712C1182.81 502.307 1183.85 502.104 1184.98 502.104C1186.09 502.104 1187.09 502.307 1187.99 502.712C1188.9 503.117 1189.68 503.683 1190.32 504.408C1190.96 505.112 1191.45 505.955 1191.79 506.936C1192.14 507.917 1192.31 508.995 1192.31 510.168V511.384H1180.08V512.152C1180.08 512.877 1180.2 513.549 1180.43 514.168C1180.67 514.787 1181 515.32 1181.43 515.768C1181.87 516.216 1182.41 516.568 1183.03 516.824C1183.67 517.059 1184.37 517.176 1185.14 517.176C1186.25 517.176 1187.21 516.92 1188.02 516.408C1188.83 515.896 1189.45 515.192 1189.87 514.296L1191.76 515.576C1191.27 516.685 1190.45 517.603 1189.3 518.328C1188.17 519.032 1186.78 519.384 1185.14 519.384ZM1184.98 504.216C1184.27 504.216 1183.62 504.344 1183.03 504.6C1182.43 504.856 1181.91 505.208 1181.46 505.656C1181.03 506.104 1180.69 506.637 1180.43 507.256C1180.2 507.853 1180.08 508.515 1180.08 509.24V509.464H1189.55V509.112C1189.55 508.387 1189.44 507.725 1189.2 507.128C1188.99 506.531 1188.68 506.019 1188.27 505.592C1187.89 505.144 1187.41 504.803 1186.83 504.568C1186.28 504.333 1185.66 504.216 1184.98 504.216ZM1204.23 519.384C1202.5 519.384 1201.01 519.096 1199.75 518.52C1198.51 517.923 1197.46 517.133 1196.58 516.152L1198.31 514.648C1199.1 515.48 1199.96 516.12 1200.9 516.568C1201.84 517.016 1202.97 517.24 1204.29 517.24C1205.57 517.24 1206.62 517.016 1207.43 516.568C1208.26 516.099 1208.68 515.373 1208.68 514.392C1208.68 513.965 1208.59 513.613 1208.42 513.336C1208.27 513.037 1208.06 512.803 1207.78 512.632C1207.5 512.461 1207.19 512.333 1206.85 512.248C1206.51 512.141 1206.15 512.056 1205.77 511.992L1203.17 511.608C1202.6 511.523 1201.97 511.405 1201.29 511.256C1200.62 511.107 1200.02 510.872 1199.46 510.552C1198.91 510.211 1198.44 509.763 1198.05 509.208C1197.69 508.653 1197.51 507.928 1197.51 507.032C1197.51 506.2 1197.67 505.485 1197.99 504.888C1198.33 504.269 1198.8 503.757 1199.4 503.352C1199.99 502.925 1200.7 502.616 1201.51 502.424C1202.32 502.211 1203.21 502.104 1204.17 502.104C1205.66 502.104 1206.95 502.339 1208.04 502.808C1209.15 503.277 1210.1 503.928 1210.89 504.76L1209.22 506.328C1209.03 506.093 1208.78 505.859 1208.49 505.624C1208.21 505.368 1207.86 505.144 1207.43 504.952C1207.02 504.739 1206.54 504.568 1205.99 504.44C1205.43 504.312 1204.79 504.248 1204.07 504.248C1202.77 504.248 1201.77 504.472 1201.06 504.92C1200.38 505.368 1200.04 506.019 1200.04 506.872C1200.04 507.299 1200.11 507.661 1200.26 507.96C1200.43 508.237 1200.66 508.461 1200.93 508.632C1201.21 508.803 1201.52 508.941 1201.86 509.048C1202.22 509.133 1202.59 509.208 1202.95 509.272L1205.54 509.656C1206.14 509.741 1206.77 509.859 1207.43 510.008C1208.09 510.157 1208.7 510.403 1209.25 510.744C1209.81 511.064 1210.27 511.501 1210.63 512.056C1211.01 512.611 1211.21 513.336 1211.21 514.232C1211.21 515.875 1210.57 517.144 1209.29 518.04C1208.03 518.936 1206.34 519.384 1204.23 519.384ZM1223.42 519.384C1221.69 519.384 1220.2 519.096 1218.94 518.52C1217.7 517.923 1216.64 517.133 1215.77 516.152L1217.5 514.648C1218.29 515.48 1219.15 516.12 1220.09 516.568C1221.03 517.016 1222.16 517.24 1223.48 517.24C1224.76 517.24 1225.81 517.016 1226.62 516.568C1227.45 516.099 1227.87 515.373 1227.87 514.392C1227.87 513.965 1227.78 513.613 1227.61 513.336C1227.46 513.037 1227.25 512.803 1226.97 512.632C1226.69 512.461 1226.38 512.333 1226.04 512.248C1225.7 512.141 1225.34 512.056 1224.95 511.992L1222.36 511.608C1221.79 511.523 1221.16 511.405 1220.47 511.256C1219.81 511.107 1219.2 510.872 1218.65 510.552C1218.09 510.211 1217.63 509.763 1217.24 509.208C1216.88 508.653 1216.7 507.928 1216.7 507.032C1216.7 506.2 1216.86 505.485 1217.18 504.888C1217.52 504.269 1217.99 503.757 1218.59 503.352C1219.18 502.925 1219.89 502.616 1220.7 502.424C1221.51 502.211 1222.39 502.104 1223.35 502.104C1224.85 502.104 1226.14 502.339 1227.23 502.808C1228.33 503.277 1229.28 503.928 1230.07 504.76L1228.41 506.328C1228.22 506.093 1227.97 505.859 1227.67 505.624C1227.4 505.368 1227.04 505.144 1226.62 504.952C1226.21 504.739 1225.73 504.568 1225.18 504.44C1224.62 504.312 1223.98 504.248 1223.26 504.248C1221.96 504.248 1220.95 504.472 1220.25 504.92C1219.57 505.368 1219.23 506.019 1219.23 506.872C1219.23 507.299 1219.3 507.661 1219.45 507.96C1219.62 508.237 1219.84 508.461 1220.12 508.632C1220.4 508.803 1220.71 508.941 1221.05 509.048C1221.41 509.133 1221.77 509.208 1222.14 509.272L1224.73 509.656C1225.33 509.741 1225.96 509.859 1226.62 510.008C1227.28 510.157 1227.89 510.403 1228.44 510.744C1229 511.064 1229.45 511.501 1229.82 512.056C1230.2 512.611 1230.39 513.336 1230.39 514.232C1230.39 515.875 1229.75 517.144 1228.47 518.04C1227.21 518.936 1225.53 519.384 1223.42 519.384ZM1237.77 510.616V507.928H1247.05V510.616H1237.77ZM1255.36 495.32H1257.92V510.264H1258.05L1260.93 507.544L1266.43 502.488H1269.57L1262.72 508.952L1270.37 519H1267.2L1260.77 510.424L1257.92 513.016V519H1255.36V495.32ZM1280.79 519.384C1279.64 519.384 1278.59 519.181 1277.65 518.776C1276.73 518.371 1275.94 517.795 1275.28 517.048C1274.64 516.28 1274.15 515.373 1273.81 514.328C1273.47 513.261 1273.3 512.067 1273.3 510.744C1273.3 509.443 1273.47 508.259 1273.81 507.192C1274.15 506.125 1274.64 505.219 1275.28 504.472C1275.94 503.704 1276.73 503.117 1277.65 502.712C1278.59 502.307 1279.64 502.104 1280.79 502.104C1281.94 502.104 1282.97 502.307 1283.89 502.712C1284.83 503.117 1285.62 503.704 1286.26 504.472C1286.92 505.219 1287.42 506.125 1287.76 507.192C1288.1 508.259 1288.28 509.443 1288.28 510.744C1288.28 512.067 1288.1 513.261 1287.76 514.328C1287.42 515.373 1286.92 516.28 1286.26 517.048C1285.62 517.795 1284.83 518.371 1283.89 518.776C1282.97 519.181 1281.94 519.384 1280.79 519.384ZM1280.79 517.176C1282.22 517.176 1283.37 516.749 1284.24 515.896C1285.12 515.043 1285.56 513.72 1285.56 511.928V509.56C1285.56 507.768 1285.12 506.445 1284.24 505.592C1283.37 504.739 1282.22 504.312 1280.79 504.312C1279.36 504.312 1278.21 504.739 1277.33 505.592C1276.46 506.445 1276.02 507.768 1276.02 509.56V511.928C1276.02 513.72 1276.46 515.043 1277.33 515.896C1278.21 516.749 1279.36 517.176 1280.79 517.176ZM1303.98 516.312H1303.85C1302.78 518.36 1301.08 519.384 1298.76 519.384C1296.73 519.384 1295.14 518.627 1293.99 517.112C1292.86 515.597 1292.3 513.475 1292.3 510.744C1292.3 508.013 1292.86 505.891 1293.99 504.376C1295.14 502.861 1296.73 502.104 1298.76 502.104C1301.08 502.104 1302.78 503.128 1303.85 505.176H1303.98V495.32H1306.53V519H1303.98V516.312ZM1299.75 517.112C1300.33 517.112 1300.87 517.037 1301.38 516.888C1301.9 516.739 1302.34 516.525 1302.73 516.248C1303.11 515.949 1303.41 515.597 1303.62 515.192C1303.86 514.765 1303.98 514.275 1303.98 513.72V507.768C1303.98 507.213 1303.86 506.733 1303.62 506.328C1303.41 505.901 1303.11 505.549 1302.73 505.272C1302.34 504.973 1301.9 504.749 1301.38 504.6C1300.87 504.451 1300.33 504.376 1299.75 504.376C1298.26 504.376 1297.1 504.835 1296.26 505.752C1295.45 506.648 1295.05 507.843 1295.05 509.336V512.152C1295.05 513.645 1295.45 514.851 1296.26 515.768C1297.1 516.664 1298.26 517.112 1299.75 517.112ZM1319.45 519.384C1318.26 519.384 1317.18 519.181 1316.22 518.776C1315.28 518.371 1314.47 517.795 1313.79 517.048C1313.13 516.28 1312.61 515.373 1312.25 514.328C1311.89 513.261 1311.71 512.077 1311.71 510.776C1311.71 509.453 1311.89 508.259 1312.25 507.192C1312.63 506.125 1313.16 505.219 1313.82 504.472C1314.48 503.704 1315.27 503.117 1316.19 502.712C1317.13 502.307 1318.16 502.104 1319.29 502.104C1320.4 502.104 1321.4 502.307 1322.3 502.712C1323.22 503.117 1323.99 503.683 1324.63 504.408C1325.27 505.112 1325.77 505.955 1326.11 506.936C1326.45 507.917 1326.62 508.995 1326.62 510.168V511.384H1314.39V512.152C1314.39 512.877 1314.51 513.549 1314.75 514.168C1314.98 514.787 1315.31 515.32 1315.74 515.768C1316.19 516.216 1316.72 516.568 1317.34 516.824C1317.98 517.059 1318.68 517.176 1319.45 517.176C1320.56 517.176 1321.52 516.92 1322.33 516.408C1323.14 515.896 1323.76 515.192 1324.19 514.296L1326.07 515.576C1325.58 516.685 1324.76 517.603 1323.61 518.328C1322.48 519.032 1321.09 519.384 1319.45 519.384ZM1319.29 504.216C1318.59 504.216 1317.94 504.344 1317.34 504.6C1316.74 504.856 1316.22 505.208 1315.77 505.656C1315.34 506.104 1315 506.637 1314.75 507.256C1314.51 507.853 1314.39 508.515 1314.39 509.24V509.464H1323.87V509.112C1323.87 508.387 1323.75 507.725 1323.51 507.128C1323.3 506.531 1322.99 506.019 1322.59 505.592C1322.2 505.144 1321.72 504.803 1321.15 504.568C1320.59 504.333 1319.97 504.216 1319.29 504.216Z" fill="black"/>
<rect x="473" y="781" width="283" height="141" fill="#3DF339" fill-opacity="0.4"/>
<rect x="473" y="462" width="283" height="141" fill="#5F53E3" fill-opacity="0.4"/>
<rect x="39" y="462" width="361" height="141" fill="#ECA232"/>
<rect x="473" y="321" width="283" height="141" fill="#5F53E3" fill-opacity="0.15"/>
<path d="M575.648 869L573.008 835.496H576.608L578 854.696L578.72 864.824H579.104L583.52 844.232H588.032L592.448 864.824H592.832L593.552 854.696L594.944 835.496H598.448L595.808 869H590L585.92 848.984H585.536L581.456 869H575.648ZM614.941 869.576C613.149 869.576 611.533 869.272 610.093 868.664C608.685 868.056 607.469 867.192 606.445 866.072C605.453 864.92 604.685 863.56 604.141 861.992C603.597 860.392 603.325 858.616 603.325 856.664C603.325 854.68 603.597 852.888 604.141 851.288C604.717 849.688 605.501 848.328 606.493 847.208C607.485 846.056 608.669 845.176 610.045 844.568C611.453 843.96 613.005 843.656 614.701 843.656C616.365 843.656 617.869 843.96 619.213 844.568C620.589 845.176 621.757 846.024 622.717 847.112C623.677 848.168 624.413 849.432 624.925 850.904C625.437 852.376 625.693 853.992 625.693 855.752V857.576H607.357V858.728C607.357 859.816 607.533 860.824 607.885 861.752C608.237 862.68 608.733 863.48 609.373 864.152C610.045 864.824 610.845 865.352 611.773 865.736C612.733 866.088 613.789 866.264 614.941 866.264C616.605 866.264 618.045 865.88 619.261 865.112C620.477 864.344 621.405 863.288 622.045 861.944L624.877 863.864C624.141 865.528 622.909 866.904 621.181 867.992C619.485 869.048 617.405 869.576 614.941 869.576ZM614.701 846.824C613.645 846.824 612.669 847.016 611.773 847.4C610.877 847.784 610.093 848.312 609.421 848.984C608.781 849.656 608.269 850.456 607.885 851.384C607.533 852.28 607.357 853.272 607.357 854.36V854.696H621.565V854.168C621.565 853.08 621.389 852.088 621.037 851.192C620.717 850.296 620.253 849.528 619.645 848.888C619.069 848.216 618.349 847.704 617.485 847.352C616.653 847 615.725 846.824 614.701 846.824ZM633.451 833.48H637.291V848.264H637.483C639.083 845.192 641.627 843.656 645.115 843.656C648.155 843.656 650.523 844.792 652.219 847.064C653.947 849.336 654.811 852.52 654.811 856.616C654.811 860.712 653.947 863.896 652.219 866.168C650.523 868.44 648.155 869.576 645.115 869.576C641.627 869.576 639.083 868.04 637.483 864.968H637.291V869H633.451V833.48ZM643.627 866.168C645.867 866.168 647.595 865.496 648.811 864.152C650.059 862.776 650.683 860.968 650.683 858.728V854.504C650.683 852.264 650.059 850.472 648.811 849.128C647.595 847.752 645.867 847.064 643.627 847.064C642.763 847.064 641.947 847.176 641.179 847.4C640.411 847.624 639.739 847.96 639.163 848.408C638.587 848.824 638.123 849.352 637.771 849.992C637.451 850.6 637.291 851.32 637.291 852.152V861.08C637.291 861.912 637.451 862.648 637.771 863.288C638.123 863.896 638.587 864.424 639.163 864.872C639.739 865.288 640.411 865.608 641.179 865.832C641.947 866.056 642.763 866.168 643.627 866.168Z" fill="black"/>
<path d="M43.5896 223.632H43.2536V252H39.6056V218.496H45.3176L56.7416 246.576H57.0776V218.496H60.7256V252H55.0136L43.5896 223.632ZM79.3789 252.576C77.5869 252.576 75.9709 252.272 74.5309 251.664C73.1229 251.056 71.9069 250.192 70.8829 249.072C69.8909 247.92 69.1229 246.56 68.5789 244.992C68.0349 243.392 67.7629 241.616 67.7629 239.664C67.7629 237.68 68.0349 235.888 68.5789 234.288C69.1549 232.688 69.9389 231.328 70.9309 230.208C71.9229 229.056 73.1069 228.176 74.4829 227.568C75.8909 226.96 77.4429 226.656 79.1389 226.656C80.8029 226.656 82.3069 226.96 83.6509 227.568C85.0269 228.176 86.1949 229.024 87.1549 230.112C88.1149 231.168 88.8509 232.432 89.3629 233.904C89.8749 235.376 90.1309 236.992 90.1309 238.752V240.576H71.7949V241.728C71.7949 242.816 71.9709 243.824 72.3229 244.752C72.6749 245.68 73.1709 246.48 73.8109 247.152C74.4829 247.824 75.2829 248.352 76.2109 248.736C77.1709 249.088 78.2269 249.264 79.3789 249.264C81.0429 249.264 82.4829 248.88 83.6989 248.112C84.9149 247.344 85.8429 246.288 86.4829 244.944L89.3149 246.864C88.5789 248.528 87.3469 249.904 85.6189 250.992C83.9229 252.048 81.8429 252.576 79.3789 252.576ZM79.1389 229.824C78.0829 229.824 77.1069 230.016 76.2109 230.4C75.3149 230.784 74.5309 231.312 73.8589 231.984C73.2189 232.656 72.7069 233.456 72.3229 234.384C71.9709 235.28 71.7949 236.272 71.7949 237.36V237.696H86.0029V237.168C86.0029 236.08 85.8269 235.088 85.4749 234.192C85.1549 233.296 84.6909 232.528 84.0829 231.888C83.5069 231.216 82.7869 230.704 81.9229 230.352C81.0909 230 80.1629 229.824 79.1389 229.824ZM108.928 252C107.04 252 105.648 251.472 104.752 250.416C103.888 249.36 103.456 248 103.456 246.336V230.496H95.2001V227.232H101.344C102.176 227.232 102.752 227.072 103.072 226.752C103.424 226.4 103.6 225.808 103.6 224.976V218.496H107.296V227.232H118.576V230.496H107.296V248.736H118.576V252H108.928ZM125.949 248.736H134.589V219.744H125.949V216.48H138.429V248.736H147.069V252H125.949V248.736ZM166.827 221.76C165.707 221.76 164.923 221.536 164.475 221.088C164.027 220.608 163.803 220.016 163.803 219.312V218.544C163.803 217.84 164.027 217.264 164.475 216.816C164.923 216.336 165.707 216.096 166.827 216.096C167.947 216.096 168.731 216.336 169.179 216.816C169.627 217.264 169.851 217.84 169.851 218.544V219.312C169.851 220.016 169.627 220.608 169.179 221.088C168.731 221.536 167.947 221.76 166.827 221.76ZM155.979 248.736H164.907V230.496H155.979V227.232H168.747V248.736H177.099V252H155.979V248.736ZM183.656 248.736H192.008V230.496H183.176V227.232H192.008V222.144C192.008 220.48 192.44 219.12 193.304 218.064C194.2 217.008 195.592 216.48 197.48 216.48H205.784V219.744H195.848V227.232H205.784V230.496H195.848V248.736H204.68V252H183.656V248.736ZM230.869 227.232H234.709L222.421 257.424C222.133 258.128 221.813 258.736 221.461 259.248C221.109 259.792 220.693 260.224 220.213 260.544C219.733 260.896 219.157 261.152 218.485 261.312C217.813 261.504 217.013 261.6 216.085 261.6H212.437V258.336H218.197L220.981 251.52L210.997 227.232H214.933L219.109 237.6L222.805 247.008H222.997L226.693 237.6L230.869 227.232Z" fill="black"/>
<path d="M547.468 545.536H547.228C546.94 546.176 546.604 546.8 546.22 547.408C545.836 548.016 545.34 548.56 544.732 549.04C544.156 549.488 543.452 549.856 542.62 550.144C541.788 550.432 540.796 550.576 539.644 550.576C535.996 550.576 533.276 549.104 531.484 546.16C529.724 543.216 528.844 538.992 528.844 533.488C528.844 527.728 529.82 523.36 531.772 520.384C533.724 517.408 536.732 515.92 540.796 515.92C542.364 515.92 543.724 516.128 544.876 516.544C546.028 516.96 547.004 517.52 547.804 518.224C548.636 518.928 549.324 519.728 549.868 520.624C550.412 521.488 550.86 522.368 551.212 523.264L547.756 524.848C547.468 524.112 547.132 523.424 546.748 522.784C546.396 522.112 545.948 521.536 545.404 521.056C544.892 520.544 544.268 520.144 543.532 519.856C542.796 519.568 541.932 519.424 540.94 519.424C538.252 519.424 536.268 520.432 534.988 522.448C533.74 524.464 533.116 527.152 533.116 530.512V535.696C533.116 537.392 533.244 538.944 533.5 540.352C533.756 541.728 534.172 542.928 534.748 543.952C535.356 544.976 536.124 545.776 537.052 546.352C538.012 546.896 539.18 547.168 540.556 547.168C542.732 547.168 544.428 546.512 545.644 545.2C546.86 543.888 547.468 542.192 547.468 540.112V536.656H540.412V533.44H551.212V550H547.468V545.536ZM578.698 550C577.194 550 576.122 549.616 575.482 548.848C574.842 548.08 574.442 547.12 574.282 545.968H574.042C573.498 547.408 572.618 548.544 571.402 549.376C570.218 550.176 568.618 550.576 566.602 550.576C564.01 550.576 561.946 549.904 560.41 548.56C558.874 547.216 558.105 545.376 558.105 543.04C558.105 540.736 558.938 538.96 560.602 537.712C562.298 536.464 565.018 535.84 568.762 535.84H574.042V533.392C574.042 531.568 573.53 530.208 572.506 529.312C571.482 528.384 570.026 527.92 568.138 527.92C566.474 527.92 565.114 528.256 564.058 528.928C563.002 529.568 562.154 530.448 561.514 531.568L558.922 529.648C559.242 529.008 559.674 528.384 560.218 527.776C560.762 527.168 561.434 526.64 562.234 526.192C563.034 525.712 563.946 525.344 564.97 525.088C565.994 524.8 567.13 524.656 568.378 524.656C571.29 524.656 573.594 525.392 575.29 526.864C577.018 528.336 577.882 530.384 577.882 533.008V546.64H581.338V550H578.698ZM567.273 547.36C568.266 547.36 569.162 547.248 569.962 547.024C570.794 546.768 571.514 546.448 572.122 546.064C572.73 545.648 573.194 545.168 573.514 544.624C573.866 544.048 574.042 543.44 574.042 542.8V538.72H568.762C566.458 538.72 564.778 539.04 563.722 539.68C562.666 540.32 562.138 541.248 562.138 542.464V543.472C562.138 544.752 562.586 545.728 563.482 546.4C564.41 547.04 565.674 547.36 567.273 547.36ZM599.319 550C597.431 550 596.039 549.472 595.143 548.416C594.279 547.36 593.847 546 593.847 544.336V528.496H585.591V525.232H591.735C592.567 525.232 593.143 525.072 593.463 524.752C593.815 524.4 593.991 523.808 593.991 522.976V516.496H597.687V525.232H608.967V528.496H597.687V546.736H608.967V550H599.319ZM627.188 550.576C624.596 550.576 622.356 550.144 620.468 549.28C618.612 548.384 617.028 547.2 615.716 545.728L618.308 543.472C619.492 544.72 620.788 545.68 622.196 546.352C623.604 547.024 625.3 547.36 627.284 547.36C629.204 547.36 630.772 547.024 631.988 546.352C633.236 545.648 633.86 544.56 633.86 543.088C633.86 542.448 633.732 541.92 633.476 541.504C633.252 541.056 632.932 540.704 632.516 540.448C632.1 540.192 631.636 540 631.124 539.872C630.612 539.712 630.068 539.584 629.492 539.488L625.604 538.912C624.74 538.784 623.796 538.608 622.772 538.384C621.78 538.16 620.868 537.808 620.036 537.328C619.204 536.816 618.5 536.144 617.924 535.312C617.38 534.48 617.108 533.392 617.108 532.048C617.108 530.8 617.348 529.728 617.828 528.832C618.34 527.904 619.044 527.136 619.94 526.528C620.836 525.888 621.892 525.424 623.108 525.136C624.324 524.816 625.652 524.656 627.092 524.656C629.332 524.656 631.268 525.008 632.9 525.712C634.564 526.416 635.988 527.392 637.172 528.64L634.676 530.992C634.388 530.64 634.02 530.288 633.572 529.936C633.156 529.552 632.628 529.216 631.988 528.928C631.38 528.608 630.66 528.352 629.828 528.16C628.996 527.968 628.036 527.872 626.948 527.872C624.996 527.872 623.492 528.208 622.436 528.88C621.412 529.552 620.9 530.528 620.9 531.808C620.9 532.448 621.012 532.992 621.236 533.44C621.492 533.856 621.828 534.192 622.244 534.448C622.66 534.704 623.124 534.912 623.636 535.072C624.18 535.2 624.724 535.312 625.268 535.408L629.156 535.984C630.052 536.112 630.996 536.288 631.988 536.512C632.98 536.736 633.892 537.104 634.724 537.616C635.556 538.096 636.244 538.752 636.788 539.584C637.364 540.416 637.652 541.504 637.652 542.848C637.652 545.312 636.692 547.216 634.772 548.56C632.884 549.904 630.356 550.576 627.188 550.576ZM645.841 514.48H649.681V529.264H649.873C651.473 526.192 654.017 524.656 657.505 524.656C660.545 524.656 662.913 525.792 664.609 528.064C666.337 530.336 667.201 533.52 667.201 537.616C667.201 541.712 666.337 544.896 664.609 547.168C662.913 549.44 660.545 550.576 657.505 550.576C654.017 550.576 651.473 549.04 649.873 545.968H649.681V550H645.841V514.48ZM656.017 547.168C658.257 547.168 659.985 546.496 661.201 545.152C662.449 543.776 663.073 541.968 663.073 539.728V535.504C663.073 533.264 662.449 531.472 661.201 530.128C659.985 528.752 658.257 528.064 656.017 528.064C655.153 528.064 654.337 528.176 653.569 528.4C652.801 528.624 652.129 528.96 651.553 529.408C650.977 529.824 650.513 530.352 650.161 530.992C649.841 531.6 649.681 532.32 649.681 533.152V542.08C649.681 542.912 649.841 543.648 650.161 544.288C650.513 544.896 650.977 545.424 651.553 545.872C652.129 546.288 652.801 546.608 653.569 546.832C654.337 547.056 655.153 547.168 656.017 547.168ZM692.479 525.232H696.319L684.031 555.424C683.743 556.128 683.423 556.736 683.071 557.248C682.719 557.792 682.303 558.224 681.823 558.544C681.343 558.896 680.767 559.152 680.095 559.312C679.423 559.504 678.623 559.6 677.695 559.6H674.047V556.336H679.807L682.591 549.52L672.607 525.232H676.543L680.719 535.6L684.415 545.008H684.607L688.303 535.6L692.479 525.232Z" fill="black"/>
<path d="M89.8978 550.576C86.8898 550.576 84.4258 550.032 82.5058 548.944C80.5858 547.824 79.0018 546.4 77.7538 544.672L80.6818 542.272C81.9938 543.904 83.3698 545.12 84.8098 545.92C86.2818 546.72 88.0258 547.12 90.0418 547.12C92.4738 547.12 94.3298 546.56 95.6098 545.44C96.8898 544.32 97.5298 542.752 97.5298 540.736C97.5298 539.104 97.0658 537.84 96.1378 536.944C95.2098 536.016 93.5938 535.36 91.2898 534.976L87.5458 534.352C85.9138 534.064 84.5378 533.632 83.4178 533.056C82.3298 532.48 81.4498 531.792 80.7778 530.992C80.1058 530.16 79.6258 529.264 79.3378 528.304C79.0498 527.312 78.9058 526.288 78.9058 525.232C78.9058 522.16 79.9138 519.84 81.9297 518.272C83.9458 516.704 86.6658 515.92 90.0898 515.92C92.7778 515.92 95.0338 516.368 96.8578 517.264C98.7138 518.16 100.202 519.424 101.322 521.056L98.4898 523.504C97.5618 522.288 96.4418 521.296 95.1298 520.528C93.8178 519.76 92.1218 519.376 90.0418 519.376C87.7698 519.376 86.0258 519.856 84.8098 520.816C83.5938 521.776 82.9858 523.216 82.9858 525.136C82.9858 526.64 83.4338 527.872 84.3298 528.832C85.2578 529.76 86.9058 530.432 89.2738 530.848L92.8738 531.472C94.5058 531.76 95.8818 532.192 97.0018 532.768C98.1218 533.344 99.0178 534.032 99.6898 534.832C100.394 535.632 100.89 536.528 101.178 537.52C101.466 538.512 101.61 539.552 101.61 540.64C101.61 543.744 100.586 546.176 98.5378 547.936C96.5218 549.696 93.6418 550.576 89.8978 550.576ZM119.207 550.576C117.415 550.576 115.799 550.272 114.359 549.664C112.951 549.056 111.735 548.192 110.711 547.072C109.719 545.92 108.951 544.56 108.407 542.992C107.863 541.392 107.591 539.616 107.591 537.664C107.591 535.68 107.863 533.888 108.407 532.288C108.983 530.688 109.767 529.328 110.759 528.208C111.751 527.056 112.935 526.176 114.311 525.568C115.719 524.96 117.271 524.656 118.967 524.656C120.631 524.656 122.135 524.96 123.479 525.568C124.855 526.176 126.023 527.024 126.983 528.112C127.943 529.168 128.679 530.432 129.191 531.904C129.703 533.376 129.959 534.992 129.959 536.752V538.576H111.623V539.728C111.623 540.816 111.799 541.824 112.151 542.752C112.503 543.68 112.999 544.48 113.639 545.152C114.311 545.824 115.111 546.352 116.039 546.736C116.999 547.088 118.055 547.264 119.207 547.264C120.871 547.264 122.311 546.88 123.527 546.112C124.743 545.344 125.671 544.288 126.311 542.944L129.143 544.864C128.407 546.528 127.175 547.904 125.447 548.992C123.751 550.048 121.671 550.576 119.207 550.576ZM118.967 527.824C117.911 527.824 116.935 528.016 116.039 528.4C115.143 528.784 114.359 529.312 113.687 529.984C113.047 530.656 112.535 531.456 112.151 532.384C111.799 533.28 111.623 534.272 111.623 535.36V535.696H125.831V535.168C125.831 534.08 125.655 533.088 125.303 532.192C124.983 531.296 124.519 530.528 123.911 529.888C123.335 529.216 122.615 528.704 121.751 528.352C120.919 528 119.991 527.824 118.967 527.824ZM136.852 546.736H144.1V528.496H136.852V525.232H147.94V531.472H148.18C148.692 529.52 149.652 528 151.06 526.912C152.5 525.792 154.324 525.232 156.532 525.232H159.988V529.072H155.332C153.124 529.072 151.332 529.712 149.956 530.992C148.612 532.272 147.94 533.952 147.94 536.032V546.736H157.54V550H136.852V546.736ZM173.89 550L165.01 525.232H168.898L172.45 535.6L176.29 546.784H176.482L180.322 535.6L183.874 525.232H187.666L178.786 550H173.89ZM205.551 550.576C203.759 550.576 202.143 550.272 200.703 549.664C199.295 549.056 198.079 548.192 197.055 547.072C196.063 545.92 195.295 544.56 194.751 542.992C194.207 541.392 193.935 539.616 193.935 537.664C193.935 535.68 194.207 533.888 194.751 532.288C195.327 530.688 196.111 529.328 197.103 528.208C198.095 527.056 199.279 526.176 200.655 525.568C202.063 524.96 203.615 524.656 205.311 524.656C206.975 524.656 208.479 524.96 209.823 525.568C211.199 526.176 212.367 527.024 213.327 528.112C214.287 529.168 215.023 530.432 215.535 531.904C216.047 533.376 216.303 534.992 216.303 536.752V538.576H197.967V539.728C197.967 540.816 198.143 541.824 198.495 542.752C198.847 543.68 199.343 544.48 199.983 545.152C200.655 545.824 201.455 546.352 202.383 546.736C203.343 547.088 204.399 547.264 205.551 547.264C207.215 547.264 208.655 546.88 209.871 546.112C211.087 545.344 212.015 544.288 212.655 542.944L215.487 544.864C214.751 546.528 213.519 547.904 211.791 548.992C210.095 550.048 208.015 550.576 205.551 550.576ZM205.311 527.824C204.255 527.824 203.279 528.016 202.383 528.4C201.487 528.784 200.703 529.312 200.031 529.984C199.391 530.656 198.879 531.456 198.495 532.384C198.143 533.28 197.967 534.272 197.967 535.36V535.696H212.175V535.168C212.175 534.08 211.999 533.088 211.647 532.192C211.327 531.296 210.863 530.528 210.255 529.888C209.679 529.216 208.959 528.704 208.095 528.352C207.263 528 206.335 527.824 205.311 527.824ZM223.196 546.736H230.444V528.496H223.196V525.232H234.284V531.472H234.524C235.036 529.52 235.996 528 237.404 526.912C238.844 525.792 240.668 525.232 242.876 525.232H246.332V529.072H241.676C239.468 529.072 237.676 529.712 236.3 530.992C234.956 532.272 234.284 533.952 234.284 536.032V546.736H243.884V550H223.196V546.736ZM252.121 546.736H260.761V517.744H252.121V514.48H264.601V546.736H273.241V550H252.121V546.736ZM291.895 550.576C290.103 550.576 288.487 550.272 287.047 549.664C285.639 549.056 284.423 548.192 283.398 547.072C282.407 545.92 281.639 544.56 281.095 542.992C280.551 541.392 280.279 539.616 280.279 537.664C280.279 535.68 280.551 533.888 281.095 532.288C281.671 530.688 282.455 529.328 283.447 528.208C284.439 527.056 285.623 526.176 286.999 525.568C288.407 524.96 289.959 524.656 291.655 524.656C293.319 524.656 294.823 524.96 296.167 525.568C297.543 526.176 298.711 527.024 299.671 528.112C300.631 529.168 301.367 530.432 301.879 531.904C302.391 533.376 302.647 534.992 302.647 536.752V538.576H284.311V539.728C284.311 540.816 284.487 541.824 284.839 542.752C285.191 543.68 285.687 544.48 286.327 545.152C286.999 545.824 287.799 546.352 288.727 546.736C289.687 547.088 290.743 547.264 291.895 547.264C293.559 547.264 294.999 546.88 296.215 546.112C297.431 545.344 298.359 544.288 298.999 542.944L301.831 544.864C301.095 546.528 299.863 547.904 298.135 548.992C296.439 550.048 294.359 550.576 291.895 550.576ZM291.655 527.824C290.599 527.824 289.623 528.016 288.727 528.4C287.831 528.784 287.047 529.312 286.375 529.984C285.735 530.656 285.223 531.456 284.839 532.384C284.487 533.28 284.311 534.272 284.311 535.36V535.696H298.519V535.168C298.519 534.08 298.343 533.088 297.991 532.192C297.671 531.296 297.207 530.528 296.599 529.888C296.023 529.216 295.303 528.704 294.439 528.352C293.607 528 292.679 527.824 291.655 527.824ZM320.532 550.576C317.94 550.576 315.7 550.144 313.812 549.28C311.956 548.384 310.372 547.2 309.06 545.728L311.652 543.472C312.836 544.72 314.132 545.68 315.54 546.352C316.948 547.024 318.644 547.36 320.628 547.36C322.548 547.36 324.116 547.024 325.332 546.352C326.58 545.648 327.204 544.56 327.204 543.088C327.204 542.448 327.076 541.92 326.82 541.504C326.596 541.056 326.276 540.704 325.86 540.448C325.444 540.192 324.98 540 324.468 539.872C323.956 539.712 323.412 539.584 322.836 539.488L318.948 538.912C318.084 538.784 317.14 538.608 316.116 538.384C315.124 538.16 314.212 537.808 313.38 537.328C312.548 536.816 311.844 536.144 311.268 535.312C310.724 534.48 310.452 533.392 310.452 532.048C310.452 530.8 310.692 529.728 311.172 528.832C311.684 527.904 312.388 527.136 313.284 526.528C314.18 525.888 315.236 525.424 316.452 525.136C317.668 524.816 318.996 524.656 320.436 524.656C322.676 524.656 324.612 525.008 326.244 525.712C327.908 526.416 329.332 527.392 330.516 528.64L328.02 530.992C327.732 530.64 327.364 530.288 326.916 529.936C326.5 529.552 325.972 529.216 325.332 528.928C324.724 528.608 324.004 528.352 323.172 528.16C322.34 527.968 321.38 527.872 320.292 527.872C318.34 527.872 316.836 528.208 315.78 528.88C314.756 529.552 314.244 530.528 314.244 531.808C314.244 532.448 314.356 532.992 314.58 533.44C314.836 533.856 315.172 534.192 315.588 534.448C316.004 534.704 316.468 534.912 316.98 535.072C317.524 535.2 318.068 535.312 318.612 535.408L322.5 535.984C323.396 536.112 324.34 536.288 325.332 536.512C326.324 536.736 327.236 537.104 328.068 537.616C328.9 538.096 329.588 538.752 330.132 539.584C330.708 540.416 330.996 541.504 330.996 542.848C330.996 545.312 330.036 547.216 328.116 548.56C326.228 549.904 323.7 550.576 320.532 550.576ZM349.313 550.576C346.721 550.576 344.481 550.144 342.593 549.28C340.737 548.384 339.153 547.2 337.841 545.728L340.433 543.472C341.617 544.72 342.913 545.68 344.321 546.352C345.729 547.024 347.425 547.36 349.409 547.36C351.329 547.36 352.897 547.024 354.113 546.352C355.361 545.648 355.985 544.56 355.985 543.088C355.985 542.448 355.857 541.92 355.601 541.504C355.377 541.056 355.057 540.704 354.641 540.448C354.225 540.192 353.761 540 353.249 539.872C352.737 539.712 352.193 539.584 351.617 539.488L347.729 538.912C346.865 538.784 345.921 538.608 344.897 538.384C343.905 538.16 342.993 537.808 342.161 537.328C341.329 536.816 340.625 536.144 340.049 535.312C339.505 534.48 339.233 533.392 339.233 532.048C339.233 530.8 339.473 529.728 339.953 528.832C340.465 527.904 341.169 527.136 342.065 526.528C342.961 525.888 344.017 525.424 345.233 525.136C346.449 524.816 347.777 524.656 349.217 524.656C351.457 524.656 353.393 525.008 355.025 525.712C356.689 526.416 358.113 527.392 359.297 528.64L356.801 530.992C356.513 530.64 356.145 530.288 355.697 529.936C355.281 529.552 354.753 529.216 354.113 528.928C353.505 528.608 352.785 528.352 351.953 528.16C351.121 527.968 350.161 527.872 349.073 527.872C347.121 527.872 345.617 528.208 344.561 528.88C343.537 529.552 343.025 530.528 343.025 531.808C343.025 532.448 343.137 532.992 343.361 533.44C343.617 533.856 343.953 534.192 344.369 534.448C344.785 534.704 345.249 534.912 345.761 535.072C346.305 535.2 346.849 535.312 347.393 535.408L351.281 535.984C352.177 536.112 353.121 536.288 354.113 536.512C355.105 536.736 356.017 537.104 356.849 537.616C357.681 538.096 358.369 538.752 358.913 539.584C359.489 540.416 359.777 541.504 359.777 542.848C359.777 545.312 358.817 547.216 356.897 548.56C355.009 549.904 352.481 550.576 349.313 550.576Z" fill="black"/>
<path d="M550.899 408H546.867V374.496H559.059C562.163 374.496 564.531 375.344 566.163 377.04C567.795 378.736 568.611 381.104 568.611 384.144C568.611 386.864 567.907 389.04 566.499 390.672C565.091 392.304 563.043 393.248 560.355 393.504L568.899 408H564.387L556.227 393.696H550.899V408ZM558.963 390.288C560.659 390.288 561.971 389.872 562.899 389.04C563.859 388.176 564.339 386.96 564.339 385.392V382.896C564.339 381.328 563.859 380.128 562.899 379.296C561.971 378.432 560.659 378 558.963 378H550.899V390.288H558.963ZM586.16 408.576C584.368 408.576 582.752 408.272 581.312 407.664C579.904 407.056 578.688 406.192 577.664 405.072C576.672 403.92 575.904 402.56 575.36 400.992C574.816 399.392 574.544 397.616 574.544 395.664C574.544 393.68 574.816 391.888 575.36 390.288C575.936 388.688 576.72 387.328 577.712 386.208C578.704 385.056 579.888 384.176 581.264 383.568C582.672 382.96 584.224 382.656 585.92 382.656C587.584 382.656 589.088 382.96 590.432 383.568C591.808 384.176 592.976 385.024 593.936 386.112C594.896 387.168 595.632 388.432 596.144 389.904C596.656 391.376 596.912 392.992 596.912 394.752V396.576H578.576V397.728C578.576 398.816 578.752 399.824 579.104 400.752C579.456 401.68 579.952 402.48 580.592 403.152C581.264 403.824 582.064 404.352 582.992 404.736C583.952 405.088 585.008 405.264 586.16 405.264C587.824 405.264 589.264 404.88 590.48 404.112C591.696 403.344 592.624 402.288 593.264 400.944L596.096 402.864C595.36 404.528 594.128 405.904 592.4 406.992C590.704 408.048 588.624 408.576 586.16 408.576ZM585.92 385.824C584.864 385.824 583.888 386.016 582.992 386.4C582.096 386.784 581.312 387.312 580.64 387.984C580 388.656 579.488 389.456 579.104 390.384C578.752 391.28 578.576 392.272 578.576 393.36V393.696H592.784V393.168C592.784 392.08 592.608 391.088 592.256 390.192C591.936 389.296 591.472 388.528 590.864 387.888C590.288 387.216 589.568 386.704 588.704 386.352C587.872 386 586.944 385.824 585.92 385.824ZM623.869 408C622.365 408 621.293 407.616 620.653 406.848C620.013 406.08 619.613 405.12 619.453 403.968H619.213C618.669 405.408 617.789 406.544 616.573 407.376C615.389 408.176 613.789 408.576 611.773 408.576C609.181 408.576 607.117 407.904 605.581 406.56C604.045 405.216 603.277 403.376 603.277 401.04C603.277 398.736 604.109 396.96 605.773 395.712C607.469 394.464 610.189 393.84 613.933 393.84H619.213V391.392C619.213 389.568 618.701 388.208 617.677 387.312C616.653 386.384 615.197 385.92 613.309 385.92C611.645 385.92 610.285 386.256 609.229 386.928C608.173 387.568 607.325 388.448 606.685 389.568L604.093 387.648C604.413 387.008 604.845 386.384 605.389 385.776C605.933 385.168 606.605 384.64 607.405 384.192C608.205 383.712 609.117 383.344 610.141 383.088C611.165 382.8 612.301 382.656 613.549 382.656C616.461 382.656 618.765 383.392 620.461 384.864C622.189 386.336 623.053 388.384 623.053 391.008V404.64H626.509V408H623.869ZM612.445 405.36C613.437 405.36 614.333 405.248 615.133 405.024C615.965 404.768 616.685 404.448 617.293 404.064C617.901 403.648 618.365 403.168 618.685 402.624C619.037 402.048 619.213 401.44 619.213 400.8V396.72H613.933C611.629 396.72 609.949 397.04 608.893 397.68C607.837 398.32 607.309 399.248 607.309 400.464V401.472C607.309 402.752 607.757 403.728 608.653 404.4C609.581 405.04 610.845 405.36 612.445 405.36ZM644.155 408.576C642.363 408.576 640.763 408.272 639.355 407.664C637.979 407.024 636.811 406.144 635.851 405.024C634.891 403.904 634.155 402.544 633.643 400.944C633.163 399.344 632.923 397.568 632.923 395.616C632.923 393.664 633.179 391.888 633.691 390.288C634.203 388.688 634.939 387.328 635.899 386.208C636.859 385.056 638.027 384.176 639.403 383.568C640.779 382.96 642.347 382.656 644.107 382.656C646.507 382.656 648.459 383.184 649.963 384.24C651.467 385.296 652.571 386.672 653.275 388.368L650.203 390C649.755 388.72 649.003 387.728 647.947 387.024C646.923 386.32 645.643 385.968 644.107 385.968C642.987 385.968 641.979 386.16 641.083 386.544C640.219 386.896 639.483 387.408 638.875 388.08C638.267 388.752 637.803 389.552 637.483 390.48C637.195 391.408 637.051 392.416 637.051 393.504V397.728C637.051 398.816 637.195 399.824 637.483 400.752C637.803 401.68 638.267 402.48 638.875 403.152C639.483 403.824 640.235 404.352 641.131 404.736C642.027 405.088 643.051 405.264 644.203 405.264C645.867 405.264 647.243 404.88 648.331 404.112C649.419 403.344 650.283 402.288 650.923 400.944L653.659 402.816C652.923 404.48 651.771 405.856 650.203 406.944C648.667 408.032 646.651 408.576 644.155 408.576ZM673.272 408C671.384 408 669.992 407.472 669.096 406.416C668.232 405.36 667.8 404 667.8 402.336V386.496H659.544V383.232H665.688C666.52 383.232 667.096 383.072 667.416 382.752C667.768 382.4 667.944 381.808 667.944 380.976V374.496H671.64V383.232H682.92V386.496H671.64V404.736H682.92V408H673.272Z" fill="black"/>
<rect x="473" y="2" width="283" height="141" fill="#E35353" fill-opacity="0.4"/>
<path d="M539.46 89.576C536.452 89.576 533.988 89.032 532.068 87.944C530.148 86.824 528.564 85.4 527.316 83.672L530.244 81.272C531.556 82.904 532.932 84.12 534.372 84.92C535.844 85.72 537.588 86.12 539.604 86.12C542.036 86.12 543.892 85.56 545.172 84.44C546.452 83.32 547.092 81.752 547.092 79.736C547.092 78.104 546.628 76.84 545.7 75.944C544.772 75.016 543.156 74.36 540.852 73.976L537.108 73.352C535.476 73.064 534.1 72.632 532.98 72.056C531.892 71.48 531.012 70.792 530.34 69.992C529.668 69.16 529.188 68.264 528.9 67.304C528.612 66.312 528.468 65.288 528.468 64.232C528.468 61.16 529.476 58.84 531.492 57.272C533.508 55.704 536.228 54.92 539.652 54.92C542.34 54.92 544.596 55.368 546.42 56.264C548.276 57.16 549.764 58.424 550.884 60.056L548.052 62.504C547.124 61.288 546.004 60.296 544.692 59.528C543.38 58.76 541.684 58.376 539.604 58.376C537.332 58.376 535.588 58.856 534.372 59.816C533.156 60.776 532.548 62.216 532.548 64.136C532.548 65.64 532.996 66.872 533.892 67.832C534.82 68.76 536.468 69.432 538.836 69.848L542.436 70.472C544.068 70.76 545.444 71.192 546.564 71.768C547.684 72.344 548.58 73.032 549.252 73.832C549.956 74.632 550.452 75.528 550.74 76.52C551.028 77.512 551.172 78.552 551.172 79.64C551.172 82.744 550.148 85.176 548.1 86.936C546.084 88.696 543.204 89.576 539.46 89.576ZM577.698 89C576.194 89 575.122 88.616 574.482 87.848C573.842 87.08 573.442 86.12 573.282 84.968H573.042C572.498 86.408 571.618 87.544 570.402 88.376C569.218 89.176 567.618 89.576 565.602 89.576C563.01 89.576 560.946 88.904 559.41 87.56C557.874 86.216 557.105 84.376 557.105 82.04C557.105 79.736 557.938 77.96 559.602 76.712C561.298 75.464 564.018 74.84 567.762 74.84H573.042V72.392C573.042 70.568 572.53 69.208 571.506 68.312C570.482 67.384 569.026 66.92 567.138 66.92C565.474 66.92 564.114 67.256 563.058 67.928C562.002 68.568 561.154 69.448 560.514 70.568L557.922 68.648C558.242 68.008 558.674 67.384 559.218 66.776C559.762 66.168 560.434 65.64 561.234 65.192C562.034 64.712 562.946 64.344 563.97 64.088C564.994 63.8 566.13 63.656 567.378 63.656C570.29 63.656 572.594 64.392 574.29 65.864C576.018 67.336 576.882 69.384 576.882 72.008V85.64H580.338V89H577.698ZM566.273 86.36C567.266 86.36 568.162 86.248 568.962 86.024C569.794 85.768 570.514 85.448 571.122 85.064C571.73 84.648 572.194 84.168 572.514 83.624C572.866 83.048 573.042 82.44 573.042 81.8V77.72H567.762C565.458 77.72 563.778 78.04 562.722 78.68C561.666 79.32 561.138 80.248 561.138 81.464V82.472C561.138 83.752 561.586 84.728 562.482 85.4C563.41 86.04 564.674 86.36 566.273 86.36ZM587.423 89V64.232H591.263V68.264H591.455C591.711 67.656 592.031 67.08 592.415 66.536C592.799 65.96 593.263 65.464 593.807 65.048C594.383 64.632 595.055 64.296 595.823 64.04C596.591 63.784 597.487 63.656 598.511 63.656C601.103 63.656 603.183 64.488 604.751 66.152C606.319 67.784 607.103 70.104 607.103 73.112V89H603.263V73.784C603.263 71.512 602.767 69.832 601.775 68.744C600.783 67.624 599.327 67.064 597.407 67.064C596.639 67.064 595.887 67.16 595.151 67.352C594.415 67.544 593.759 67.832 593.183 68.216C592.607 68.6 592.143 69.096 591.791 69.704C591.439 70.312 591.263 71.016 591.263 71.816V89H587.423ZM627.436 58.76C626.316 58.76 625.532 58.536 625.084 58.088C624.636 57.608 624.412 57.016 624.412 56.312V55.544C624.412 54.84 624.636 54.264 625.084 53.816C625.532 53.336 626.316 53.096 627.436 53.096C628.556 53.096 629.34 53.336 629.788 53.816C630.236 54.264 630.46 54.84 630.46 55.544V56.312C630.46 57.016 630.236 57.608 629.788 58.088C629.34 58.536 628.556 58.76 627.436 58.76ZM616.588 85.736H625.516V67.496H616.588V64.232H629.356V85.736H637.708V89H616.588V85.736ZM655.881 89C653.993 89 652.601 88.472 651.705 87.416C650.841 86.36 650.409 85 650.409 83.336V67.496H642.153V64.232H648.297C649.129 64.232 649.705 64.072 650.025 63.752C650.377 63.4 650.553 62.808 650.553 61.976V55.496H654.249V64.232H665.529V67.496H654.249V85.736H665.529V89H655.881ZM691.479 64.232H695.319L683.031 94.424C682.743 95.128 682.423 95.736 682.071 96.248C681.719 96.792 681.303 97.224 680.823 97.544C680.343 97.896 679.767 98.152 679.095 98.312C678.423 98.504 677.623 98.6 676.695 98.6H673.047V95.336H678.807L681.591 88.52L671.607 64.232H675.543L679.719 74.6L683.415 84.008H683.607L687.303 74.6L691.479 64.232Z" fill="black"/>
<rect x="1266" width="283" height="141" fill="black" fill-opacity="0.6"/>
<path d="M1339.47 82.536H1339.23C1338.94 83.176 1338.6 83.8 1338.22 84.408C1337.84 85.016 1337.34 85.56 1336.73 86.04C1336.16 86.488 1335.45 86.856 1334.62 87.144C1333.79 87.432 1332.8 87.576 1331.64 87.576C1328 87.576 1325.28 86.104 1323.48 83.16C1321.72 80.216 1320.84 75.992 1320.84 70.488C1320.84 64.728 1321.82 60.36 1323.77 57.384C1325.72 54.408 1328.73 52.92 1332.8 52.92C1334.36 52.92 1335.72 53.128 1336.88 53.544C1338.03 53.96 1339 54.52 1339.8 55.224C1340.64 55.928 1341.32 56.728 1341.87 57.624C1342.41 58.488 1342.86 59.368 1343.21 60.264L1339.76 61.848C1339.47 61.112 1339.13 60.424 1338.75 59.784C1338.4 59.112 1337.95 58.536 1337.4 58.056C1336.89 57.544 1336.27 57.144 1335.53 56.856C1334.8 56.568 1333.93 56.424 1332.94 56.424C1330.25 56.424 1328.27 57.432 1326.99 59.448C1325.74 61.464 1325.12 64.152 1325.12 67.512V72.696C1325.12 74.392 1325.24 75.944 1325.5 77.352C1325.76 78.728 1326.17 79.928 1326.75 80.952C1327.36 81.976 1328.12 82.776 1329.05 83.352C1330.01 83.896 1331.18 84.168 1332.56 84.168C1334.73 84.168 1336.43 83.512 1337.64 82.2C1338.86 80.888 1339.47 79.192 1339.47 77.112V73.656H1332.41V70.44H1343.21V87H1339.47V82.536ZM1362.87 56.76C1361.75 56.76 1360.97 56.536 1360.52 56.088C1360.07 55.608 1359.85 55.016 1359.85 54.312V53.544C1359.85 52.84 1360.07 52.264 1360.52 51.816C1360.97 51.336 1361.75 51.096 1362.87 51.096C1363.99 51.096 1364.78 51.336 1365.23 51.816C1365.67 52.264 1365.9 52.84 1365.9 53.544V54.312C1365.9 55.016 1365.67 55.608 1365.23 56.088C1364.78 56.536 1363.99 56.76 1362.87 56.76ZM1352.03 83.736H1360.95V65.496H1352.03V62.232H1364.79V83.736H1373.15V87H1352.03V83.736ZM1391.32 87C1389.43 87 1388.04 86.472 1387.14 85.416C1386.28 84.36 1385.85 83 1385.85 81.336V65.496H1377.59V62.232H1383.73C1384.57 62.232 1385.14 62.072 1385.46 61.752C1385.81 61.4 1385.99 60.808 1385.99 59.976V53.496H1389.69V62.232H1400.97V65.496H1389.69V83.736H1400.97V87H1391.32ZM1425.43 71.784H1412.37V87H1408.34V53.496H1412.37V68.28H1425.43V53.496H1429.46V87H1425.43V71.784ZM1453.54 82.968H1453.35C1453.09 83.576 1452.77 84.168 1452.39 84.744C1452 85.288 1451.52 85.768 1450.95 86.184C1450.4 86.6 1449.75 86.936 1448.98 87.192C1448.21 87.448 1447.31 87.576 1446.29 87.576C1443.7 87.576 1441.62 86.76 1440.05 85.128C1438.48 83.464 1437.7 81.128 1437.7 78.12V62.232H1441.54V77.448C1441.54 79.72 1442.03 81.416 1443.03 82.536C1444.02 83.624 1445.47 84.168 1447.39 84.168C1448.16 84.168 1448.91 84.072 1449.65 83.88C1450.39 83.688 1451.04 83.4 1451.62 83.016C1452.19 82.632 1452.66 82.152 1453.01 81.576C1453.36 80.968 1453.54 80.248 1453.54 79.416V62.232H1457.38V87H1453.54V82.968ZM1466.62 51.48H1470.46V66.264H1470.65C1472.25 63.192 1474.8 61.656 1478.29 61.656C1481.33 61.656 1483.69 62.792 1485.39 65.064C1487.12 67.336 1487.98 70.52 1487.98 74.616C1487.98 78.712 1487.12 81.896 1485.39 84.168C1483.69 86.44 1481.33 87.576 1478.29 87.576C1474.8 87.576 1472.25 86.04 1470.65 82.968H1470.46V87H1466.62V51.48ZM1476.8 84.168C1479.04 84.168 1480.77 83.496 1481.98 82.152C1483.23 80.776 1483.85 78.968 1483.85 76.728V72.504C1483.85 70.264 1483.23 68.472 1481.98 67.128C1480.77 65.752 1479.04 65.064 1476.8 65.064C1475.93 65.064 1475.12 65.176 1474.35 65.4C1473.58 65.624 1472.91 65.96 1472.33 66.408C1471.76 66.824 1471.29 67.352 1470.94 67.992C1470.62 68.6 1470.46 69.32 1470.46 70.152V79.08C1470.46 79.912 1470.62 80.648 1470.94 81.288C1471.29 81.896 1471.76 82.424 1472.33 82.872C1472.91 83.288 1473.58 83.608 1474.35 83.832C1475.12 84.056 1475.93 84.168 1476.8 84.168Z" fill="white"/>
<line x1="617" y1="601" x2="617" y2="781" stroke="black" stroke-width="6"/>
<line x1="618.879" y1="783.121" x2="600.879" y2="765.121" stroke="black" stroke-width="6"/>
<line y1="-3" x2="25.4558" y2="-3" transform="matrix(0.707107 -0.707107 -0.707107 -0.707107 613 781)" stroke="black" stroke-width="6"/>
<line x1="613" y1="141" x2="613" y2="321" stroke="black" stroke-width="6"/>
<line x1="614.879" y1="323.121" x2="596.879" y2="305.121" stroke="black" stroke-width="6"/>
<line y1="-3" x2="25.4558" y2="-3" transform="matrix(0.707107 -0.707107 -0.707107 -0.707107 609 321)" stroke="black" stroke-width="6"/>
<line y1="-3" x2="25.4558" y2="-3" transform="matrix(0.707107 0.707107 0.707107 -0.707107 758 458)" stroke="black" stroke-width="6"/>
<line x1="755.879" y1="463.879" x2="773.879" y2="445.879" stroke="black" stroke-width="6"/>
<path d="M699.171 694.856H690.467V705H687.779V682.664H690.467V692.52H699.171V682.664H701.859V705H699.171V694.856ZM715.35 685V705H712.662V685H705.206V682.664H722.806V685H715.35ZM738.154 693.8V686.728H737.898L733.194 698.216L728.49 686.728H728.234V693.8V705H725.77V682.664H729.226L733.162 692.52H733.354L737.29 682.664H740.618V705H738.154V693.8ZM746.621 705V682.664H749.309V702.664H759.901V705H746.621ZM770.193 700.648H774.321L770.641 709.512H768.497L770.193 700.648ZM810.68 705.384C807.949 705.384 805.912 704.392 804.568 702.408C803.245 700.424 802.584 697.565 802.584 693.832C802.584 690.099 803.245 687.24 804.568 685.256C805.912 683.272 807.949 682.28 810.68 682.28C811.704 682.28 812.589 682.419 813.336 682.696C814.082 682.973 814.722 683.347 815.256 683.816C815.789 684.285 816.237 684.819 816.6 685.416C816.962 685.992 817.282 686.579 817.56 687.176L815.256 688.232C815.064 687.741 814.84 687.283 814.584 686.856C814.328 686.408 814.018 686.024 813.656 685.704C813.314 685.363 812.898 685.096 812.408 684.904C811.938 684.712 811.362 684.616 810.68 684.616C808.909 684.616 807.586 685.288 806.712 686.632C805.858 687.976 805.432 689.768 805.432 692.008V695.656C805.432 697.896 805.858 699.688 806.712 701.032C807.586 702.376 808.909 703.048 810.68 703.048C811.362 703.048 811.938 702.952 812.408 702.76C812.898 702.568 813.314 702.312 813.656 701.992C814.018 701.651 814.328 701.267 814.584 700.84C814.84 700.392 815.064 699.923 815.256 699.432L817.56 700.488C817.282 701.107 816.962 701.704 816.6 702.28C816.237 702.856 815.789 703.379 815.256 703.848C814.722 704.317 814.082 704.691 813.336 704.968C812.589 705.245 811.704 705.384 810.68 705.384ZM829.067 705.384C827.062 705.384 825.419 705.021 824.139 704.296C822.859 703.549 821.803 702.6 820.971 701.448L822.923 699.848C823.798 700.936 824.715 701.747 825.675 702.28C826.657 702.813 827.819 703.08 829.163 703.08C830.785 703.08 832.022 702.707 832.875 701.96C833.729 701.213 834.155 700.168 834.155 698.824C834.155 697.736 833.846 696.893 833.227 696.296C832.609 695.677 831.531 695.24 829.995 694.984L827.499 694.568C826.411 694.376 825.494 694.088 824.747 693.704C824.022 693.32 823.435 692.861 822.987 692.328C822.539 691.773 822.219 691.176 822.027 690.536C821.835 689.875 821.739 689.192 821.739 688.488C821.739 686.44 822.411 684.893 823.755 683.848C825.099 682.803 826.913 682.28 829.195 682.28C830.987 682.28 832.491 682.579 833.707 683.176C834.945 683.773 835.937 684.616 836.683 685.704L834.795 687.336C834.177 686.525 833.43 685.864 832.555 685.352C831.681 684.84 830.55 684.584 829.163 684.584C827.649 684.584 826.486 684.904 825.675 685.544C824.865 686.184 824.459 687.144 824.459 688.424C824.459 689.427 824.758 690.248 825.355 690.888C825.974 691.507 827.073 691.955 828.651 692.232L831.051 692.648C832.139 692.84 833.057 693.128 833.803 693.512C834.55 693.896 835.147 694.355 835.595 694.888C836.065 695.421 836.395 696.019 836.587 696.68C836.779 697.341 836.875 698.035 836.875 698.76C836.875 700.829 836.193 702.451 834.827 703.624C833.483 704.797 831.563 705.384 829.067 705.384ZM848.255 705.384C846.249 705.384 844.607 705.021 843.327 704.296C842.047 703.549 840.991 702.6 840.159 701.448L842.111 699.848C842.985 700.936 843.903 701.747 844.863 702.28C845.844 702.813 847.007 703.08 848.351 703.08C849.972 703.08 851.209 702.707 852.063 701.96C852.916 701.213 853.343 700.168 853.343 698.824C853.343 697.736 853.033 696.893 852.415 696.296C851.796 695.677 850.719 695.24 849.183 694.984L846.687 694.568C845.599 694.376 844.681 694.088 843.935 693.704C843.209 693.32 842.623 692.861 842.175 692.328C841.727 691.773 841.407 691.176 841.215 690.536C841.023 689.875 840.927 689.192 840.927 688.488C840.927 686.44 841.599 684.893 842.943 683.848C844.287 682.803 846.1 682.28 848.383 682.28C850.175 682.28 851.679 682.579 852.895 683.176C854.132 683.773 855.124 684.616 855.871 685.704L853.983 687.336C853.364 686.525 852.617 685.864 851.743 685.352C850.868 684.84 849.737 684.584 848.351 684.584C846.836 684.584 845.673 684.904 844.863 685.544C844.052 686.184 843.647 687.144 843.647 688.424C843.647 689.427 843.945 690.248 844.543 690.888C845.161 691.507 846.26 691.955 847.839 692.232L850.239 692.648C851.327 692.84 852.244 693.128 852.991 693.512C853.737 693.896 854.335 694.355 854.783 694.888C855.252 695.421 855.583 696.019 855.775 696.68C855.967 697.341 856.063 698.035 856.063 698.76C856.063 700.829 855.38 702.451 854.015 703.624C852.671 704.797 850.751 705.384 848.255 705.384ZM866.13 700.648H870.258L866.578 709.512H864.434L866.13 700.648ZM911.641 682.664V699.208C911.641 700.147 911.481 701 911.161 701.768C910.841 702.536 910.383 703.187 909.785 703.72C909.209 704.253 908.516 704.669 907.705 704.968C906.895 705.245 906.009 705.384 905.049 705.384C903.343 705.384 901.935 704.947 900.825 704.072C899.716 703.176 898.991 701.928 898.649 700.328L901.209 699.784C901.316 700.232 901.455 700.659 901.625 701.064C901.817 701.448 902.063 701.789 902.361 702.088C902.681 702.365 903.065 702.589 903.513 702.76C903.961 702.931 904.495 703.016 905.113 703.016C906.329 703.016 907.268 702.675 907.929 701.992C908.612 701.288 908.953 700.2 908.953 698.728V685H900.889V682.664H911.641ZM925.005 705.384C922.999 705.384 921.357 705.021 920.077 704.296C918.797 703.549 917.741 702.6 916.909 701.448L918.861 699.848C919.735 700.936 920.653 701.747 921.613 702.28C922.594 702.813 923.757 703.08 925.101 703.08C926.722 703.08 927.959 702.707 928.813 701.96C929.666 701.213 930.093 700.168 930.093 698.824C930.093 697.736 929.783 696.893 929.165 696.296C928.546 695.677 927.469 695.24 925.933 694.984L923.437 694.568C922.349 694.376 921.431 694.088 920.685 693.704C919.959 693.32 919.373 692.861 918.925 692.328C918.477 691.773 918.157 691.176 917.965 690.536C917.773 689.875 917.677 689.192 917.677 688.488C917.677 686.44 918.349 684.893 919.693 683.848C921.037 682.803 922.85 682.28 925.133 682.28C926.925 682.28 928.429 682.579 929.645 683.176C930.882 683.773 931.874 684.616 932.621 685.704L930.733 687.336C930.114 686.525 929.367 685.864 928.493 685.352C927.618 684.84 926.487 684.584 925.101 684.584C923.586 684.584 922.423 684.904 921.613 685.544C920.802 686.184 920.397 687.144 920.397 688.424C920.397 689.427 920.695 690.248 921.293 690.888C921.911 691.507 923.01 691.955 924.589 692.232L926.989 692.648C928.077 692.84 928.994 693.128 929.741 693.512C930.487 693.896 931.085 694.355 931.533 694.888C932.002 695.421 932.333 696.019 932.525 696.68C932.717 697.341 932.813 698.035 932.813 698.76C932.813 700.829 932.13 702.451 930.765 703.624C929.421 704.797 927.501 705.384 925.005 705.384ZM942.88 700.648H947.008L943.328 709.512H941.184L942.88 700.648ZM982.919 705.384C981.725 705.384 980.647 705.181 979.687 704.776C978.749 704.371 977.938 703.795 977.255 703.048C976.594 702.28 976.082 701.373 975.719 700.328C975.357 699.261 975.175 698.077 975.175 696.776C975.175 695.453 975.357 694.259 975.719 693.192C976.103 692.125 976.626 691.219 977.287 690.472C977.949 689.704 978.738 689.117 979.655 688.712C980.594 688.307 981.629 688.104 982.759 688.104C983.869 688.104 984.871 688.307 985.767 688.712C986.685 689.117 987.463 689.683 988.103 690.408C988.743 691.112 989.234 691.955 989.575 692.936C989.917 693.917 990.087 694.995 990.087 696.168V697.384H977.863V698.152C977.863 698.877 977.981 699.549 978.215 700.168C978.45 700.787 978.781 701.32 979.207 701.768C979.655 702.216 980.189 702.568 980.807 702.824C981.447 703.059 982.151 703.176 982.919 703.176C984.029 703.176 984.989 702.92 985.799 702.408C986.61 701.896 987.229 701.192 987.655 700.296L989.543 701.576C989.053 702.685 988.231 703.603 987.079 704.328C985.949 705.032 984.562 705.384 982.919 705.384ZM982.759 690.216C982.055 690.216 981.405 690.344 980.807 690.6C980.21 690.856 979.687 691.208 979.239 691.656C978.813 692.104 978.471 692.637 978.215 693.256C977.981 693.853 977.863 694.515 977.863 695.24V695.464H987.335V695.112C987.335 694.387 987.218 693.725 986.983 693.128C986.77 692.531 986.461 692.019 986.055 691.592C985.671 691.144 985.191 690.803 984.615 690.568C984.061 690.333 983.442 690.216 982.759 690.216ZM1002.62 705C1001.36 705 1000.43 704.648 999.835 703.944C999.259 703.24 998.971 702.333 998.971 701.224V690.664H993.467V688.488H997.563C998.117 688.488 998.501 688.381 998.715 688.168C998.949 687.933 999.067 687.539 999.067 686.984V682.664H1001.53V688.488H1009.05V690.664H1001.53V702.824H1009.05V705H1002.62ZM1021.58 705.384C1020.39 705.384 1019.32 705.181 1018.38 704.776C1017.46 704.349 1016.69 703.763 1016.05 703.016C1015.41 702.269 1014.92 701.363 1014.57 700.296C1014.25 699.229 1014.09 698.045 1014.09 696.744C1014.09 695.443 1014.26 694.259 1014.61 693.192C1014.95 692.125 1015.44 691.219 1016.08 690.472C1016.72 689.704 1017.5 689.117 1018.41 688.712C1019.33 688.307 1020.38 688.104 1021.55 688.104C1023.15 688.104 1024.45 688.456 1025.45 689.16C1026.46 689.864 1027.19 690.781 1027.66 691.912L1025.61 693C1025.32 692.147 1024.81 691.485 1024.11 691.016C1023.43 690.547 1022.57 690.312 1021.55 690.312C1020.8 690.312 1020.13 690.44 1019.53 690.696C1018.96 690.931 1018.47 691.272 1018.06 691.72C1017.66 692.168 1017.35 692.701 1017.13 693.32C1016.94 693.939 1016.85 694.611 1016.85 695.336V698.152C1016.85 698.877 1016.94 699.549 1017.13 700.168C1017.35 700.787 1017.66 701.32 1018.06 701.768C1018.47 702.216 1018.97 702.568 1019.57 702.824C1020.16 703.059 1020.85 703.176 1021.61 703.176C1022.72 703.176 1023.64 702.92 1024.37 702.408C1025.09 701.896 1025.67 701.192 1026.09 700.296L1027.92 701.544C1027.43 702.653 1026.66 703.571 1025.61 704.296C1024.59 705.021 1023.25 705.384 1021.58 705.384ZM1040.19 705.288C1039.32 705.288 1038.7 705.107 1038.34 704.744C1038 704.381 1037.83 703.923 1037.83 703.368V702.792C1037.83 702.237 1038 701.779 1038.34 701.416C1038.7 701.053 1039.32 700.872 1040.19 700.872C1041.07 700.872 1041.68 701.053 1042.02 701.416C1042.38 701.779 1042.56 702.237 1042.56 702.792V703.368C1042.56 703.923 1042.38 704.381 1042.02 704.744C1041.68 705.107 1041.07 705.288 1040.19 705.288Z" fill="black"/>
<path d="M700.423 220.664V237.208C700.423 238.147 700.263 239 699.943 239.768C699.623 240.536 699.164 241.187 698.567 241.72C697.991 242.253 697.297 242.669 696.487 242.968C695.676 243.245 694.791 243.384 693.831 243.384C692.124 243.384 690.716 242.947 689.607 242.072C688.497 241.176 687.772 239.928 687.431 238.328L689.991 237.784C690.097 238.232 690.236 238.659 690.407 239.064C690.599 239.448 690.844 239.789 691.143 240.088C691.463 240.365 691.847 240.589 692.295 240.76C692.743 240.931 693.276 241.016 693.895 241.016C695.111 241.016 696.049 240.675 696.711 239.992C697.393 239.288 697.735 238.2 697.735 236.728V223H689.671V220.664H700.423ZM713.786 243.384C711.781 243.384 710.138 243.021 708.858 242.296C707.578 241.549 706.522 240.6 705.69 239.448L707.642 237.848C708.517 238.936 709.434 239.747 710.394 240.28C711.375 240.813 712.538 241.08 713.882 241.08C715.503 241.08 716.741 240.707 717.594 239.96C718.447 239.213 718.874 238.168 718.874 236.824C718.874 235.736 718.565 234.893 717.946 234.296C717.327 233.677 716.25 233.24 714.714 232.984L712.218 232.568C711.13 232.376 710.213 232.088 709.466 231.704C708.741 231.32 708.154 230.861 707.706 230.328C707.258 229.773 706.938 229.176 706.746 228.536C706.554 227.875 706.458 227.192 706.458 226.488C706.458 224.44 707.13 222.893 708.474 221.848C709.818 220.803 711.631 220.28 713.914 220.28C715.706 220.28 717.21 220.579 718.426 221.176C719.663 221.773 720.655 222.616 721.402 223.704L719.514 225.336C718.895 224.525 718.149 223.864 717.274 223.352C716.399 222.84 715.269 222.584 713.882 222.584C712.367 222.584 711.205 222.904 710.394 223.544C709.583 224.184 709.178 225.144 709.178 226.424C709.178 227.427 709.477 228.248 710.074 228.888C710.693 229.507 711.791 229.955 713.37 230.232L715.77 230.648C716.858 230.84 717.775 231.128 718.522 231.512C719.269 231.896 719.866 232.355 720.314 232.888C720.783 233.421 721.114 234.019 721.306 234.68C721.498 235.341 721.594 236.035 721.594 236.76C721.594 238.829 720.911 240.451 719.546 241.624C718.202 242.797 716.282 243.384 713.786 243.384ZM733.038 243.384C731.672 243.384 730.499 243.128 729.518 242.616C728.536 242.083 727.726 241.325 727.086 240.344C726.446 239.363 725.976 238.157 725.678 236.728C725.379 235.299 725.23 233.667 725.23 231.832C725.23 230.019 725.379 228.397 725.678 226.968C725.976 225.517 726.446 224.301 727.086 223.32C727.726 222.339 728.536 221.592 729.518 221.08C730.499 220.547 731.672 220.28 733.038 220.28C734.403 220.28 735.576 220.547 736.558 221.08C737.539 221.592 738.35 222.339 738.99 223.32C739.63 224.301 740.099 225.517 740.398 226.968C740.696 228.397 740.846 230.019 740.846 231.832C740.846 233.667 740.696 235.299 740.398 236.728C740.099 238.157 739.63 239.363 738.99 240.344C738.35 241.325 737.539 242.083 736.558 242.616C735.576 243.128 734.403 243.384 733.038 243.384ZM733.038 241.048C733.934 241.048 734.691 240.877 735.31 240.536C735.928 240.173 736.44 239.672 736.846 239.032C737.251 238.392 737.539 237.624 737.71 236.728C737.902 235.811 737.998 234.787 737.998 233.656V230.008C737.998 228.899 737.902 227.885 737.71 226.968C737.539 226.051 737.251 225.272 736.846 224.632C736.44 223.992 735.928 223.501 735.31 223.16C734.691 222.797 733.934 222.616 733.038 222.616C732.142 222.616 731.384 222.797 730.766 223.16C730.147 223.501 729.635 223.992 729.23 224.632C728.824 225.272 728.526 226.051 728.334 226.968C728.163 227.885 728.078 228.899 728.078 230.008V233.656C728.078 234.787 728.163 235.811 728.334 236.728C728.526 237.624 728.824 238.392 729.23 239.032C729.635 239.672 730.147 240.173 730.766 240.536C731.384 240.877 732.142 241.048 733.038 241.048ZM747.841 224.088H747.617V243H745.185V220.664H748.993L756.609 239.384H756.833V220.664H759.265V243H755.457L747.841 224.088ZM770.036 238.648H774.165L770.485 247.512H768.341L770.036 238.648ZM814.396 240.024H814.236C814.044 240.451 813.82 240.867 813.564 241.272C813.308 241.677 812.977 242.04 812.572 242.36C812.188 242.659 811.718 242.904 811.164 243.096C810.609 243.288 809.948 243.384 809.18 243.384C806.748 243.384 804.934 242.403 803.74 240.44C802.566 238.477 801.98 235.661 801.98 231.992C801.98 228.152 802.63 225.24 803.932 223.256C805.233 221.272 807.238 220.28 809.948 220.28C810.993 220.28 811.9 220.419 812.668 220.696C813.436 220.973 814.086 221.347 814.62 221.816C815.174 222.285 815.633 222.819 815.996 223.416C816.358 223.992 816.657 224.579 816.892 225.176L814.588 226.232C814.396 225.741 814.172 225.283 813.916 224.856C813.681 224.408 813.382 224.024 813.02 223.704C812.678 223.363 812.262 223.096 811.772 222.904C811.281 222.712 810.705 222.616 810.044 222.616C808.252 222.616 806.929 223.288 806.076 224.632C805.244 225.976 804.828 227.768 804.828 230.008V233.464C804.828 234.595 804.913 235.629 805.084 236.568C805.254 237.485 805.532 238.285 805.916 238.968C806.321 239.651 806.833 240.184 807.452 240.568C808.092 240.931 808.87 241.112 809.788 241.112C811.238 241.112 812.369 240.675 813.18 239.8C813.99 238.925 814.396 237.795 814.396 236.408V234.104H809.692V231.96H816.892V243H814.396V240.024ZM821.839 240.824H826.671V228.664H821.839V226.488H829.231V230.648H829.391C829.732 229.347 830.372 228.333 831.311 227.608C832.271 226.861 833.487 226.488 834.959 226.488H837.263V229.048H834.159C832.687 229.048 831.492 229.475 830.575 230.328C829.679 231.181 829.231 232.301 829.231 233.688V240.824H835.631V243H821.839V240.824ZM854.403 243C853.4 243 852.685 242.744 852.259 242.232C851.832 241.72 851.565 241.08 851.459 240.312H851.299C850.936 241.272 850.349 242.029 849.539 242.584C848.749 243.117 847.683 243.384 846.339 243.384C844.611 243.384 843.235 242.936 842.211 242.04C841.187 241.144 840.674 239.917 840.674 238.36C840.674 236.824 841.229 235.64 842.339 234.808C843.469 233.976 845.283 233.56 847.779 233.56H851.299V231.928C851.299 230.712 850.957 229.805 850.275 229.208C849.592 228.589 848.621 228.28 847.363 228.28C846.253 228.28 845.347 228.504 844.643 228.952C843.939 229.379 843.373 229.965 842.947 230.712L841.219 229.432C841.432 229.005 841.72 228.589 842.083 228.184C842.445 227.779 842.893 227.427 843.427 227.128C843.96 226.808 844.568 226.563 845.251 226.392C845.933 226.2 846.691 226.104 847.523 226.104C849.464 226.104 851 226.595 852.131 227.576C853.283 228.557 853.859 229.923 853.859 231.672V240.76H856.163V243H854.403ZM846.786 241.24C847.448 241.24 848.045 241.165 848.579 241.016C849.133 240.845 849.613 240.632 850.019 240.376C850.424 240.099 850.733 239.779 850.947 239.416C851.181 239.032 851.299 238.627 851.299 238.2V235.48H847.779C846.243 235.48 845.123 235.693 844.419 236.12C843.715 236.547 843.363 237.165 843.363 237.976V238.648C843.363 239.501 843.661 240.152 844.259 240.6C844.877 241.027 845.72 241.24 846.786 241.24ZM860.79 226.488H863.35V229.176H863.478C864.545 227.128 866.241 226.104 868.566 226.104C870.593 226.104 872.171 226.861 873.302 228.376C874.454 229.891 875.03 232.013 875.03 234.744C875.03 237.475 874.454 239.597 873.302 241.112C872.171 242.627 870.593 243.384 868.566 243.384C866.241 243.384 864.545 242.36 863.478 240.312H863.35V249.4H860.79V226.488ZM867.574 241.112C869.067 241.112 870.219 240.664 871.03 239.768C871.862 238.851 872.278 237.645 872.278 236.152V233.336C872.278 231.843 871.862 230.648 871.03 229.752C870.219 228.835 869.067 228.376 867.574 228.376C866.998 228.376 866.454 228.451 865.942 228.6C865.43 228.749 864.982 228.973 864.598 229.272C864.214 229.549 863.905 229.901 863.67 230.328C863.457 230.733 863.35 231.213 863.35 231.768V237.72C863.35 238.275 863.457 238.765 863.67 239.192C863.905 239.597 864.214 239.949 864.598 240.248C864.982 240.525 865.43 240.739 865.942 240.888C866.454 241.037 866.998 241.112 867.574 241.112ZM880.074 219.32H882.634V229.176H882.762C882.932 228.771 883.146 228.387 883.402 228.024C883.658 227.64 883.967 227.309 884.33 227.032C884.714 226.755 885.162 226.531 885.674 226.36C886.186 226.189 886.783 226.104 887.466 226.104C889.194 226.104 890.58 226.659 891.626 227.768C892.671 228.856 893.194 230.403 893.194 232.408V243H890.634V232.856C890.634 231.341 890.303 230.221 889.642 229.496C888.98 228.749 888.01 228.376 886.73 228.376C886.218 228.376 885.716 228.44 885.226 228.568C884.735 228.696 884.298 228.888 883.914 229.144C883.53 229.4 883.22 229.731 882.986 230.136C882.751 230.541 882.634 231.011 882.634 231.544V243H880.074V219.32ZM911.837 248.248H908.093C906.834 248.248 905.906 247.896 905.309 247.192C904.733 246.488 904.445 245.581 904.445 244.472V243.288C903.314 243.139 902.333 242.776 901.501 242.2C900.69 241.603 900.018 240.824 899.485 239.864C898.952 238.883 898.557 237.72 898.301 236.376C898.045 235.011 897.917 233.496 897.917 231.832C897.917 230.019 898.066 228.397 898.365 226.968C898.664 225.517 899.133 224.301 899.773 223.32C900.413 222.339 901.224 221.592 902.205 221.08C903.186 220.547 904.36 220.28 905.725 220.28C907.09 220.28 908.264 220.547 909.245 221.08C910.226 221.592 911.037 222.339 911.677 223.32C912.317 224.301 912.786 225.517 913.085 226.968C913.384 228.397 913.533 230.019 913.533 231.832C913.533 235.181 913.01 237.859 911.965 239.864C910.92 241.848 909.266 242.989 907.005 243.288V246.072H911.837V248.248ZM905.725 241.048C906.621 241.048 907.378 240.877 907.997 240.536C908.616 240.173 909.128 239.672 909.533 239.032C909.938 238.392 910.226 237.624 910.397 236.728C910.589 235.811 910.685 234.787 910.685 233.656V230.008C910.685 228.899 910.589 227.885 910.397 226.968C910.226 226.051 909.938 225.272 909.533 224.632C909.128 223.992 908.616 223.501 907.997 223.16C907.378 222.797 906.621 222.616 905.725 222.616C904.829 222.616 904.072 222.797 903.453 223.16C902.834 223.501 902.322 223.992 901.917 224.632C901.512 225.272 901.213 226.051 901.021 226.968C900.85 227.885 900.765 228.899 900.765 230.008V233.656C900.765 234.787 900.85 235.811 901.021 236.728C901.213 237.624 901.512 238.392 901.917 239.032C902.322 239.672 902.834 240.173 903.453 240.536C904.072 240.877 904.829 241.048 905.725 241.048ZM919.153 243V220.664H921.841V240.664H932.433V243H919.153ZM942.724 238.648H946.852L943.172 247.512H941.028L942.724 238.648ZM987.435 231.8V224.728H987.179L982.475 236.216L977.771 224.728H977.515V231.8V243H975.051V220.664H978.507L982.443 230.52H982.635L986.571 220.664H989.899V243H987.435V231.8ZM1001.95 243.384C1000.76 243.384 999.679 243.181 998.719 242.776C997.78 242.371 996.969 241.795 996.286 241.048C995.625 240.28 995.113 239.373 994.751 238.328C994.388 237.261 994.207 236.077 994.207 234.776C994.207 233.453 994.388 232.259 994.751 231.192C995.135 230.125 995.657 229.219 996.319 228.472C996.98 227.704 997.769 227.117 998.687 226.712C999.625 226.307 1000.66 226.104 1001.79 226.104C1002.9 226.104 1003.9 226.307 1004.8 226.712C1005.72 227.117 1006.49 227.683 1007.13 228.408C1007.77 229.112 1008.27 229.955 1008.61 230.936C1008.95 231.917 1009.12 232.995 1009.12 234.168V235.384H996.895V236.152C996.895 236.877 997.012 237.549 997.247 238.168C997.481 238.787 997.812 239.32 998.239 239.768C998.687 240.216 999.22 240.568 999.839 240.824C1000.48 241.059 1001.18 241.176 1001.95 241.176C1003.06 241.176 1004.02 240.92 1004.83 240.408C1005.64 239.896 1006.26 239.192 1006.69 238.296L1008.57 239.576C1008.08 240.685 1007.26 241.603 1006.11 242.328C1004.98 243.032 1003.59 243.384 1001.95 243.384ZM1001.79 228.216C1001.09 228.216 1000.44 228.344 999.839 228.6C999.241 228.856 998.719 229.208 998.271 229.656C997.844 230.104 997.503 230.637 997.247 231.256C997.012 231.853 996.895 232.515 996.895 233.24V233.464H1006.37V233.112C1006.37 232.387 1006.25 231.725 1006.01 231.128C1005.8 230.531 1005.49 230.019 1005.09 229.592C1004.7 229.144 1004.22 228.803 1003.65 228.568C1003.09 228.333 1002.47 228.216 1001.79 228.216ZM1024.85 240.312H1024.72C1023.66 242.36 1021.96 243.384 1019.63 243.384C1017.61 243.384 1016.02 242.627 1014.87 241.112C1013.74 239.597 1013.17 237.475 1013.17 234.744C1013.17 232.013 1013.74 229.891 1014.87 228.376C1016.02 226.861 1017.61 226.104 1019.63 226.104C1021.96 226.104 1023.66 227.128 1024.72 229.176H1024.85V219.32H1027.41V243H1024.85V240.312ZM1020.63 241.112C1021.2 241.112 1021.75 241.037 1022.26 240.888C1022.77 240.739 1023.22 240.525 1023.6 240.248C1023.99 239.949 1024.28 239.597 1024.5 239.192C1024.73 238.765 1024.85 238.275 1024.85 237.72V231.768C1024.85 231.213 1024.73 230.733 1024.5 230.328C1024.28 229.901 1023.99 229.549 1023.6 229.272C1023.22 228.973 1022.77 228.749 1022.26 228.6C1021.75 228.451 1021.2 228.376 1020.63 228.376C1019.13 228.376 1017.97 228.835 1017.14 229.752C1016.33 230.648 1015.92 231.843 1015.92 233.336V236.152C1015.92 237.645 1016.33 238.851 1017.14 239.768C1017.97 240.664 1019.13 241.112 1020.63 241.112ZM1041.06 222.84C1040.31 222.84 1039.79 222.691 1039.49 222.392C1039.19 222.072 1039.05 221.677 1039.05 221.208V220.696C1039.05 220.227 1039.19 219.843 1039.49 219.544C1039.79 219.224 1040.31 219.064 1041.06 219.064C1041.81 219.064 1042.33 219.224 1042.63 219.544C1042.93 219.843 1043.08 220.227 1043.08 220.696V221.208C1043.08 221.677 1042.93 222.072 1042.63 222.392C1042.33 222.691 1041.81 222.84 1041.06 222.84ZM1033.83 240.824H1039.78V228.664H1033.83V226.488H1042.34V240.824H1047.91V243H1033.83V240.824ZM1065.47 243C1064.46 243 1063.75 242.744 1063.32 242.232C1062.89 241.72 1062.63 241.08 1062.52 240.312H1062.36C1062 241.272 1061.41 242.029 1060.6 242.584C1059.81 243.117 1058.75 243.384 1057.4 243.384C1055.67 243.384 1054.3 242.936 1053.27 242.04C1052.25 241.144 1051.74 239.917 1051.74 238.36C1051.74 236.824 1052.29 235.64 1053.4 234.808C1054.53 233.976 1056.35 233.56 1058.84 233.56H1062.36V231.928C1062.36 230.712 1062.02 229.805 1061.34 229.208C1060.65 228.589 1059.68 228.28 1058.43 228.28C1057.32 228.28 1056.41 228.504 1055.71 228.952C1055 229.379 1054.44 229.965 1054.01 230.712L1052.28 229.432C1052.49 229.005 1052.78 228.589 1053.15 228.184C1053.51 227.779 1053.96 227.427 1054.49 227.128C1055.02 226.808 1055.63 226.563 1056.31 226.392C1057 226.2 1057.75 226.104 1058.59 226.104C1060.53 226.104 1062.06 226.595 1063.19 227.576C1064.35 228.557 1064.92 229.923 1064.92 231.672V240.76H1067.23V243H1065.47ZM1057.85 241.24C1058.51 241.24 1059.11 241.165 1059.64 241.016C1060.2 240.845 1060.68 240.632 1061.08 240.376C1061.49 240.099 1061.8 239.779 1062.01 239.416C1062.24 239.032 1062.36 238.627 1062.36 238.2V235.48H1058.84C1057.31 235.48 1056.19 235.693 1055.48 236.12C1054.78 236.547 1054.43 237.165 1054.43 237.976V238.648C1054.43 239.501 1054.72 240.152 1055.32 240.6C1055.94 241.027 1056.78 241.24 1057.85 241.24ZM1073.77 234.616V231.928H1083.05V234.616H1073.77ZM1090.66 240.824H1096.22V228.664H1090.34V226.488H1096.22V223.096C1096.22 221.987 1096.51 221.08 1097.09 220.376C1097.69 219.672 1098.61 219.32 1099.87 219.32H1105.41V221.496H1098.78V226.488H1105.41V228.664H1098.78V240.824H1104.67V243H1090.66V240.824ZM1117.81 222.84C1117.06 222.84 1116.54 222.691 1116.24 222.392C1115.94 222.072 1115.8 221.677 1115.8 221.208V220.696C1115.8 220.227 1115.94 219.843 1116.24 219.544C1116.54 219.224 1117.06 219.064 1117.81 219.064C1118.56 219.064 1119.08 219.224 1119.38 219.544C1119.68 219.843 1119.83 220.227 1119.83 220.696V221.208C1119.83 221.677 1119.68 222.072 1119.38 222.392C1119.08 222.691 1118.56 222.84 1117.81 222.84ZM1110.58 240.824H1116.53V228.664H1110.58V226.488H1119.09V240.824H1124.66V243H1110.58V240.824ZM1128.94 240.824H1134.7V221.496H1128.94V219.32H1137.26V240.824H1143.02V243H1128.94V240.824ZM1155.45 243.384C1154.26 243.384 1153.18 243.181 1152.22 242.776C1151.28 242.371 1150.47 241.795 1149.79 241.048C1149.13 240.28 1148.61 239.373 1148.25 238.328C1147.89 237.261 1147.71 236.077 1147.71 234.776C1147.71 233.453 1147.89 232.259 1148.25 231.192C1148.63 230.125 1149.16 229.219 1149.82 228.472C1150.48 227.704 1151.27 227.117 1152.19 226.712C1153.13 226.307 1154.16 226.104 1155.29 226.104C1156.4 226.104 1157.4 226.307 1158.3 226.712C1159.22 227.117 1159.99 227.683 1160.63 228.408C1161.27 229.112 1161.77 229.955 1162.11 230.936C1162.45 231.917 1162.62 232.995 1162.62 234.168V235.384H1150.39V236.152C1150.39 236.877 1150.51 237.549 1150.75 238.168C1150.98 238.787 1151.31 239.32 1151.74 239.768C1152.19 240.216 1152.72 240.568 1153.34 240.824C1153.98 241.059 1154.68 241.176 1155.45 241.176C1156.56 241.176 1157.52 240.92 1158.33 240.408C1159.14 239.896 1159.76 239.192 1160.19 238.296L1162.07 239.576C1161.58 240.685 1160.76 241.603 1159.61 242.328C1158.48 243.032 1157.09 243.384 1155.45 243.384ZM1155.29 228.216C1154.59 228.216 1153.94 228.344 1153.34 228.6C1152.74 228.856 1152.22 229.208 1151.77 229.656C1151.34 230.104 1151 230.637 1150.75 231.256C1150.51 231.853 1150.39 232.515 1150.39 233.24V233.464H1159.87V233.112C1159.87 232.387 1159.75 231.725 1159.51 231.128C1159.3 230.531 1158.99 230.019 1158.59 229.592C1158.2 229.144 1157.72 228.803 1157.15 228.568C1156.59 228.333 1155.97 228.216 1155.29 228.216ZM1167.21 240.824H1172.05V228.664H1167.21V226.488H1174.61V230.648H1174.77C1175.11 229.347 1175.75 228.333 1176.69 227.608C1177.65 226.861 1178.86 226.488 1180.33 226.488H1182.64V229.048H1179.53C1178.06 229.048 1176.87 229.475 1175.95 230.328C1175.05 231.181 1174.61 232.301 1174.61 233.688V240.824H1181.01V243H1167.21V240.824Z" fill="black"/>
<line x1="761" y1="460" x2="1405" y2="460" stroke="black" stroke-width="6"/>
<line x1="1402" y1="463" x2="1402" y2="141" stroke="black" stroke-width="6"/>
</g>
<defs>
<clipPath id="clip0">
<rect width="1546" height="971" fill="white"/>
</clipPath>
</defs>
</svg>
