<svg width="1546" height="971" viewBox="0 0 1546 971" fill="none" xmlns="http://www.w3.org/2000/svg">
<g clip-path="url(#clip0)">
<rect width="1546" height="971" fill="white"/>
<rect x="-2" y="181" width="1548" height="790" fill="#1DD6D6" fill-opacity="0.2"/>
<path d="M891.943 509V486.664H906.023V489H894.631V496.52H905.062V498.856H894.631V509H891.943ZM910.714 506.824H915.546V494.664H910.714V492.488H918.106V496.648H918.266C918.607 495.347 919.247 494.333 920.186 493.608C921.146 492.861 922.362 492.488 923.834 492.488H926.138V495.048H923.034C921.562 495.048 920.367 495.475 919.45 496.328C918.554 497.181 918.106 498.301 918.106 499.688V506.824H924.506V509H910.714V506.824ZM937.038 509.384C935.886 509.384 934.84 509.181 933.902 508.776C932.984 508.371 932.195 507.795 931.534 507.048C930.894 506.28 930.403 505.373 930.062 504.328C929.72 503.261 929.549 502.067 929.549 500.744C929.549 499.443 929.72 498.259 930.062 497.192C930.403 496.125 930.894 495.219 931.534 494.472C932.195 493.704 932.984 493.117 933.902 492.712C934.84 492.307 935.886 492.104 937.038 492.104C938.19 492.104 939.224 492.307 940.142 492.712C941.08 493.117 941.87 493.704 942.51 494.472C943.171 495.219 943.672 496.125 944.014 497.192C944.355 498.259 944.526 499.443 944.526 500.744C944.526 502.067 944.355 503.261 944.014 504.328C943.672 505.373 943.171 506.28 942.51 507.048C941.87 507.795 941.08 508.371 940.142 508.776C939.224 509.181 938.19 509.384 937.038 509.384ZM937.038 507.176C938.467 507.176 939.619 506.749 940.494 505.896C941.368 505.043 941.806 503.72 941.806 501.928V499.56C941.806 497.768 941.368 496.445 940.494 495.592C939.619 494.739 938.467 494.312 937.038 494.312C935.608 494.312 934.456 494.739 933.582 495.592C932.707 496.445 932.27 497.768 932.27 499.56V501.928C932.27 503.72 932.707 505.043 933.582 505.896C934.456 506.749 935.608 507.176 937.038 507.176ZM949.761 509V492.488H952.321V495.176H952.449C952.62 494.771 952.833 494.387 953.089 494.024C953.345 493.64 953.654 493.309 954.017 493.032C954.401 492.755 954.849 492.531 955.361 492.36C955.873 492.189 956.47 492.104 957.153 492.104C958.881 492.104 960.268 492.659 961.313 493.768C962.358 494.856 962.881 496.403 962.881 498.408V509H960.321V498.856C960.321 497.341 959.99 496.221 959.329 495.496C958.668 494.749 957.697 494.376 956.417 494.376C955.905 494.376 955.404 494.44 954.913 494.568C954.422 494.696 953.985 494.888 953.601 495.144C953.217 495.4 952.908 495.731 952.673 496.136C952.438 496.541 952.321 497.011 952.321 497.544V509H949.761ZM976.213 509C974.954 509 974.026 508.648 973.429 507.944C972.853 507.24 972.565 506.333 972.565 505.224V494.664H967.061V492.488H971.157C971.711 492.488 972.095 492.381 972.309 492.168C972.543 491.933 972.661 491.539 972.661 490.984V486.664H975.125V492.488H982.645V494.664H975.125V506.824H982.645V509H976.213ZM994.888 509.384C993.693 509.384 992.616 509.181 991.656 508.776C990.717 508.371 989.907 507.795 989.224 507.048C988.563 506.28 988.051 505.373 987.688 504.328C987.325 503.261 987.144 502.077 987.144 500.776C987.144 499.453 987.325 498.259 987.688 497.192C988.072 496.125 988.595 495.219 989.256 494.472C989.917 493.704 990.707 493.117 991.624 492.712C992.563 492.307 993.597 492.104 994.728 492.104C995.837 492.104 996.84 492.307 997.736 492.712C998.653 493.117 999.432 493.683 1000.07 494.408C1000.71 495.112 1001.2 495.955 1001.54 496.936C1001.89 497.917 1002.06 498.995 1002.06 500.168V501.384H989.832V502.152C989.832 502.877 989.949 503.549 990.184 504.168C990.419 504.787 990.749 505.32 991.176 505.768C991.624 506.216 992.157 506.568 992.776 506.824C993.416 507.059 994.12 507.176 994.888 507.176C995.997 507.176 996.957 506.92 997.768 506.408C998.579 505.896 999.197 505.192 999.624 504.296L1001.51 505.576C1001.02 506.685 1000.2 507.603 999.048 508.328C997.917 509.032 996.531 509.384 994.888 509.384ZM994.728 494.216C994.024 494.216 993.373 494.344 992.776 494.6C992.179 494.856 991.656 495.208 991.208 495.656C990.781 496.104 990.44 496.637 990.184 497.256C989.949 497.853 989.832 498.515 989.832 499.24V499.464H999.304V499.112C999.304 498.387 999.187 497.725 998.952 497.128C998.739 496.531 998.429 496.019 998.024 495.592C997.64 495.144 997.16 494.803 996.584 494.568C996.029 494.333 995.411 494.216 994.728 494.216ZM1007.32 509V492.488H1009.88V495.176H1010.01C1010.18 494.771 1010.4 494.387 1010.65 494.024C1010.91 493.64 1011.22 493.309 1011.58 493.032C1011.96 492.755 1012.41 492.531 1012.92 492.36C1013.44 492.189 1014.03 492.104 1014.72 492.104C1016.44 492.104 1017.83 492.659 1018.88 493.768C1019.92 494.856 1020.44 496.403 1020.44 498.408V509H1017.88V498.856C1017.88 497.341 1017.55 496.221 1016.89 495.496C1016.23 494.749 1015.26 494.376 1013.98 494.376C1013.47 494.376 1012.97 494.44 1012.48 494.568C1011.98 494.696 1011.55 494.888 1011.16 495.144C1010.78 495.4 1010.47 495.731 1010.24 496.136C1010 496.541 1009.88 497.011 1009.88 497.544V509H1007.32ZM1036.98 506.312H1036.85C1035.78 508.36 1034.08 509.384 1031.76 509.384C1029.73 509.384 1028.14 508.627 1026.99 507.112C1025.86 505.597 1025.3 503.475 1025.3 500.744C1025.3 498.013 1025.86 495.891 1026.99 494.376C1028.14 492.861 1029.73 492.104 1031.76 492.104C1034.08 492.104 1035.78 493.128 1036.85 495.176H1036.98V485.32H1039.53V509H1036.98V506.312ZM1032.75 507.112C1033.33 507.112 1033.87 507.037 1034.38 506.888C1034.9 506.739 1035.34 506.525 1035.73 506.248C1036.11 505.949 1036.41 505.597 1036.62 505.192C1036.86 504.765 1036.98 504.275 1036.98 503.72V497.768C1036.98 497.213 1036.86 496.733 1036.62 496.328C1036.41 495.901 1036.11 495.549 1035.73 495.272C1035.34 494.973 1034.9 494.749 1034.38 494.6C1033.87 494.451 1033.33 494.376 1032.75 494.376C1031.26 494.376 1030.1 494.835 1029.26 495.752C1028.45 496.648 1028.05 497.843 1028.05 499.336V502.152C1028.05 503.645 1028.45 504.851 1029.26 505.768C1030.1 506.664 1031.26 507.112 1032.75 507.112ZM1068.69 509.384C1067.71 509.384 1066.84 509.224 1066.07 508.904C1065.32 508.584 1064.68 508.147 1064.15 507.592C1063.64 507.016 1063.24 506.355 1062.97 505.608C1062.69 504.861 1062.55 504.061 1062.55 503.208C1062.55 502.653 1062.61 502.077 1062.74 501.48C1062.87 500.883 1063.09 500.307 1063.41 499.752C1063.73 499.176 1064.15 498.632 1064.66 498.12C1065.2 497.587 1065.87 497.117 1066.68 496.712C1066.08 495.944 1065.58 495.155 1065.17 494.344C1064.79 493.533 1064.6 492.648 1064.6 491.688C1064.6 490.877 1064.75 490.141 1065.05 489.48C1065.37 488.819 1065.78 488.253 1066.29 487.784C1066.83 487.293 1067.45 486.92 1068.15 486.664C1068.85 486.408 1069.6 486.28 1070.39 486.28C1071.09 486.28 1071.73 486.387 1072.31 486.6C1072.91 486.792 1073.43 487.048 1073.88 487.368C1074.33 487.688 1074.7 488.051 1075 488.456C1075.32 488.861 1075.55 489.267 1075.7 489.672L1073.59 490.76C1073.31 490.099 1072.9 489.555 1072.34 489.128C1071.79 488.68 1071.09 488.456 1070.26 488.456C1069.3 488.456 1068.53 488.755 1067.96 489.352C1067.4 489.928 1067.13 490.675 1067.13 491.592V491.848C1067.13 492.189 1067.17 492.52 1067.25 492.84C1067.34 493.16 1067.47 493.501 1067.64 493.864C1067.83 494.205 1068.06 494.579 1068.34 494.984C1068.64 495.389 1068.99 495.848 1069.4 496.36L1072.28 499.912L1074.61 502.792H1074.77C1074.92 501.96 1075.02 501.011 1075.06 499.944C1075.1 498.877 1075.15 497.832 1075.19 496.808H1079.7V498.952H1077.3C1077.24 499.464 1077.17 499.944 1077.11 500.392C1077.05 500.84 1076.97 501.277 1076.89 501.704C1076.8 502.131 1076.7 502.568 1076.6 503.016C1076.49 503.443 1076.34 503.901 1076.15 504.392L1080.05 509H1077.01L1074.23 505.704H1074.07C1073.77 506.813 1073.16 507.709 1072.25 508.392C1071.33 509.053 1070.14 509.384 1068.69 509.384ZM1069.37 507.112C1070.28 507.112 1071.09 506.92 1071.8 506.536C1072.5 506.152 1073.06 505.619 1073.46 504.936L1067.89 498.216C1066.91 498.835 1066.22 499.539 1065.81 500.328C1065.41 501.096 1065.21 501.939 1065.21 502.856V503.336C1065.21 504.488 1065.59 505.405 1066.36 506.088C1067.13 506.771 1068.13 507.112 1069.37 507.112ZM1109.92 509.384C1108.19 509.384 1106.7 509.096 1105.44 508.52C1104.2 507.923 1103.14 507.133 1102.27 506.152L1104 504.648C1104.79 505.48 1105.65 506.12 1106.59 506.568C1107.53 507.016 1108.66 507.24 1109.98 507.24C1111.26 507.24 1112.31 507.016 1113.12 506.568C1113.95 506.099 1114.37 505.373 1114.37 504.392C1114.37 503.965 1114.28 503.613 1114.11 503.336C1113.96 503.037 1113.75 502.803 1113.47 502.632C1113.19 502.461 1112.88 502.333 1112.54 502.248C1112.2 502.141 1111.84 502.056 1111.45 501.992L1108.86 501.608C1108.29 501.523 1107.66 501.405 1106.97 501.256C1106.31 501.107 1105.7 500.872 1105.15 500.552C1104.59 500.211 1104.13 499.763 1103.74 499.208C1103.38 498.653 1103.2 497.928 1103.2 497.032C1103.2 496.2 1103.36 495.485 1103.68 494.888C1104.02 494.269 1104.49 493.757 1105.09 493.352C1105.68 492.925 1106.39 492.616 1107.2 492.424C1108.01 492.211 1108.89 492.104 1109.85 492.104C1111.35 492.104 1112.64 492.339 1113.73 492.808C1114.83 493.277 1115.78 493.928 1116.57 494.76L1114.91 496.328C1114.72 496.093 1114.47 495.859 1114.17 495.624C1113.9 495.368 1113.54 495.144 1113.12 494.952C1112.71 494.739 1112.23 494.568 1111.68 494.44C1111.12 494.312 1110.48 494.248 1109.76 494.248C1108.46 494.248 1107.45 494.472 1106.75 494.92C1106.07 495.368 1105.73 496.019 1105.73 496.872C1105.73 497.299 1105.8 497.661 1105.95 497.96C1106.12 498.237 1106.34 498.461 1106.62 498.632C1106.9 498.803 1107.21 498.941 1107.55 499.048C1107.91 499.133 1108.27 499.208 1108.64 499.272L1111.23 499.656C1111.83 499.741 1112.46 499.859 1113.12 500.008C1113.78 500.157 1114.39 500.403 1114.94 500.744C1115.5 501.064 1115.95 501.501 1116.32 502.056C1116.7 502.611 1116.89 503.336 1116.89 504.232C1116.89 505.875 1116.25 507.144 1114.97 508.04C1113.71 508.936 1112.03 509.384 1109.92 509.384ZM1129.2 509.384C1128.01 509.384 1126.93 509.181 1125.97 508.776C1125.03 508.371 1124.22 507.795 1123.54 507.048C1122.88 506.28 1122.36 505.373 1122 504.328C1121.64 503.261 1121.46 502.077 1121.46 500.776C1121.46 499.453 1121.64 498.259 1122 497.192C1122.38 496.125 1122.91 495.219 1123.57 494.472C1124.23 493.704 1125.02 493.117 1125.94 492.712C1126.88 492.307 1127.91 492.104 1129.04 492.104C1130.15 492.104 1131.15 492.307 1132.05 492.712C1132.97 493.117 1133.74 493.683 1134.38 494.408C1135.02 495.112 1135.52 495.955 1135.86 496.936C1136.2 497.917 1136.37 498.995 1136.37 500.168V501.384H1124.14V502.152C1124.14 502.877 1124.26 503.549 1124.5 504.168C1124.73 504.787 1125.06 505.32 1125.49 505.768C1125.94 506.216 1126.47 506.568 1127.09 506.824C1127.73 507.059 1128.43 507.176 1129.2 507.176C1130.31 507.176 1131.27 506.92 1132.08 506.408C1132.89 505.896 1133.51 505.192 1133.94 504.296L1135.82 505.576C1135.33 506.685 1134.51 507.603 1133.36 508.328C1132.23 509.032 1130.84 509.384 1129.2 509.384ZM1129.04 494.216C1128.34 494.216 1127.69 494.344 1127.09 494.6C1126.49 494.856 1125.97 495.208 1125.52 495.656C1125.09 496.104 1124.75 496.637 1124.5 497.256C1124.26 497.853 1124.14 498.515 1124.14 499.24V499.464H1133.62V499.112C1133.62 498.387 1133.5 497.725 1133.26 497.128C1133.05 496.531 1132.74 496.019 1132.34 495.592C1131.95 495.144 1131.47 494.803 1130.9 494.568C1130.34 494.333 1129.72 494.216 1129.04 494.216ZM1140.96 506.824H1145.8V494.664H1140.96V492.488H1148.36V496.648H1148.52C1148.86 495.347 1149.5 494.333 1150.44 493.608C1151.4 492.861 1152.61 492.488 1154.08 492.488H1156.39V495.048H1153.28C1151.81 495.048 1150.62 495.475 1149.7 496.328C1148.8 497.181 1148.36 498.301 1148.36 499.688V506.824H1154.76V509H1140.96V506.824ZM1165.66 509L1159.74 492.488H1162.33L1164.7 499.4L1167.26 506.856H1167.38L1169.94 499.4L1172.31 492.488H1174.84L1168.92 509H1165.66ZM1186.76 509.384C1185.57 509.384 1184.49 509.181 1183.53 508.776C1182.59 508.371 1181.78 507.795 1181.1 507.048C1180.44 506.28 1179.93 505.373 1179.56 504.328C1179.2 503.261 1179.02 502.077 1179.02 500.776C1179.02 499.453 1179.2 498.259 1179.56 497.192C1179.95 496.125 1180.47 495.219 1181.13 494.472C1181.79 493.704 1182.58 493.117 1183.5 492.712C1184.44 492.307 1185.47 492.104 1186.6 492.104C1187.71 492.104 1188.72 492.307 1189.61 492.712C1190.53 493.117 1191.31 493.683 1191.95 494.408C1192.59 495.112 1193.08 495.955 1193.42 496.936C1193.76 497.917 1193.93 498.995 1193.93 500.168V501.384H1181.71V502.152C1181.71 502.877 1181.82 503.549 1182.06 504.168C1182.29 504.787 1182.62 505.32 1183.05 505.768C1183.5 506.216 1184.03 506.568 1184.65 506.824C1185.29 507.059 1186 507.176 1186.76 507.176C1187.87 507.176 1188.83 506.92 1189.64 506.408C1190.45 505.896 1191.07 505.192 1191.5 504.296L1193.39 505.576C1192.9 506.685 1192.08 507.603 1190.92 508.328C1189.79 509.032 1188.41 509.384 1186.76 509.384ZM1186.6 494.216C1185.9 494.216 1185.25 494.344 1184.65 494.6C1184.05 494.856 1183.53 495.208 1183.08 495.656C1182.66 496.104 1182.32 496.637 1182.06 497.256C1181.82 497.853 1181.71 498.515 1181.71 499.24V499.464H1191.18V499.112C1191.18 498.387 1191.06 497.725 1190.83 497.128C1190.61 496.531 1190.3 496.019 1189.9 495.592C1189.52 495.144 1189.04 494.803 1188.46 494.568C1187.9 494.333 1187.29 494.216 1186.6 494.216ZM1198.53 506.824H1203.36V494.664H1198.53V492.488H1205.92V496.648H1206.08C1206.42 495.347 1207.06 494.333 1208 493.608C1208.96 492.861 1210.17 492.488 1211.65 492.488H1213.95V495.048H1210.85C1209.37 495.048 1208.18 495.475 1207.26 496.328C1206.37 497.181 1205.92 498.301 1205.92 499.688V506.824H1212.32V509H1198.53V506.824ZM1217.81 506.824H1223.57V487.496H1217.81V485.32H1226.13V506.824H1231.89V509H1217.81V506.824ZM1244.33 509.384C1243.13 509.384 1242.05 509.181 1241.09 508.776C1240.15 508.371 1239.34 507.795 1238.66 507.048C1238 506.28 1237.49 505.373 1237.13 504.328C1236.76 503.261 1236.58 502.077 1236.58 500.776C1236.58 499.453 1236.76 498.259 1237.13 497.192C1237.51 496.125 1238.03 495.219 1238.69 494.472C1239.35 493.704 1240.14 493.117 1241.06 492.712C1242 492.307 1243.03 492.104 1244.17 492.104C1245.27 492.104 1246.28 492.307 1247.17 492.712C1248.09 493.117 1248.87 493.683 1249.51 494.408C1250.15 495.112 1250.64 495.955 1250.98 496.936C1251.32 497.917 1251.49 498.995 1251.49 500.168V501.384H1239.27V502.152C1239.27 502.877 1239.39 503.549 1239.62 504.168C1239.86 504.787 1240.19 505.32 1240.61 505.768C1241.06 506.216 1241.59 506.568 1242.21 506.824C1242.85 507.059 1243.56 507.176 1244.33 507.176C1245.43 507.176 1246.39 506.92 1247.21 506.408C1248.02 505.896 1248.63 505.192 1249.06 504.296L1250.95 505.576C1250.46 506.685 1249.64 507.603 1248.49 508.328C1247.35 509.032 1245.97 509.384 1244.33 509.384ZM1244.17 494.216C1243.46 494.216 1242.81 494.344 1242.21 494.6C1241.62 494.856 1241.09 495.208 1240.65 495.656C1240.22 496.104 1239.88 496.637 1239.62 497.256C1239.39 497.853 1239.27 498.515 1239.27 499.24V499.464H1248.74V499.112C1248.74 498.387 1248.62 497.725 1248.39 497.128C1248.18 496.531 1247.87 496.019 1247.46 495.592C1247.08 495.144 1246.6 494.803 1246.02 494.568C1245.47 494.333 1244.85 494.216 1244.17 494.216ZM1263.42 509.384C1261.69 509.384 1260.2 509.096 1258.94 508.52C1257.7 507.923 1256.64 507.133 1255.77 506.152L1257.5 504.648C1258.29 505.48 1259.15 506.12 1260.09 506.568C1261.03 507.016 1262.16 507.24 1263.48 507.24C1264.76 507.24 1265.81 507.016 1266.62 506.568C1267.45 506.099 1267.87 505.373 1267.87 504.392C1267.87 503.965 1267.78 503.613 1267.61 503.336C1267.46 503.037 1267.25 502.803 1266.97 502.632C1266.69 502.461 1266.38 502.333 1266.04 502.248C1265.7 502.141 1265.34 502.056 1264.95 501.992L1262.36 501.608C1261.79 501.523 1261.16 501.405 1260.47 501.256C1259.81 501.107 1259.2 500.872 1258.65 500.552C1258.09 500.211 1257.63 499.763 1257.24 499.208C1256.88 498.653 1256.7 497.928 1256.7 497.032C1256.7 496.2 1256.86 495.485 1257.18 494.888C1257.52 494.269 1257.99 493.757 1258.59 493.352C1259.18 492.925 1259.89 492.616 1260.7 492.424C1261.51 492.211 1262.39 492.104 1263.35 492.104C1264.85 492.104 1266.14 492.339 1267.23 492.808C1268.33 493.277 1269.28 493.928 1270.07 494.76L1268.41 496.328C1268.22 496.093 1267.97 495.859 1267.67 495.624C1267.4 495.368 1267.04 495.144 1266.62 494.952C1266.21 494.739 1265.73 494.568 1265.18 494.44C1264.62 494.312 1263.98 494.248 1263.26 494.248C1261.96 494.248 1260.95 494.472 1260.25 494.92C1259.57 495.368 1259.23 496.019 1259.23 496.872C1259.23 497.299 1259.3 497.661 1259.45 497.96C1259.62 498.237 1259.84 498.461 1260.12 498.632C1260.4 498.803 1260.71 498.941 1261.05 499.048C1261.41 499.133 1261.77 499.208 1262.14 499.272L1264.73 499.656C1265.33 499.741 1265.96 499.859 1266.62 500.008C1267.28 500.157 1267.89 500.403 1268.44 500.744C1269 501.064 1269.45 501.501 1269.82 502.056C1270.2 502.611 1270.39 503.336 1270.39 504.232C1270.39 505.875 1269.75 507.144 1268.47 508.04C1267.21 508.936 1265.53 509.384 1263.42 509.384ZM1282.6 509.384C1280.88 509.384 1279.38 509.096 1278.12 508.52C1276.89 507.923 1275.83 507.133 1274.96 506.152L1276.68 504.648C1277.47 505.48 1278.34 506.12 1279.28 506.568C1280.22 507.016 1281.35 507.24 1282.67 507.24C1283.95 507.24 1284.99 507.016 1285.8 506.568C1286.64 506.099 1287.05 505.373 1287.05 504.392C1287.05 503.965 1286.97 503.613 1286.8 503.336C1286.65 503.037 1286.43 502.803 1286.16 502.632C1285.88 502.461 1285.57 502.333 1285.23 502.248C1284.89 502.141 1284.52 502.056 1284.14 501.992L1281.55 501.608C1280.97 501.523 1280.34 501.405 1279.66 501.256C1279 501.107 1278.39 500.872 1277.84 500.552C1277.28 500.211 1276.81 499.763 1276.43 499.208C1276.07 498.653 1275.88 497.928 1275.88 497.032C1275.88 496.2 1276.04 495.485 1276.36 494.888C1276.71 494.269 1277.18 493.757 1277.77 493.352C1278.37 492.925 1279.07 492.616 1279.88 492.424C1280.7 492.211 1281.58 492.104 1282.54 492.104C1284.03 492.104 1285.32 492.339 1286.41 492.808C1287.52 493.277 1288.47 493.928 1289.26 494.76L1287.6 496.328C1287.4 496.093 1287.16 495.859 1286.86 495.624C1286.58 495.368 1286.23 495.144 1285.8 494.952C1285.4 494.739 1284.92 494.568 1284.36 494.44C1283.81 494.312 1283.17 494.248 1282.44 494.248C1281.14 494.248 1280.14 494.472 1279.44 494.92C1278.75 495.368 1278.41 496.019 1278.41 496.872C1278.41 497.299 1278.49 497.661 1278.64 497.96C1278.81 498.237 1279.03 498.461 1279.31 498.632C1279.59 498.803 1279.9 498.941 1280.24 499.048C1280.6 499.133 1280.96 499.208 1281.32 499.272L1283.92 499.656C1284.51 499.741 1285.14 499.859 1285.8 500.008C1286.47 500.157 1287.07 500.403 1287.63 500.744C1288.18 501.064 1288.64 501.501 1289 502.056C1289.39 502.611 1289.58 503.336 1289.58 504.232C1289.58 505.875 1288.94 507.144 1287.66 508.04C1286.4 508.936 1284.72 509.384 1282.6 509.384ZM1321.36 509.384C1320.17 509.384 1319.1 509.181 1318.16 508.776C1317.25 508.349 1316.47 507.763 1315.83 507.016C1315.19 506.269 1314.7 505.363 1314.36 504.296C1314.04 503.229 1313.88 502.045 1313.88 500.744C1313.88 499.443 1314.05 498.259 1314.39 497.192C1314.73 496.125 1315.22 495.219 1315.86 494.472C1316.5 493.704 1317.28 493.117 1318.2 492.712C1319.11 492.307 1320.16 492.104 1321.33 492.104C1322.93 492.104 1324.23 492.456 1325.24 493.16C1326.24 493.864 1326.97 494.781 1327.44 495.912L1325.4 497C1325.1 496.147 1324.6 495.485 1323.89 495.016C1323.21 494.547 1322.36 494.312 1321.33 494.312C1320.58 494.312 1319.91 494.44 1319.32 494.696C1318.74 494.931 1318.25 495.272 1317.84 495.72C1317.44 496.168 1317.13 496.701 1316.92 497.32C1316.72 497.939 1316.63 498.611 1316.63 499.336V502.152C1316.63 502.877 1316.72 503.549 1316.92 504.168C1317.13 504.787 1317.44 505.32 1317.84 505.768C1318.25 506.216 1318.75 506.568 1319.35 506.824C1319.94 507.059 1320.63 507.176 1321.4 507.176C1322.5 507.176 1323.42 506.92 1324.15 506.408C1324.87 505.896 1325.45 505.192 1325.88 504.296L1327.7 505.544C1327.21 506.653 1326.44 507.571 1325.4 508.296C1324.37 509.021 1323.03 509.384 1321.36 509.384ZM1339.98 509.384C1338.82 509.384 1337.78 509.181 1336.84 508.776C1335.92 508.371 1335.13 507.795 1334.47 507.048C1333.83 506.28 1333.34 505.373 1333 504.328C1332.66 503.261 1332.49 502.067 1332.49 500.744C1332.49 499.443 1332.66 498.259 1333 497.192C1333.34 496.125 1333.83 495.219 1334.47 494.472C1335.13 493.704 1335.92 493.117 1336.84 492.712C1337.78 492.307 1338.82 492.104 1339.98 492.104C1341.13 492.104 1342.16 492.307 1343.08 492.712C1344.02 493.117 1344.81 493.704 1345.45 494.472C1346.11 495.219 1346.61 496.125 1346.95 497.192C1347.29 498.259 1347.46 499.443 1347.46 500.744C1347.46 502.067 1347.29 503.261 1346.95 504.328C1346.61 505.373 1346.11 506.28 1345.45 507.048C1344.81 507.795 1344.02 508.371 1343.08 508.776C1342.16 509.181 1341.13 509.384 1339.98 509.384ZM1339.98 507.176C1341.4 507.176 1342.56 506.749 1343.43 505.896C1344.31 505.043 1344.74 503.72 1344.74 501.928V499.56C1344.74 497.768 1344.31 496.445 1343.43 495.592C1342.56 494.739 1341.4 494.312 1339.98 494.312C1338.55 494.312 1337.39 494.739 1336.52 495.592C1335.64 496.445 1335.21 497.768 1335.21 499.56V501.928C1335.21 503.72 1335.64 505.043 1336.52 505.896C1337.39 506.749 1338.55 507.176 1339.98 507.176ZM1363.16 506.312H1363.03C1361.97 508.36 1360.27 509.384 1357.95 509.384C1355.92 509.384 1354.33 508.627 1353.18 507.112C1352.05 505.597 1351.48 503.475 1351.48 500.744C1351.48 498.013 1352.05 495.891 1353.18 494.376C1354.33 492.861 1355.92 492.104 1357.95 492.104C1360.27 492.104 1361.97 493.128 1363.03 495.176H1363.16V485.32H1365.72V509H1363.16V506.312ZM1358.94 507.112C1359.51 507.112 1360.06 507.037 1360.57 506.888C1361.08 506.739 1361.53 506.525 1361.91 506.248C1362.3 505.949 1362.6 505.597 1362.81 505.192C1363.05 504.765 1363.16 504.275 1363.16 503.72V497.768C1363.16 497.213 1363.05 496.733 1362.81 496.328C1362.6 495.901 1362.3 495.549 1361.91 495.272C1361.53 494.973 1361.08 494.749 1360.57 494.6C1360.06 494.451 1359.51 494.376 1358.94 494.376C1357.45 494.376 1356.28 494.835 1355.45 495.752C1354.64 496.648 1354.23 497.843 1354.23 499.336V502.152C1354.23 503.645 1354.64 504.851 1355.45 505.768C1356.28 506.664 1357.45 507.112 1358.94 507.112ZM1378.64 509.384C1377.44 509.384 1376.37 509.181 1375.41 508.776C1374.47 508.371 1373.66 507.795 1372.97 507.048C1372.31 506.28 1371.8 505.373 1371.44 504.328C1371.08 503.261 1370.89 502.077 1370.89 500.776C1370.89 499.453 1371.08 498.259 1371.44 497.192C1371.82 496.125 1372.34 495.219 1373.01 494.472C1373.67 493.704 1374.46 493.117 1375.37 492.712C1376.31 492.307 1377.35 492.104 1378.48 492.104C1379.59 492.104 1380.59 492.307 1381.49 492.712C1382.4 493.117 1383.18 493.683 1383.82 494.408C1384.46 495.112 1384.95 495.955 1385.29 496.936C1385.64 497.917 1385.81 498.995 1385.81 500.168V501.384H1373.58V502.152C1373.58 502.877 1373.7 503.549 1373.93 504.168C1374.17 504.787 1374.5 505.32 1374.93 505.768C1375.37 506.216 1375.91 506.568 1376.53 506.824C1377.17 507.059 1377.87 507.176 1378.64 507.176C1379.75 507.176 1380.71 506.92 1381.52 506.408C1382.33 505.896 1382.95 505.192 1383.37 504.296L1385.26 505.576C1384.77 506.685 1383.95 507.603 1382.8 508.328C1381.67 509.032 1380.28 509.384 1378.64 509.384ZM1378.48 494.216C1377.77 494.216 1377.12 494.344 1376.53 494.6C1375.93 494.856 1375.41 495.208 1374.96 495.656C1374.53 496.104 1374.19 496.637 1373.93 497.256C1373.7 497.853 1373.58 498.515 1373.58 499.24V499.464H1383.05V499.112C1383.05 498.387 1382.94 497.725 1382.7 497.128C1382.49 496.531 1382.18 496.019 1381.77 495.592C1381.39 495.144 1380.91 494.803 1380.33 494.568C1379.78 494.333 1379.16 494.216 1378.48 494.216Z" fill="black"/>
<rect x="473" y="781" width="283" height="141" fill="#3DF339" fill-opacity="0.4"/>
<rect x="473" y="462" width="283" height="141" fill="#5F53E3" fill-opacity="0.4"/>
<rect x="1156" y="781" width="361" height="141" fill="#ECA232"/>
<rect x="473" y="321" width="283" height="141" fill="#5F53E3" fill-opacity="0.15"/>
<path d="M575.648 869L573.008 835.496H576.608L578 854.696L578.72 864.824H579.104L583.52 844.232H588.032L592.448 864.824H592.832L593.552 854.696L594.944 835.496H598.448L595.808 869H590L585.92 848.984H585.536L581.456 869H575.648ZM614.941 869.576C613.149 869.576 611.533 869.272 610.093 868.664C608.685 868.056 607.469 867.192 606.445 866.072C605.453 864.92 604.685 863.56 604.141 861.992C603.597 860.392 603.325 858.616 603.325 856.664C603.325 854.68 603.597 852.888 604.141 851.288C604.717 849.688 605.501 848.328 606.493 847.208C607.485 846.056 608.669 845.176 610.045 844.568C611.453 843.96 613.005 843.656 614.701 843.656C616.365 843.656 617.869 843.96 619.213 844.568C620.589 845.176 621.757 846.024 622.717 847.112C623.677 848.168 624.413 849.432 624.925 850.904C625.437 852.376 625.693 853.992 625.693 855.752V857.576H607.357V858.728C607.357 859.816 607.533 860.824 607.885 861.752C608.237 862.68 608.733 863.48 609.373 864.152C610.045 864.824 610.845 865.352 611.773 865.736C612.733 866.088 613.789 866.264 614.941 866.264C616.605 866.264 618.045 865.88 619.261 865.112C620.477 864.344 621.405 863.288 622.045 861.944L624.877 863.864C624.141 865.528 622.909 866.904 621.181 867.992C619.485 869.048 617.405 869.576 614.941 869.576ZM614.701 846.824C613.645 846.824 612.669 847.016 611.773 847.4C610.877 847.784 610.093 848.312 609.421 848.984C608.781 849.656 608.269 850.456 607.885 851.384C607.533 852.28 607.357 853.272 607.357 854.36V854.696H621.565V854.168C621.565 853.08 621.389 852.088 621.037 851.192C620.717 850.296 620.253 849.528 619.645 848.888C619.069 848.216 618.349 847.704 617.485 847.352C616.653 847 615.725 846.824 614.701 846.824ZM633.451 833.48H637.291V848.264H637.483C639.083 845.192 641.627 843.656 645.115 843.656C648.155 843.656 650.523 844.792 652.219 847.064C653.947 849.336 654.811 852.52 654.811 856.616C654.811 860.712 653.947 863.896 652.219 866.168C650.523 868.44 648.155 869.576 645.115 869.576C641.627 869.576 639.083 868.04 637.483 864.968H637.291V869H633.451V833.48ZM643.627 866.168C645.867 866.168 647.595 865.496 648.811 864.152C650.059 862.776 650.683 860.968 650.683 858.728V854.504C650.683 852.264 650.059 850.472 648.811 849.128C647.595 847.752 645.867 847.064 643.627 847.064C642.763 847.064 641.947 847.176 641.179 847.4C640.411 847.624 639.739 847.96 639.163 848.408C638.587 848.824 638.123 849.352 637.771 849.992C637.451 850.6 637.291 851.32 637.291 852.152V861.08C637.291 861.912 637.451 862.648 637.771 863.288C638.123 863.896 638.587 864.424 639.163 864.872C639.739 865.288 640.411 865.608 641.179 865.832C641.947 866.056 642.763 866.168 643.627 866.168Z" fill="black"/>
<path d="M43.5896 223.632H43.2536V252H39.6056V218.496H45.3176L56.7416 246.576H57.0776V218.496H60.7256V252H55.0136L43.5896 223.632ZM79.3789 252.576C77.5869 252.576 75.9709 252.272 74.5309 251.664C73.1229 251.056 71.9069 250.192 70.8829 249.072C69.8909 247.92 69.1229 246.56 68.5789 244.992C68.0349 243.392 67.7629 241.616 67.7629 239.664C67.7629 237.68 68.0349 235.888 68.5789 234.288C69.1549 232.688 69.9389 231.328 70.9309 230.208C71.9229 229.056 73.1069 228.176 74.4829 227.568C75.8909 226.96 77.4429 226.656 79.1389 226.656C80.8029 226.656 82.3069 226.96 83.6509 227.568C85.0269 228.176 86.1949 229.024 87.1549 230.112C88.1149 231.168 88.8509 232.432 89.3629 233.904C89.8749 235.376 90.1309 236.992 90.1309 238.752V240.576H71.7949V241.728C71.7949 242.816 71.9709 243.824 72.3229 244.752C72.6749 245.68 73.1709 246.48 73.8109 247.152C74.4829 247.824 75.2829 248.352 76.2109 248.736C77.1709 249.088 78.2269 249.264 79.3789 249.264C81.0429 249.264 82.4829 248.88 83.6989 248.112C84.9149 247.344 85.8429 246.288 86.4829 244.944L89.3149 246.864C88.5789 248.528 87.3469 249.904 85.6189 250.992C83.9229 252.048 81.8429 252.576 79.3789 252.576ZM79.1389 229.824C78.0829 229.824 77.1069 230.016 76.2109 230.4C75.3149 230.784 74.5309 231.312 73.8589 231.984C73.2189 232.656 72.7069 233.456 72.3229 234.384C71.9709 235.28 71.7949 236.272 71.7949 237.36V237.696H86.0029V237.168C86.0029 236.08 85.8269 235.088 85.4749 234.192C85.1549 233.296 84.6909 232.528 84.0829 231.888C83.5069 231.216 82.7869 230.704 81.9229 230.352C81.0909 230 80.1629 229.824 79.1389 229.824ZM108.928 252C107.04 252 105.648 251.472 104.752 250.416C103.888 249.36 103.456 248 103.456 246.336V230.496H95.2001V227.232H101.344C102.176 227.232 102.752 227.072 103.072 226.752C103.424 226.4 103.6 225.808 103.6 224.976V218.496H107.296V227.232H118.576V230.496H107.296V248.736H118.576V252H108.928ZM125.949 248.736H134.589V219.744H125.949V216.48H138.429V248.736H147.069V252H125.949V248.736ZM166.827 221.76C165.707 221.76 164.923 221.536 164.475 221.088C164.027 220.608 163.803 220.016 163.803 219.312V218.544C163.803 217.84 164.027 217.264 164.475 216.816C164.923 216.336 165.707 216.096 166.827 216.096C167.947 216.096 168.731 216.336 169.179 216.816C169.627 217.264 169.851 217.84 169.851 218.544V219.312C169.851 220.016 169.627 220.608 169.179 221.088C168.731 221.536 167.947 221.76 166.827 221.76ZM155.979 248.736H164.907V230.496H155.979V227.232H168.747V248.736H177.099V252H155.979V248.736ZM183.656 248.736H192.008V230.496H183.176V227.232H192.008V222.144C192.008 220.48 192.44 219.12 193.304 218.064C194.2 217.008 195.592 216.48 197.48 216.48H205.784V219.744H195.848V227.232H205.784V230.496H195.848V248.736H204.68V252H183.656V248.736ZM230.869 227.232H234.709L222.421 257.424C222.133 258.128 221.813 258.736 221.461 259.248C221.109 259.792 220.693 260.224 220.213 260.544C219.733 260.896 219.157 261.152 218.485 261.312C217.813 261.504 217.013 261.6 216.085 261.6H212.437V258.336H218.197L220.981 251.52L210.997 227.232H214.933L219.109 237.6L222.805 247.008H222.997L226.693 237.6L230.869 227.232Z" fill="black"/>
<path d="M547.468 545.536H547.228C546.94 546.176 546.604 546.8 546.22 547.408C545.836 548.016 545.34 548.56 544.732 549.04C544.156 549.488 543.452 549.856 542.62 550.144C541.788 550.432 540.796 550.576 539.644 550.576C535.996 550.576 533.276 549.104 531.484 546.16C529.724 543.216 528.844 538.992 528.844 533.488C528.844 527.728 529.82 523.36 531.772 520.384C533.724 517.408 536.732 515.92 540.796 515.92C542.364 515.92 543.724 516.128 544.876 516.544C546.028 516.96 547.004 517.52 547.804 518.224C548.636 518.928 549.324 519.728 549.868 520.624C550.412 521.488 550.86 522.368 551.212 523.264L547.756 524.848C547.468 524.112 547.132 523.424 546.748 522.784C546.396 522.112 545.948 521.536 545.404 521.056C544.892 520.544 544.268 520.144 543.532 519.856C542.796 519.568 541.932 519.424 540.94 519.424C538.252 519.424 536.268 520.432 534.988 522.448C533.74 524.464 533.116 527.152 533.116 530.512V535.696C533.116 537.392 533.244 538.944 533.5 540.352C533.756 541.728 534.172 542.928 534.748 543.952C535.356 544.976 536.124 545.776 537.052 546.352C538.012 546.896 539.18 547.168 540.556 547.168C542.732 547.168 544.428 546.512 545.644 545.2C546.86 543.888 547.468 542.192 547.468 540.112V536.656H540.412V533.44H551.212V550H547.468V545.536ZM578.698 550C577.194 550 576.122 549.616 575.482 548.848C574.842 548.08 574.442 547.12 574.282 545.968H574.042C573.498 547.408 572.618 548.544 571.402 549.376C570.218 550.176 568.618 550.576 566.602 550.576C564.01 550.576 561.946 549.904 560.41 548.56C558.874 547.216 558.105 545.376 558.105 543.04C558.105 540.736 558.938 538.96 560.602 537.712C562.298 536.464 565.018 535.84 568.762 535.84H574.042V533.392C574.042 531.568 573.53 530.208 572.506 529.312C571.482 528.384 570.026 527.92 568.138 527.92C566.474 527.92 565.114 528.256 564.058 528.928C563.002 529.568 562.154 530.448 561.514 531.568L558.922 529.648C559.242 529.008 559.674 528.384 560.218 527.776C560.762 527.168 561.434 526.64 562.234 526.192C563.034 525.712 563.946 525.344 564.97 525.088C565.994 524.8 567.13 524.656 568.378 524.656C571.29 524.656 573.594 525.392 575.29 526.864C577.018 528.336 577.882 530.384 577.882 533.008V546.64H581.338V550H578.698ZM567.273 547.36C568.266 547.36 569.162 547.248 569.962 547.024C570.794 546.768 571.514 546.448 572.122 546.064C572.73 545.648 573.194 545.168 573.514 544.624C573.866 544.048 574.042 543.44 574.042 542.8V538.72H568.762C566.458 538.72 564.778 539.04 563.722 539.68C562.666 540.32 562.138 541.248 562.138 542.464V543.472C562.138 544.752 562.586 545.728 563.482 546.4C564.41 547.04 565.674 547.36 567.273 547.36ZM599.319 550C597.431 550 596.039 549.472 595.143 548.416C594.279 547.36 593.847 546 593.847 544.336V528.496H585.591V525.232H591.735C592.567 525.232 593.143 525.072 593.463 524.752C593.815 524.4 593.991 523.808 593.991 522.976V516.496H597.687V525.232H608.967V528.496H597.687V546.736H608.967V550H599.319ZM627.188 550.576C624.596 550.576 622.356 550.144 620.468 549.28C618.612 548.384 617.028 547.2 615.716 545.728L618.308 543.472C619.492 544.72 620.788 545.68 622.196 546.352C623.604 547.024 625.3 547.36 627.284 547.36C629.204 547.36 630.772 547.024 631.988 546.352C633.236 545.648 633.86 544.56 633.86 543.088C633.86 542.448 633.732 541.92 633.476 541.504C633.252 541.056 632.932 540.704 632.516 540.448C632.1 540.192 631.636 540 631.124 539.872C630.612 539.712 630.068 539.584 629.492 539.488L625.604 538.912C624.74 538.784 623.796 538.608 622.772 538.384C621.78 538.16 620.868 537.808 620.036 537.328C619.204 536.816 618.5 536.144 617.924 535.312C617.38 534.48 617.108 533.392 617.108 532.048C617.108 530.8 617.348 529.728 617.828 528.832C618.34 527.904 619.044 527.136 619.94 526.528C620.836 525.888 621.892 525.424 623.108 525.136C624.324 524.816 625.652 524.656 627.092 524.656C629.332 524.656 631.268 525.008 632.9 525.712C634.564 526.416 635.988 527.392 637.172 528.64L634.676 530.992C634.388 530.64 634.02 530.288 633.572 529.936C633.156 529.552 632.628 529.216 631.988 528.928C631.38 528.608 630.66 528.352 629.828 528.16C628.996 527.968 628.036 527.872 626.948 527.872C624.996 527.872 623.492 528.208 622.436 528.88C621.412 529.552 620.9 530.528 620.9 531.808C620.9 532.448 621.012 532.992 621.236 533.44C621.492 533.856 621.828 534.192 622.244 534.448C622.66 534.704 623.124 534.912 623.636 535.072C624.18 535.2 624.724 535.312 625.268 535.408L629.156 535.984C630.052 536.112 630.996 536.288 631.988 536.512C632.98 536.736 633.892 537.104 634.724 537.616C635.556 538.096 636.244 538.752 636.788 539.584C637.364 540.416 637.652 541.504 637.652 542.848C637.652 545.312 636.692 547.216 634.772 548.56C632.884 549.904 630.356 550.576 627.188 550.576ZM645.841 514.48H649.681V529.264H649.873C651.473 526.192 654.017 524.656 657.505 524.656C660.545 524.656 662.913 525.792 664.609 528.064C666.337 530.336 667.201 533.52 667.201 537.616C667.201 541.712 666.337 544.896 664.609 547.168C662.913 549.44 660.545 550.576 657.505 550.576C654.017 550.576 651.473 549.04 649.873 545.968H649.681V550H645.841V514.48ZM656.017 547.168C658.257 547.168 659.985 546.496 661.201 545.152C662.449 543.776 663.073 541.968 663.073 539.728V535.504C663.073 533.264 662.449 531.472 661.201 530.128C659.985 528.752 658.257 528.064 656.017 528.064C655.153 528.064 654.337 528.176 653.569 528.4C652.801 528.624 652.129 528.96 651.553 529.408C650.977 529.824 650.513 530.352 650.161 530.992C649.841 531.6 649.681 532.32 649.681 533.152V542.08C649.681 542.912 649.841 543.648 650.161 544.288C650.513 544.896 650.977 545.424 651.553 545.872C652.129 546.288 652.801 546.608 653.569 546.832C654.337 547.056 655.153 547.168 656.017 547.168ZM692.479 525.232H696.319L684.031 555.424C683.743 556.128 683.423 556.736 683.071 557.248C682.719 557.792 682.303 558.224 681.823 558.544C681.343 558.896 680.767 559.152 680.095 559.312C679.423 559.504 678.623 559.6 677.695 559.6H674.047V556.336H679.807L682.591 549.52L672.607 525.232H676.543L680.719 535.6L684.415 545.008H684.607L688.303 535.6L692.479 525.232Z" fill="black"/>
<path d="M1206.9 869.576C1203.89 869.576 1201.43 869.032 1199.51 867.944C1197.59 866.824 1196 865.4 1194.75 863.672L1197.68 861.272C1198.99 862.904 1200.37 864.12 1201.81 864.92C1203.28 865.72 1205.03 866.12 1207.04 866.12C1209.47 866.12 1211.33 865.56 1212.61 864.44C1213.89 863.32 1214.53 861.752 1214.53 859.736C1214.53 858.104 1214.07 856.84 1213.14 855.944C1212.21 855.016 1210.59 854.36 1208.29 853.976L1204.55 853.352C1202.91 853.064 1201.54 852.632 1200.42 852.056C1199.33 851.48 1198.45 850.792 1197.78 849.992C1197.11 849.16 1196.63 848.264 1196.34 847.304C1196.05 846.312 1195.91 845.288 1195.91 844.232C1195.91 841.16 1196.91 838.84 1198.93 837.272C1200.95 835.704 1203.67 834.92 1207.09 834.92C1209.78 834.92 1212.03 835.368 1213.86 836.264C1215.71 837.16 1217.2 838.424 1218.32 840.056L1215.49 842.504C1214.56 841.288 1213.44 840.296 1212.13 839.528C1210.82 838.76 1209.12 838.376 1207.04 838.376C1204.77 838.376 1203.03 838.856 1201.81 839.816C1200.59 840.776 1199.99 842.216 1199.99 844.136C1199.99 845.64 1200.43 846.872 1201.33 847.832C1202.26 848.76 1203.91 849.432 1206.27 849.848L1209.87 850.472C1211.51 850.76 1212.88 851.192 1214 851.768C1215.12 852.344 1216.02 853.032 1216.69 853.832C1217.39 854.632 1217.89 855.528 1218.18 856.52C1218.47 857.512 1218.61 858.552 1218.61 859.64C1218.61 862.744 1217.59 865.176 1215.54 866.936C1213.52 868.696 1210.64 869.576 1206.9 869.576ZM1236.21 869.576C1234.42 869.576 1232.8 869.272 1231.36 868.664C1229.95 868.056 1228.74 867.192 1227.71 866.072C1226.72 864.92 1225.95 863.56 1225.41 861.992C1224.86 860.392 1224.59 858.616 1224.59 856.664C1224.59 854.68 1224.86 852.888 1225.41 851.288C1225.98 849.688 1226.77 848.328 1227.76 847.208C1228.75 846.056 1229.94 845.176 1231.31 844.568C1232.72 843.96 1234.27 843.656 1235.97 843.656C1237.63 843.656 1239.14 843.96 1240.48 844.568C1241.86 845.176 1243.02 846.024 1243.98 847.112C1244.94 848.168 1245.68 849.432 1246.19 850.904C1246.7 852.376 1246.96 853.992 1246.96 855.752V857.576H1228.62V858.728C1228.62 859.816 1228.8 860.824 1229.15 861.752C1229.5 862.68 1230 863.48 1230.64 864.152C1231.31 864.824 1232.11 865.352 1233.04 865.736C1234 866.088 1235.06 866.264 1236.21 866.264C1237.87 866.264 1239.31 865.88 1240.53 865.112C1241.74 864.344 1242.67 863.288 1243.31 861.944L1246.14 863.864C1245.41 865.528 1244.18 866.904 1242.45 867.992C1240.75 869.048 1238.67 869.576 1236.21 869.576ZM1235.97 846.824C1234.91 846.824 1233.94 847.016 1233.04 847.4C1232.14 847.784 1231.36 848.312 1230.69 848.984C1230.05 849.656 1229.54 850.456 1229.15 851.384C1228.8 852.28 1228.62 853.272 1228.62 854.36V854.696H1242.83V854.168C1242.83 853.08 1242.66 852.088 1242.3 851.192C1241.98 850.296 1241.52 849.528 1240.91 848.888C1240.34 848.216 1239.62 847.704 1238.75 847.352C1237.92 847 1236.99 846.824 1235.97 846.824ZM1253.85 865.736H1261.1V847.496H1253.85V844.232H1264.94V850.472H1265.18C1265.69 848.52 1266.65 847 1268.06 845.912C1269.5 844.792 1271.32 844.232 1273.53 844.232H1276.99V848.072H1272.33C1270.12 848.072 1268.33 848.712 1266.96 849.992C1265.61 851.272 1264.94 852.952 1264.94 855.032V865.736H1274.54V869H1253.85V865.736ZM1290.89 869L1282.01 844.232H1285.9L1289.45 854.6L1293.29 865.784H1293.48L1297.32 854.6L1300.87 844.232H1304.67L1295.79 869H1290.89ZM1322.55 869.576C1320.76 869.576 1319.14 869.272 1317.7 868.664C1316.29 868.056 1315.08 867.192 1314.05 866.072C1313.06 864.92 1312.29 863.56 1311.75 861.992C1311.21 860.392 1310.93 858.616 1310.93 856.664C1310.93 854.68 1311.21 852.888 1311.75 851.288C1312.33 849.688 1313.11 848.328 1314.1 847.208C1315.09 846.056 1316.28 845.176 1317.65 844.568C1319.06 843.96 1320.61 843.656 1322.31 843.656C1323.97 843.656 1325.48 843.96 1326.82 844.568C1328.2 845.176 1329.37 846.024 1330.33 847.112C1331.29 848.168 1332.02 849.432 1332.53 850.904C1333.05 852.376 1333.3 853.992 1333.3 855.752V857.576H1314.97V858.728C1314.97 859.816 1315.14 860.824 1315.49 861.752C1315.85 862.68 1316.34 863.48 1316.98 864.152C1317.65 864.824 1318.45 865.352 1319.38 865.736C1320.34 866.088 1321.4 866.264 1322.55 866.264C1324.21 866.264 1325.65 865.88 1326.87 865.112C1328.09 864.344 1329.01 863.288 1329.65 861.944L1332.49 863.864C1331.75 865.528 1330.52 866.904 1328.79 867.992C1327.09 869.048 1325.01 869.576 1322.55 869.576ZM1322.31 846.824C1321.25 846.824 1320.28 847.016 1319.38 847.4C1318.49 847.784 1317.7 848.312 1317.03 848.984C1316.39 849.656 1315.88 850.456 1315.49 851.384C1315.14 852.28 1314.97 853.272 1314.97 854.36V854.696H1329.17V854.168C1329.17 853.08 1329 852.088 1328.65 851.192C1328.33 850.296 1327.86 849.528 1327.25 848.888C1326.68 848.216 1325.96 847.704 1325.09 847.352C1324.26 847 1323.33 846.824 1322.31 846.824ZM1340.2 865.736H1347.44V847.496H1340.2V844.232H1351.28V850.472H1351.52C1352.04 848.52 1353 847 1354.4 845.912C1355.84 844.792 1357.67 844.232 1359.88 844.232H1363.33V848.072H1358.68C1356.47 848.072 1354.68 848.712 1353.3 849.992C1351.96 851.272 1351.28 852.952 1351.28 855.032V865.736H1360.88V869H1340.2V865.736ZM1369.12 865.736H1377.76V836.744H1369.12V833.48H1381.6V865.736H1390.24V869H1369.12V865.736ZM1408.89 869.576C1407.1 869.576 1405.49 869.272 1404.05 868.664C1402.64 868.056 1401.42 867.192 1400.4 866.072C1399.41 864.92 1398.64 863.56 1398.09 861.992C1397.55 860.392 1397.28 858.616 1397.28 856.664C1397.28 854.68 1397.55 852.888 1398.09 851.288C1398.67 849.688 1399.45 848.328 1400.45 847.208C1401.44 846.056 1402.62 845.176 1404 844.568C1405.41 843.96 1406.96 843.656 1408.65 843.656C1410.32 843.656 1411.82 843.96 1413.17 844.568C1414.54 845.176 1415.71 846.024 1416.67 847.112C1417.63 848.168 1418.37 849.432 1418.88 850.904C1419.39 852.376 1419.65 853.992 1419.65 855.752V857.576H1401.31V858.728C1401.31 859.816 1401.49 860.824 1401.84 861.752C1402.19 862.68 1402.69 863.48 1403.33 864.152C1404 864.824 1404.8 865.352 1405.73 865.736C1406.69 866.088 1407.74 866.264 1408.89 866.264C1410.56 866.264 1412 865.88 1413.21 865.112C1414.43 864.344 1415.36 863.288 1416 861.944L1418.83 863.864C1418.09 865.528 1416.86 866.904 1415.13 867.992C1413.44 869.048 1411.36 869.576 1408.89 869.576ZM1408.65 846.824C1407.6 846.824 1406.62 847.016 1405.73 847.4C1404.83 847.784 1404.05 848.312 1403.37 848.984C1402.73 849.656 1402.22 850.456 1401.84 851.384C1401.49 852.28 1401.31 853.272 1401.31 854.36V854.696H1415.52V854.168C1415.52 853.08 1415.34 852.088 1414.99 851.192C1414.67 850.296 1414.21 849.528 1413.6 848.888C1413.02 848.216 1412.3 847.704 1411.44 847.352C1410.61 847 1409.68 846.824 1408.65 846.824ZM1437.53 869.576C1434.94 869.576 1432.7 869.144 1430.81 868.28C1428.96 867.384 1427.37 866.2 1426.06 864.728L1428.65 862.472C1429.84 863.72 1431.13 864.68 1432.54 865.352C1433.95 866.024 1435.64 866.36 1437.63 866.36C1439.55 866.36 1441.12 866.024 1442.33 865.352C1443.58 864.648 1444.2 863.56 1444.2 862.088C1444.2 861.448 1444.08 860.92 1443.82 860.504C1443.6 860.056 1443.28 859.704 1442.86 859.448C1442.44 859.192 1441.98 859 1441.47 858.872C1440.96 858.712 1440.41 858.584 1439.84 858.488L1435.95 857.912C1435.08 857.784 1434.14 857.608 1433.12 857.384C1432.12 857.16 1431.21 856.808 1430.38 856.328C1429.55 855.816 1428.84 855.144 1428.27 854.312C1427.72 853.48 1427.45 852.392 1427.45 851.048C1427.45 849.8 1427.69 848.728 1428.17 847.832C1428.68 846.904 1429.39 846.136 1430.28 845.528C1431.18 844.888 1432.24 844.424 1433.45 844.136C1434.67 843.816 1436 843.656 1437.44 843.656C1439.68 843.656 1441.61 844.008 1443.24 844.712C1444.91 845.416 1446.33 846.392 1447.52 847.64L1445.02 849.992C1444.73 849.64 1444.36 849.288 1443.92 848.936C1443.5 848.552 1442.97 848.216 1442.33 847.928C1441.72 847.608 1441 847.352 1440.17 847.16C1439.34 846.968 1438.38 846.872 1437.29 846.872C1435.34 846.872 1433.84 847.208 1432.78 847.88C1431.76 848.552 1431.24 849.528 1431.24 850.808C1431.24 851.448 1431.36 851.992 1431.58 852.44C1431.84 852.856 1432.17 853.192 1432.59 853.448C1433 853.704 1433.47 853.912 1433.98 854.072C1434.52 854.2 1435.07 854.312 1435.61 854.408L1439.5 854.984C1440.4 855.112 1441.34 855.288 1442.33 855.512C1443.32 855.736 1444.24 856.104 1445.07 856.616C1445.9 857.096 1446.59 857.752 1447.13 858.584C1447.71 859.416 1448 860.504 1448 861.848C1448 864.312 1447.04 866.216 1445.12 867.56C1443.23 868.904 1440.7 869.576 1437.53 869.576ZM1466.31 869.576C1463.72 869.576 1461.48 869.144 1459.59 868.28C1457.74 867.384 1456.15 866.2 1454.84 864.728L1457.43 862.472C1458.62 863.72 1459.91 864.68 1461.32 865.352C1462.73 866.024 1464.43 866.36 1466.41 866.36C1468.33 866.36 1469.9 866.024 1471.11 865.352C1472.36 864.648 1472.99 863.56 1472.99 862.088C1472.99 861.448 1472.86 860.92 1472.6 860.504C1472.38 860.056 1472.06 859.704 1471.64 859.448C1471.23 859.192 1470.76 859 1470.25 858.872C1469.74 858.712 1469.19 858.584 1468.62 858.488L1464.73 857.912C1463.87 857.784 1462.92 857.608 1461.9 857.384C1460.91 857.16 1459.99 856.808 1459.16 856.328C1458.33 855.816 1457.63 855.144 1457.05 854.312C1456.51 853.48 1456.23 852.392 1456.23 851.048C1456.23 849.8 1456.47 848.728 1456.95 847.832C1457.47 846.904 1458.17 846.136 1459.07 845.528C1459.96 844.888 1461.02 844.424 1462.23 844.136C1463.45 843.816 1464.78 843.656 1466.22 843.656C1468.46 843.656 1470.39 844.008 1472.03 844.712C1473.69 845.416 1475.11 846.392 1476.3 847.64L1473.8 849.992C1473.51 849.64 1473.15 849.288 1472.7 848.936C1472.28 848.552 1471.75 848.216 1471.11 847.928C1470.51 847.608 1469.79 847.352 1468.95 847.16C1468.12 846.968 1467.16 846.872 1466.07 846.872C1464.12 846.872 1462.62 847.208 1461.56 847.88C1460.54 848.552 1460.03 849.528 1460.03 850.808C1460.03 851.448 1460.14 851.992 1460.36 852.44C1460.62 852.856 1460.95 853.192 1461.37 853.448C1461.79 853.704 1462.25 853.912 1462.76 854.072C1463.31 854.2 1463.85 854.312 1464.39 854.408L1468.28 854.984C1469.18 855.112 1470.12 855.288 1471.11 855.512C1472.11 855.736 1473.02 856.104 1473.85 856.616C1474.68 857.096 1475.37 857.752 1475.91 858.584C1476.49 859.416 1476.78 860.504 1476.78 861.848C1476.78 864.312 1475.82 866.216 1473.9 867.56C1472.01 868.904 1469.48 869.576 1466.31 869.576Z" fill="black"/>
<path d="M550.899 408H546.867V374.496H559.059C562.163 374.496 564.531 375.344 566.163 377.04C567.795 378.736 568.611 381.104 568.611 384.144C568.611 386.864 567.907 389.04 566.499 390.672C565.091 392.304 563.043 393.248 560.355 393.504L568.899 408H564.387L556.227 393.696H550.899V408ZM558.963 390.288C560.659 390.288 561.971 389.872 562.899 389.04C563.859 388.176 564.339 386.96 564.339 385.392V382.896C564.339 381.328 563.859 380.128 562.899 379.296C561.971 378.432 560.659 378 558.963 378H550.899V390.288H558.963ZM586.16 408.576C584.368 408.576 582.752 408.272 581.312 407.664C579.904 407.056 578.688 406.192 577.664 405.072C576.672 403.92 575.904 402.56 575.36 400.992C574.816 399.392 574.544 397.616 574.544 395.664C574.544 393.68 574.816 391.888 575.36 390.288C575.936 388.688 576.72 387.328 577.712 386.208C578.704 385.056 579.888 384.176 581.264 383.568C582.672 382.96 584.224 382.656 585.92 382.656C587.584 382.656 589.088 382.96 590.432 383.568C591.808 384.176 592.976 385.024 593.936 386.112C594.896 387.168 595.632 388.432 596.144 389.904C596.656 391.376 596.912 392.992 596.912 394.752V396.576H578.576V397.728C578.576 398.816 578.752 399.824 579.104 400.752C579.456 401.68 579.952 402.48 580.592 403.152C581.264 403.824 582.064 404.352 582.992 404.736C583.952 405.088 585.008 405.264 586.16 405.264C587.824 405.264 589.264 404.88 590.48 404.112C591.696 403.344 592.624 402.288 593.264 400.944L596.096 402.864C595.36 404.528 594.128 405.904 592.4 406.992C590.704 408.048 588.624 408.576 586.16 408.576ZM585.92 385.824C584.864 385.824 583.888 386.016 582.992 386.4C582.096 386.784 581.312 387.312 580.64 387.984C580 388.656 579.488 389.456 579.104 390.384C578.752 391.28 578.576 392.272 578.576 393.36V393.696H592.784V393.168C592.784 392.08 592.608 391.088 592.256 390.192C591.936 389.296 591.472 388.528 590.864 387.888C590.288 387.216 589.568 386.704 588.704 386.352C587.872 386 586.944 385.824 585.92 385.824ZM623.869 408C622.365 408 621.293 407.616 620.653 406.848C620.013 406.08 619.613 405.12 619.453 403.968H619.213C618.669 405.408 617.789 406.544 616.573 407.376C615.389 408.176 613.789 408.576 611.773 408.576C609.181 408.576 607.117 407.904 605.581 406.56C604.045 405.216 603.277 403.376 603.277 401.04C603.277 398.736 604.109 396.96 605.773 395.712C607.469 394.464 610.189 393.84 613.933 393.84H619.213V391.392C619.213 389.568 618.701 388.208 617.677 387.312C616.653 386.384 615.197 385.92 613.309 385.92C611.645 385.92 610.285 386.256 609.229 386.928C608.173 387.568 607.325 388.448 606.685 389.568L604.093 387.648C604.413 387.008 604.845 386.384 605.389 385.776C605.933 385.168 606.605 384.64 607.405 384.192C608.205 383.712 609.117 383.344 610.141 383.088C611.165 382.8 612.301 382.656 613.549 382.656C616.461 382.656 618.765 383.392 620.461 384.864C622.189 386.336 623.053 388.384 623.053 391.008V404.64H626.509V408H623.869ZM612.445 405.36C613.437 405.36 614.333 405.248 615.133 405.024C615.965 404.768 616.685 404.448 617.293 404.064C617.901 403.648 618.365 403.168 618.685 402.624C619.037 402.048 619.213 401.44 619.213 400.8V396.72H613.933C611.629 396.72 609.949 397.04 608.893 397.68C607.837 398.32 607.309 399.248 607.309 400.464V401.472C607.309 402.752 607.757 403.728 608.653 404.4C609.581 405.04 610.845 405.36 612.445 405.36ZM644.155 408.576C642.363 408.576 640.763 408.272 639.355 407.664C637.979 407.024 636.811 406.144 635.851 405.024C634.891 403.904 634.155 402.544 633.643 400.944C633.163 399.344 632.923 397.568 632.923 395.616C632.923 393.664 633.179 391.888 633.691 390.288C634.203 388.688 634.939 387.328 635.899 386.208C636.859 385.056 638.027 384.176 639.403 383.568C640.779 382.96 642.347 382.656 644.107 382.656C646.507 382.656 648.459 383.184 649.963 384.24C651.467 385.296 652.571 386.672 653.275 388.368L650.203 390C649.755 388.72 649.003 387.728 647.947 387.024C646.923 386.32 645.643 385.968 644.107 385.968C642.987 385.968 641.979 386.16 641.083 386.544C640.219 386.896 639.483 387.408 638.875 388.08C638.267 388.752 637.803 389.552 637.483 390.48C637.195 391.408 637.051 392.416 637.051 393.504V397.728C637.051 398.816 637.195 399.824 637.483 400.752C637.803 401.68 638.267 402.48 638.875 403.152C639.483 403.824 640.235 404.352 641.131 404.736C642.027 405.088 643.051 405.264 644.203 405.264C645.867 405.264 647.243 404.88 648.331 404.112C649.419 403.344 650.283 402.288 650.923 400.944L653.659 402.816C652.923 404.48 651.771 405.856 650.203 406.944C648.667 408.032 646.651 408.576 644.155 408.576ZM673.272 408C671.384 408 669.992 407.472 669.096 406.416C668.232 405.36 667.8 404 667.8 402.336V386.496H659.544V383.232H665.688C666.52 383.232 667.096 383.072 667.416 382.752C667.768 382.4 667.944 381.808 667.944 380.976V374.496H671.64V383.232H682.92V386.496H671.64V404.736H682.92V408H673.272Z" fill="black"/>
<rect x="473" y="2" width="283" height="141" fill="#E35353" fill-opacity="0.4"/>
<path d="M539.46 89.576C536.452 89.576 533.988 89.032 532.068 87.944C530.148 86.824 528.564 85.4 527.316 83.672L530.244 81.272C531.556 82.904 532.932 84.12 534.372 84.92C535.844 85.72 537.588 86.12 539.604 86.12C542.036 86.12 543.892 85.56 545.172 84.44C546.452 83.32 547.092 81.752 547.092 79.736C547.092 78.104 546.628 76.84 545.7 75.944C544.772 75.016 543.156 74.36 540.852 73.976L537.108 73.352C535.476 73.064 534.1 72.632 532.98 72.056C531.892 71.48 531.012 70.792 530.34 69.992C529.668 69.16 529.188 68.264 528.9 67.304C528.612 66.312 528.468 65.288 528.468 64.232C528.468 61.16 529.476 58.84 531.492 57.272C533.508 55.704 536.228 54.92 539.652 54.92C542.34 54.92 544.596 55.368 546.42 56.264C548.276 57.16 549.764 58.424 550.884 60.056L548.052 62.504C547.124 61.288 546.004 60.296 544.692 59.528C543.38 58.76 541.684 58.376 539.604 58.376C537.332 58.376 535.588 58.856 534.372 59.816C533.156 60.776 532.548 62.216 532.548 64.136C532.548 65.64 532.996 66.872 533.892 67.832C534.82 68.76 536.468 69.432 538.836 69.848L542.436 70.472C544.068 70.76 545.444 71.192 546.564 71.768C547.684 72.344 548.58 73.032 549.252 73.832C549.956 74.632 550.452 75.528 550.74 76.52C551.028 77.512 551.172 78.552 551.172 79.64C551.172 82.744 550.148 85.176 548.1 86.936C546.084 88.696 543.204 89.576 539.46 89.576ZM577.698 89C576.194 89 575.122 88.616 574.482 87.848C573.842 87.08 573.442 86.12 573.282 84.968H573.042C572.498 86.408 571.618 87.544 570.402 88.376C569.218 89.176 567.618 89.576 565.602 89.576C563.01 89.576 560.946 88.904 559.41 87.56C557.874 86.216 557.105 84.376 557.105 82.04C557.105 79.736 557.938 77.96 559.602 76.712C561.298 75.464 564.018 74.84 567.762 74.84H573.042V72.392C573.042 70.568 572.53 69.208 571.506 68.312C570.482 67.384 569.026 66.92 567.138 66.92C565.474 66.92 564.114 67.256 563.058 67.928C562.002 68.568 561.154 69.448 560.514 70.568L557.922 68.648C558.242 68.008 558.674 67.384 559.218 66.776C559.762 66.168 560.434 65.64 561.234 65.192C562.034 64.712 562.946 64.344 563.97 64.088C564.994 63.8 566.13 63.656 567.378 63.656C570.29 63.656 572.594 64.392 574.29 65.864C576.018 67.336 576.882 69.384 576.882 72.008V85.64H580.338V89H577.698ZM566.273 86.36C567.266 86.36 568.162 86.248 568.962 86.024C569.794 85.768 570.514 85.448 571.122 85.064C571.73 84.648 572.194 84.168 572.514 83.624C572.866 83.048 573.042 82.44 573.042 81.8V77.72H567.762C565.458 77.72 563.778 78.04 562.722 78.68C561.666 79.32 561.138 80.248 561.138 81.464V82.472C561.138 83.752 561.586 84.728 562.482 85.4C563.41 86.04 564.674 86.36 566.273 86.36ZM587.423 89V64.232H591.263V68.264H591.455C591.711 67.656 592.031 67.08 592.415 66.536C592.799 65.96 593.263 65.464 593.807 65.048C594.383 64.632 595.055 64.296 595.823 64.04C596.591 63.784 597.487 63.656 598.511 63.656C601.103 63.656 603.183 64.488 604.751 66.152C606.319 67.784 607.103 70.104 607.103 73.112V89H603.263V73.784C603.263 71.512 602.767 69.832 601.775 68.744C600.783 67.624 599.327 67.064 597.407 67.064C596.639 67.064 595.887 67.16 595.151 67.352C594.415 67.544 593.759 67.832 593.183 68.216C592.607 68.6 592.143 69.096 591.791 69.704C591.439 70.312 591.263 71.016 591.263 71.816V89H587.423ZM627.436 58.76C626.316 58.76 625.532 58.536 625.084 58.088C624.636 57.608 624.412 57.016 624.412 56.312V55.544C624.412 54.84 624.636 54.264 625.084 53.816C625.532 53.336 626.316 53.096 627.436 53.096C628.556 53.096 629.34 53.336 629.788 53.816C630.236 54.264 630.46 54.84 630.46 55.544V56.312C630.46 57.016 630.236 57.608 629.788 58.088C629.34 58.536 628.556 58.76 627.436 58.76ZM616.588 85.736H625.516V67.496H616.588V64.232H629.356V85.736H637.708V89H616.588V85.736ZM655.881 89C653.993 89 652.601 88.472 651.705 87.416C650.841 86.36 650.409 85 650.409 83.336V67.496H642.153V64.232H648.297C649.129 64.232 649.705 64.072 650.025 63.752C650.377 63.4 650.553 62.808 650.553 61.976V55.496H654.249V64.232H665.529V67.496H654.249V85.736H665.529V89H655.881ZM691.479 64.232H695.319L683.031 94.424C682.743 95.128 682.423 95.736 682.071 96.248C681.719 96.792 681.303 97.224 680.823 97.544C680.343 97.896 679.767 98.152 679.095 98.312C678.423 98.504 677.623 98.6 676.695 98.6H673.047V95.336H678.807L681.591 88.52L671.607 64.232H675.543L679.719 74.6L683.415 84.008H683.607L687.303 74.6L691.479 64.232Z" fill="black"/>
<rect x="1266" width="283" height="141" fill="black" fill-opacity="0.6"/>
<path d="M1339.47 82.536H1339.23C1338.94 83.176 1338.6 83.8 1338.22 84.408C1337.84 85.016 1337.34 85.56 1336.73 86.04C1336.16 86.488 1335.45 86.856 1334.62 87.144C1333.79 87.432 1332.8 87.576 1331.64 87.576C1328 87.576 1325.28 86.104 1323.48 83.16C1321.72 80.216 1320.84 75.992 1320.84 70.488C1320.84 64.728 1321.82 60.36 1323.77 57.384C1325.72 54.408 1328.73 52.92 1332.8 52.92C1334.36 52.92 1335.72 53.128 1336.88 53.544C1338.03 53.96 1339 54.52 1339.8 55.224C1340.64 55.928 1341.32 56.728 1341.87 57.624C1342.41 58.488 1342.86 59.368 1343.21 60.264L1339.76 61.848C1339.47 61.112 1339.13 60.424 1338.75 59.784C1338.4 59.112 1337.95 58.536 1337.4 58.056C1336.89 57.544 1336.27 57.144 1335.53 56.856C1334.8 56.568 1333.93 56.424 1332.94 56.424C1330.25 56.424 1328.27 57.432 1326.99 59.448C1325.74 61.464 1325.12 64.152 1325.12 67.512V72.696C1325.12 74.392 1325.24 75.944 1325.5 77.352C1325.76 78.728 1326.17 79.928 1326.75 80.952C1327.36 81.976 1328.12 82.776 1329.05 83.352C1330.01 83.896 1331.18 84.168 1332.56 84.168C1334.73 84.168 1336.43 83.512 1337.64 82.2C1338.86 80.888 1339.47 79.192 1339.47 77.112V73.656H1332.41V70.44H1343.21V87H1339.47V82.536ZM1362.87 56.76C1361.75 56.76 1360.97 56.536 1360.52 56.088C1360.07 55.608 1359.85 55.016 1359.85 54.312V53.544C1359.85 52.84 1360.07 52.264 1360.52 51.816C1360.97 51.336 1361.75 51.096 1362.87 51.096C1363.99 51.096 1364.78 51.336 1365.23 51.816C1365.67 52.264 1365.9 52.84 1365.9 53.544V54.312C1365.9 55.016 1365.67 55.608 1365.23 56.088C1364.78 56.536 1363.99 56.76 1362.87 56.76ZM1352.03 83.736H1360.95V65.496H1352.03V62.232H1364.79V83.736H1373.15V87H1352.03V83.736ZM1391.32 87C1389.43 87 1388.04 86.472 1387.14 85.416C1386.28 84.36 1385.85 83 1385.85 81.336V65.496H1377.59V62.232H1383.73C1384.57 62.232 1385.14 62.072 1385.46 61.752C1385.81 61.4 1385.99 60.808 1385.99 59.976V53.496H1389.69V62.232H1400.97V65.496H1389.69V83.736H1400.97V87H1391.32ZM1425.43 71.784H1412.37V87H1408.34V53.496H1412.37V68.28H1425.43V53.496H1429.46V87H1425.43V71.784ZM1453.54 82.968H1453.35C1453.09 83.576 1452.77 84.168 1452.39 84.744C1452 85.288 1451.52 85.768 1450.95 86.184C1450.4 86.6 1449.75 86.936 1448.98 87.192C1448.21 87.448 1447.31 87.576 1446.29 87.576C1443.7 87.576 1441.62 86.76 1440.05 85.128C1438.48 83.464 1437.7 81.128 1437.7 78.12V62.232H1441.54V77.448C1441.54 79.72 1442.03 81.416 1443.03 82.536C1444.02 83.624 1445.47 84.168 1447.39 84.168C1448.16 84.168 1448.91 84.072 1449.65 83.88C1450.39 83.688 1451.04 83.4 1451.62 83.016C1452.19 82.632 1452.66 82.152 1453.01 81.576C1453.36 80.968 1453.54 80.248 1453.54 79.416V62.232H1457.38V87H1453.54V82.968ZM1466.62 51.48H1470.46V66.264H1470.65C1472.25 63.192 1474.8 61.656 1478.29 61.656C1481.33 61.656 1483.69 62.792 1485.39 65.064C1487.12 67.336 1487.98 70.52 1487.98 74.616C1487.98 78.712 1487.12 81.896 1485.39 84.168C1483.69 86.44 1481.33 87.576 1478.29 87.576C1474.8 87.576 1472.25 86.04 1470.65 82.968H1470.46V87H1466.62V51.48ZM1476.8 84.168C1479.04 84.168 1480.77 83.496 1481.98 82.152C1483.23 80.776 1483.85 78.968 1483.85 76.728V72.504C1483.85 70.264 1483.23 68.472 1481.98 67.128C1480.77 65.752 1479.04 65.064 1476.8 65.064C1475.93 65.064 1475.12 65.176 1474.35 65.4C1473.58 65.624 1472.91 65.96 1472.33 66.408C1471.76 66.824 1471.29 67.352 1470.94 67.992C1470.62 68.6 1470.46 69.32 1470.46 70.152V79.08C1470.46 79.912 1470.62 80.648 1470.94 81.288C1471.29 81.896 1471.76 82.424 1472.33 82.872C1472.91 83.288 1473.58 83.608 1474.35 83.832C1475.12 84.056 1475.93 84.168 1476.8 84.168Z" fill="white"/>
<line x1="617" y1="601" x2="617" y2="781" stroke="black" stroke-width="6"/>
<line x1="618.879" y1="783.121" x2="600.879" y2="765.121" stroke="black" stroke-width="6"/>
<line y1="-3" x2="25.4558" y2="-3" transform="matrix(0.707107 -0.707107 -0.707107 -0.707107 613 781)" stroke="black" stroke-width="6"/>
<line x1="1403.88" y1="782.121" x2="1385.88" y2="764.121" stroke="black" stroke-width="6"/>
<line y1="-3" x2="25.4558" y2="-3" transform="matrix(0.707107 -0.707107 -0.707107 -0.707107 1398 780)" stroke="black" stroke-width="6"/>
<line x1="613" y1="141" x2="613" y2="321" stroke="black" stroke-width="6"/>
<line x1="614.879" y1="323.121" x2="596.879" y2="305.121" stroke="black" stroke-width="6"/>
<line y1="-3" x2="25.4558" y2="-3" transform="matrix(0.707107 -0.707107 -0.707107 -0.707107 609 321)" stroke="black" stroke-width="6"/>
<line y1="-3" x2="25.4558" y2="-3" transform="matrix(0.707107 0.707107 0.707107 -0.707107 758 458)" stroke="black" stroke-width="6"/>
<line x1="755.879" y1="463.879" x2="773.879" y2="445.879" stroke="black" stroke-width="6"/>
<path d="M699.171 694.856H690.467V705H687.779V682.664H690.467V692.52H699.171V682.664H701.859V705H699.171V694.856ZM715.35 685V705H712.662V685H705.206V682.664H722.806V685H715.35ZM738.154 693.8V686.728H737.898L733.194 698.216L728.49 686.728H728.234V693.8V705H725.77V682.664H729.226L733.162 692.52H733.354L737.29 682.664H740.618V705H738.154V693.8ZM746.621 705V682.664H749.309V702.664H759.901V705H746.621ZM770.193 700.648H774.321L770.641 709.512H768.497L770.193 700.648ZM810.68 705.384C807.949 705.384 805.912 704.392 804.568 702.408C803.245 700.424 802.584 697.565 802.584 693.832C802.584 690.099 803.245 687.24 804.568 685.256C805.912 683.272 807.949 682.28 810.68 682.28C811.704 682.28 812.589 682.419 813.336 682.696C814.082 682.973 814.722 683.347 815.256 683.816C815.789 684.285 816.237 684.819 816.6 685.416C816.962 685.992 817.282 686.579 817.56 687.176L815.256 688.232C815.064 687.741 814.84 687.283 814.584 686.856C814.328 686.408 814.018 686.024 813.656 685.704C813.314 685.363 812.898 685.096 812.408 684.904C811.938 684.712 811.362 684.616 810.68 684.616C808.909 684.616 807.586 685.288 806.712 686.632C805.858 687.976 805.432 689.768 805.432 692.008V695.656C805.432 697.896 805.858 699.688 806.712 701.032C807.586 702.376 808.909 703.048 810.68 703.048C811.362 703.048 811.938 702.952 812.408 702.76C812.898 702.568 813.314 702.312 813.656 701.992C814.018 701.651 814.328 701.267 814.584 700.84C814.84 700.392 815.064 699.923 815.256 699.432L817.56 700.488C817.282 701.107 816.962 701.704 816.6 702.28C816.237 702.856 815.789 703.379 815.256 703.848C814.722 704.317 814.082 704.691 813.336 704.968C812.589 705.245 811.704 705.384 810.68 705.384ZM829.067 705.384C827.062 705.384 825.419 705.021 824.139 704.296C822.859 703.549 821.803 702.6 820.971 701.448L822.923 699.848C823.798 700.936 824.715 701.747 825.675 702.28C826.657 702.813 827.819 703.08 829.163 703.08C830.785 703.08 832.022 702.707 832.875 701.96C833.729 701.213 834.155 700.168 834.155 698.824C834.155 697.736 833.846 696.893 833.227 696.296C832.609 695.677 831.531 695.24 829.995 694.984L827.499 694.568C826.411 694.376 825.494 694.088 824.747 693.704C824.022 693.32 823.435 692.861 822.987 692.328C822.539 691.773 822.219 691.176 822.027 690.536C821.835 689.875 821.739 689.192 821.739 688.488C821.739 686.44 822.411 684.893 823.755 683.848C825.099 682.803 826.913 682.28 829.195 682.28C830.987 682.28 832.491 682.579 833.707 683.176C834.945 683.773 835.937 684.616 836.683 685.704L834.795 687.336C834.177 686.525 833.43 685.864 832.555 685.352C831.681 684.84 830.55 684.584 829.163 684.584C827.649 684.584 826.486 684.904 825.675 685.544C824.865 686.184 824.459 687.144 824.459 688.424C824.459 689.427 824.758 690.248 825.355 690.888C825.974 691.507 827.073 691.955 828.651 692.232L831.051 692.648C832.139 692.84 833.057 693.128 833.803 693.512C834.55 693.896 835.147 694.355 835.595 694.888C836.065 695.421 836.395 696.019 836.587 696.68C836.779 697.341 836.875 698.035 836.875 698.76C836.875 700.829 836.193 702.451 834.827 703.624C833.483 704.797 831.563 705.384 829.067 705.384ZM848.255 705.384C846.249 705.384 844.607 705.021 843.327 704.296C842.047 703.549 840.991 702.6 840.159 701.448L842.111 699.848C842.985 700.936 843.903 701.747 844.863 702.28C845.844 702.813 847.007 703.08 848.351 703.08C849.972 703.08 851.209 702.707 852.063 701.96C852.916 701.213 853.343 700.168 853.343 698.824C853.343 697.736 853.033 696.893 852.415 696.296C851.796 695.677 850.719 695.24 849.183 694.984L846.687 694.568C845.599 694.376 844.681 694.088 843.935 693.704C843.209 693.32 842.623 692.861 842.175 692.328C841.727 691.773 841.407 691.176 841.215 690.536C841.023 689.875 840.927 689.192 840.927 688.488C840.927 686.44 841.599 684.893 842.943 683.848C844.287 682.803 846.1 682.28 848.383 682.28C850.175 682.28 851.679 682.579 852.895 683.176C854.132 683.773 855.124 684.616 855.871 685.704L853.983 687.336C853.364 686.525 852.617 685.864 851.743 685.352C850.868 684.84 849.737 684.584 848.351 684.584C846.836 684.584 845.673 684.904 844.863 685.544C844.052 686.184 843.647 687.144 843.647 688.424C843.647 689.427 843.945 690.248 844.543 690.888C845.161 691.507 846.26 691.955 847.839 692.232L850.239 692.648C851.327 692.84 852.244 693.128 852.991 693.512C853.737 693.896 854.335 694.355 854.783 694.888C855.252 695.421 855.583 696.019 855.775 696.68C855.967 697.341 856.063 698.035 856.063 698.76C856.063 700.829 855.38 702.451 854.015 703.624C852.671 704.797 850.751 705.384 848.255 705.384ZM866.13 700.648H870.258L866.578 709.512H864.434L866.13 700.648ZM911.641 682.664V699.208C911.641 700.147 911.481 701 911.161 701.768C910.841 702.536 910.383 703.187 909.785 703.72C909.209 704.253 908.516 704.669 907.705 704.968C906.895 705.245 906.009 705.384 905.049 705.384C903.343 705.384 901.935 704.947 900.825 704.072C899.716 703.176 898.991 701.928 898.649 700.328L901.209 699.784C901.316 700.232 901.455 700.659 901.625 701.064C901.817 701.448 902.063 701.789 902.361 702.088C902.681 702.365 903.065 702.589 903.513 702.76C903.961 702.931 904.495 703.016 905.113 703.016C906.329 703.016 907.268 702.675 907.929 701.992C908.612 701.288 908.953 700.2 908.953 698.728V685H900.889V682.664H911.641ZM925.005 705.384C922.999 705.384 921.357 705.021 920.077 704.296C918.797 703.549 917.741 702.6 916.909 701.448L918.861 699.848C919.735 700.936 920.653 701.747 921.613 702.28C922.594 702.813 923.757 703.08 925.101 703.08C926.722 703.08 927.959 702.707 928.813 701.96C929.666 701.213 930.093 700.168 930.093 698.824C930.093 697.736 929.783 696.893 929.165 696.296C928.546 695.677 927.469 695.24 925.933 694.984L923.437 694.568C922.349 694.376 921.431 694.088 920.685 693.704C919.959 693.32 919.373 692.861 918.925 692.328C918.477 691.773 918.157 691.176 917.965 690.536C917.773 689.875 917.677 689.192 917.677 688.488C917.677 686.44 918.349 684.893 919.693 683.848C921.037 682.803 922.85 682.28 925.133 682.28C926.925 682.28 928.429 682.579 929.645 683.176C930.882 683.773 931.874 684.616 932.621 685.704L930.733 687.336C930.114 686.525 929.367 685.864 928.493 685.352C927.618 684.84 926.487 684.584 925.101 684.584C923.586 684.584 922.423 684.904 921.613 685.544C920.802 686.184 920.397 687.144 920.397 688.424C920.397 689.427 920.695 690.248 921.293 690.888C921.911 691.507 923.01 691.955 924.589 692.232L926.989 692.648C928.077 692.84 928.994 693.128 929.741 693.512C930.487 693.896 931.085 694.355 931.533 694.888C932.002 695.421 932.333 696.019 932.525 696.68C932.717 697.341 932.813 698.035 932.813 698.76C932.813 700.829 932.13 702.451 930.765 703.624C929.421 704.797 927.501 705.384 925.005 705.384ZM942.88 700.648H947.008L943.328 709.512H941.184L942.88 700.648ZM982.919 705.384C981.725 705.384 980.647 705.181 979.687 704.776C978.749 704.371 977.938 703.795 977.255 703.048C976.594 702.28 976.082 701.373 975.719 700.328C975.357 699.261 975.175 698.077 975.175 696.776C975.175 695.453 975.357 694.259 975.719 693.192C976.103 692.125 976.626 691.219 977.287 690.472C977.949 689.704 978.738 689.117 979.655 688.712C980.594 688.307 981.629 688.104 982.759 688.104C983.869 688.104 984.871 688.307 985.767 688.712C986.685 689.117 987.463 689.683 988.103 690.408C988.743 691.112 989.234 691.955 989.575 692.936C989.917 693.917 990.087 694.995 990.087 696.168V697.384H977.863V698.152C977.863 698.877 977.981 699.549 978.215 700.168C978.45 700.787 978.781 701.32 979.207 701.768C979.655 702.216 980.189 702.568 980.807 702.824C981.447 703.059 982.151 703.176 982.919 703.176C984.029 703.176 984.989 702.92 985.799 702.408C986.61 701.896 987.229 701.192 987.655 700.296L989.543 701.576C989.053 702.685 988.231 703.603 987.079 704.328C985.949 705.032 984.562 705.384 982.919 705.384ZM982.759 690.216C982.055 690.216 981.405 690.344 980.807 690.6C980.21 690.856 979.687 691.208 979.239 691.656C978.813 692.104 978.471 692.637 978.215 693.256C977.981 693.853 977.863 694.515 977.863 695.24V695.464H987.335V695.112C987.335 694.387 987.218 693.725 986.983 693.128C986.77 692.531 986.461 692.019 986.055 691.592C985.671 691.144 985.191 690.803 984.615 690.568C984.061 690.333 983.442 690.216 982.759 690.216ZM1002.62 705C1001.36 705 1000.43 704.648 999.835 703.944C999.259 703.24 998.971 702.333 998.971 701.224V690.664H993.467V688.488H997.563C998.117 688.488 998.501 688.381 998.715 688.168C998.949 687.933 999.067 687.539 999.067 686.984V682.664H1001.53V688.488H1009.05V690.664H1001.53V702.824H1009.05V705H1002.62ZM1021.58 705.384C1020.39 705.384 1019.32 705.181 1018.38 704.776C1017.46 704.349 1016.69 703.763 1016.05 703.016C1015.41 702.269 1014.92 701.363 1014.57 700.296C1014.25 699.229 1014.09 698.045 1014.09 696.744C1014.09 695.443 1014.26 694.259 1014.61 693.192C1014.95 692.125 1015.44 691.219 1016.08 690.472C1016.72 689.704 1017.5 689.117 1018.41 688.712C1019.33 688.307 1020.38 688.104 1021.55 688.104C1023.15 688.104 1024.45 688.456 1025.45 689.16C1026.46 689.864 1027.19 690.781 1027.66 691.912L1025.61 693C1025.32 692.147 1024.81 691.485 1024.11 691.016C1023.43 690.547 1022.57 690.312 1021.55 690.312C1020.8 690.312 1020.13 690.44 1019.53 690.696C1018.96 690.931 1018.47 691.272 1018.06 691.72C1017.66 692.168 1017.35 692.701 1017.13 693.32C1016.94 693.939 1016.85 694.611 1016.85 695.336V698.152C1016.85 698.877 1016.94 699.549 1017.13 700.168C1017.35 700.787 1017.66 701.32 1018.06 701.768C1018.47 702.216 1018.97 702.568 1019.57 702.824C1020.16 703.059 1020.85 703.176 1021.61 703.176C1022.72 703.176 1023.64 702.92 1024.37 702.408C1025.09 701.896 1025.67 701.192 1026.09 700.296L1027.92 701.544C1027.43 702.653 1026.66 703.571 1025.61 704.296C1024.59 705.021 1023.25 705.384 1021.58 705.384ZM1040.19 705.288C1039.32 705.288 1038.7 705.107 1038.34 704.744C1038 704.381 1037.83 703.923 1037.83 703.368V702.792C1037.83 702.237 1038 701.779 1038.34 701.416C1038.7 701.053 1039.32 700.872 1040.19 700.872C1041.07 700.872 1041.68 701.053 1042.02 701.416C1042.38 701.779 1042.56 702.237 1042.56 702.792V703.368C1042.56 703.923 1042.38 704.381 1042.02 704.744C1041.68 705.107 1041.07 705.288 1040.19 705.288Z" fill="black"/>
<path d="M700.423 220.664V237.208C700.423 238.147 700.263 239 699.943 239.768C699.623 240.536 699.164 241.187 698.567 241.72C697.991 242.253 697.297 242.669 696.487 242.968C695.676 243.245 694.791 243.384 693.831 243.384C692.124 243.384 690.716 242.947 689.607 242.072C688.497 241.176 687.772 239.928 687.431 238.328L689.991 237.784C690.097 238.232 690.236 238.659 690.407 239.064C690.599 239.448 690.844 239.789 691.143 240.088C691.463 240.365 691.847 240.589 692.295 240.76C692.743 240.931 693.276 241.016 693.895 241.016C695.111 241.016 696.049 240.675 696.711 239.992C697.393 239.288 697.735 238.2 697.735 236.728V223H689.671V220.664H700.423ZM713.786 243.384C711.781 243.384 710.138 243.021 708.858 242.296C707.578 241.549 706.522 240.6 705.69 239.448L707.642 237.848C708.517 238.936 709.434 239.747 710.394 240.28C711.375 240.813 712.538 241.08 713.882 241.08C715.503 241.08 716.741 240.707 717.594 239.96C718.447 239.213 718.874 238.168 718.874 236.824C718.874 235.736 718.565 234.893 717.946 234.296C717.327 233.677 716.25 233.24 714.714 232.984L712.218 232.568C711.13 232.376 710.213 232.088 709.466 231.704C708.741 231.32 708.154 230.861 707.706 230.328C707.258 229.773 706.938 229.176 706.746 228.536C706.554 227.875 706.458 227.192 706.458 226.488C706.458 224.44 707.13 222.893 708.474 221.848C709.818 220.803 711.631 220.28 713.914 220.28C715.706 220.28 717.21 220.579 718.426 221.176C719.663 221.773 720.655 222.616 721.402 223.704L719.514 225.336C718.895 224.525 718.149 223.864 717.274 223.352C716.399 222.84 715.269 222.584 713.882 222.584C712.367 222.584 711.205 222.904 710.394 223.544C709.583 224.184 709.178 225.144 709.178 226.424C709.178 227.427 709.477 228.248 710.074 228.888C710.693 229.507 711.791 229.955 713.37 230.232L715.77 230.648C716.858 230.84 717.775 231.128 718.522 231.512C719.269 231.896 719.866 232.355 720.314 232.888C720.783 233.421 721.114 234.019 721.306 234.68C721.498 235.341 721.594 236.035 721.594 236.76C721.594 238.829 720.911 240.451 719.546 241.624C718.202 242.797 716.282 243.384 713.786 243.384ZM733.038 243.384C731.672 243.384 730.499 243.128 729.518 242.616C728.536 242.083 727.726 241.325 727.086 240.344C726.446 239.363 725.976 238.157 725.678 236.728C725.379 235.299 725.23 233.667 725.23 231.832C725.23 230.019 725.379 228.397 725.678 226.968C725.976 225.517 726.446 224.301 727.086 223.32C727.726 222.339 728.536 221.592 729.518 221.08C730.499 220.547 731.672 220.28 733.038 220.28C734.403 220.28 735.576 220.547 736.558 221.08C737.539 221.592 738.35 222.339 738.99 223.32C739.63 224.301 740.099 225.517 740.398 226.968C740.696 228.397 740.846 230.019 740.846 231.832C740.846 233.667 740.696 235.299 740.398 236.728C740.099 238.157 739.63 239.363 738.99 240.344C738.35 241.325 737.539 242.083 736.558 242.616C735.576 243.128 734.403 243.384 733.038 243.384ZM733.038 241.048C733.934 241.048 734.691 240.877 735.31 240.536C735.928 240.173 736.44 239.672 736.846 239.032C737.251 238.392 737.539 237.624 737.71 236.728C737.902 235.811 737.998 234.787 737.998 233.656V230.008C737.998 228.899 737.902 227.885 737.71 226.968C737.539 226.051 737.251 225.272 736.846 224.632C736.44 223.992 735.928 223.501 735.31 223.16C734.691 222.797 733.934 222.616 733.038 222.616C732.142 222.616 731.384 222.797 730.766 223.16C730.147 223.501 729.635 223.992 729.23 224.632C728.824 225.272 728.526 226.051 728.334 226.968C728.163 227.885 728.078 228.899 728.078 230.008V233.656C728.078 234.787 728.163 235.811 728.334 236.728C728.526 237.624 728.824 238.392 729.23 239.032C729.635 239.672 730.147 240.173 730.766 240.536C731.384 240.877 732.142 241.048 733.038 241.048ZM747.841 224.088H747.617V243H745.185V220.664H748.993L756.609 239.384H756.833V220.664H759.265V243H755.457L747.841 224.088ZM770.036 238.648H774.165L770.485 247.512H768.341L770.036 238.648ZM814.396 240.024H814.236C814.044 240.451 813.82 240.867 813.564 241.272C813.308 241.677 812.977 242.04 812.572 242.36C812.188 242.659 811.718 242.904 811.164 243.096C810.609 243.288 809.948 243.384 809.18 243.384C806.748 243.384 804.934 242.403 803.74 240.44C802.566 238.477 801.98 235.661 801.98 231.992C801.98 228.152 802.63 225.24 803.932 223.256C805.233 221.272 807.238 220.28 809.948 220.28C810.993 220.28 811.9 220.419 812.668 220.696C813.436 220.973 814.086 221.347 814.62 221.816C815.174 222.285 815.633 222.819 815.996 223.416C816.358 223.992 816.657 224.579 816.892 225.176L814.588 226.232C814.396 225.741 814.172 225.283 813.916 224.856C813.681 224.408 813.382 224.024 813.02 223.704C812.678 223.363 812.262 223.096 811.772 222.904C811.281 222.712 810.705 222.616 810.044 222.616C808.252 222.616 806.929 223.288 806.076 224.632C805.244 225.976 804.828 227.768 804.828 230.008V233.464C804.828 234.595 804.913 235.629 805.084 236.568C805.254 237.485 805.532 238.285 805.916 238.968C806.321 239.651 806.833 240.184 807.452 240.568C808.092 240.931 808.87 241.112 809.788 241.112C811.238 241.112 812.369 240.675 813.18 239.8C813.99 238.925 814.396 237.795 814.396 236.408V234.104H809.692V231.96H816.892V243H814.396V240.024ZM821.839 240.824H826.671V228.664H821.839V226.488H829.231V230.648H829.391C829.732 229.347 830.372 228.333 831.311 227.608C832.271 226.861 833.487 226.488 834.959 226.488H837.263V229.048H834.159C832.687 229.048 831.492 229.475 830.575 230.328C829.679 231.181 829.231 232.301 829.231 233.688V240.824H835.631V243H821.839V240.824ZM854.403 243C853.4 243 852.685 242.744 852.259 242.232C851.832 241.72 851.565 241.08 851.459 240.312H851.299C850.936 241.272 850.349 242.029 849.539 242.584C848.749 243.117 847.683 243.384 846.339 243.384C844.611 243.384 843.235 242.936 842.211 242.04C841.187 241.144 840.674 239.917 840.674 238.36C840.674 236.824 841.229 235.64 842.339 234.808C843.469 233.976 845.283 233.56 847.779 233.56H851.299V231.928C851.299 230.712 850.957 229.805 850.275 229.208C849.592 228.589 848.621 228.28 847.363 228.28C846.253 228.28 845.347 228.504 844.643 228.952C843.939 229.379 843.373 229.965 842.947 230.712L841.219 229.432C841.432 229.005 841.72 228.589 842.083 228.184C842.445 227.779 842.893 227.427 843.427 227.128C843.96 226.808 844.568 226.563 845.251 226.392C845.933 226.2 846.691 226.104 847.523 226.104C849.464 226.104 851 226.595 852.131 227.576C853.283 228.557 853.859 229.923 853.859 231.672V240.76H856.163V243H854.403ZM846.786 241.24C847.448 241.24 848.045 241.165 848.579 241.016C849.133 240.845 849.613 240.632 850.019 240.376C850.424 240.099 850.733 239.779 850.947 239.416C851.181 239.032 851.299 238.627 851.299 238.2V235.48H847.779C846.243 235.48 845.123 235.693 844.419 236.12C843.715 236.547 843.363 237.165 843.363 237.976V238.648C843.363 239.501 843.661 240.152 844.259 240.6C844.877 241.027 845.72 241.24 846.786 241.24ZM860.79 226.488H863.35V229.176H863.478C864.545 227.128 866.241 226.104 868.566 226.104C870.593 226.104 872.171 226.861 873.302 228.376C874.454 229.891 875.03 232.013 875.03 234.744C875.03 237.475 874.454 239.597 873.302 241.112C872.171 242.627 870.593 243.384 868.566 243.384C866.241 243.384 864.545 242.36 863.478 240.312H863.35V249.4H860.79V226.488ZM867.574 241.112C869.067 241.112 870.219 240.664 871.03 239.768C871.862 238.851 872.278 237.645 872.278 236.152V233.336C872.278 231.843 871.862 230.648 871.03 229.752C870.219 228.835 869.067 228.376 867.574 228.376C866.998 228.376 866.454 228.451 865.942 228.6C865.43 228.749 864.982 228.973 864.598 229.272C864.214 229.549 863.905 229.901 863.67 230.328C863.457 230.733 863.35 231.213 863.35 231.768V237.72C863.35 238.275 863.457 238.765 863.67 239.192C863.905 239.597 864.214 239.949 864.598 240.248C864.982 240.525 865.43 240.739 865.942 240.888C866.454 241.037 866.998 241.112 867.574 241.112ZM880.074 219.32H882.634V229.176H882.762C882.932 228.771 883.146 228.387 883.402 228.024C883.658 227.64 883.967 227.309 884.33 227.032C884.714 226.755 885.162 226.531 885.674 226.36C886.186 226.189 886.783 226.104 887.466 226.104C889.194 226.104 890.58 226.659 891.626 227.768C892.671 228.856 893.194 230.403 893.194 232.408V243H890.634V232.856C890.634 231.341 890.303 230.221 889.642 229.496C888.98 228.749 888.01 228.376 886.73 228.376C886.218 228.376 885.716 228.44 885.226 228.568C884.735 228.696 884.298 228.888 883.914 229.144C883.53 229.4 883.22 229.731 882.986 230.136C882.751 230.541 882.634 231.011 882.634 231.544V243H880.074V219.32ZM911.837 248.248H908.093C906.834 248.248 905.906 247.896 905.309 247.192C904.733 246.488 904.445 245.581 904.445 244.472V243.288C903.314 243.139 902.333 242.776 901.501 242.2C900.69 241.603 900.018 240.824 899.485 239.864C898.952 238.883 898.557 237.72 898.301 236.376C898.045 235.011 897.917 233.496 897.917 231.832C897.917 230.019 898.066 228.397 898.365 226.968C898.664 225.517 899.133 224.301 899.773 223.32C900.413 222.339 901.224 221.592 902.205 221.08C903.186 220.547 904.36 220.28 905.725 220.28C907.09 220.28 908.264 220.547 909.245 221.08C910.226 221.592 911.037 222.339 911.677 223.32C912.317 224.301 912.786 225.517 913.085 226.968C913.384 228.397 913.533 230.019 913.533 231.832C913.533 235.181 913.01 237.859 911.965 239.864C910.92 241.848 909.266 242.989 907.005 243.288V246.072H911.837V248.248ZM905.725 241.048C906.621 241.048 907.378 240.877 907.997 240.536C908.616 240.173 909.128 239.672 909.533 239.032C909.938 238.392 910.226 237.624 910.397 236.728C910.589 235.811 910.685 234.787 910.685 233.656V230.008C910.685 228.899 910.589 227.885 910.397 226.968C910.226 226.051 909.938 225.272 909.533 224.632C909.128 223.992 908.616 223.501 907.997 223.16C907.378 222.797 906.621 222.616 905.725 222.616C904.829 222.616 904.072 222.797 903.453 223.16C902.834 223.501 902.322 223.992 901.917 224.632C901.512 225.272 901.213 226.051 901.021 226.968C900.85 227.885 900.765 228.899 900.765 230.008V233.656C900.765 234.787 900.85 235.811 901.021 236.728C901.213 237.624 901.512 238.392 901.917 239.032C902.322 239.672 902.834 240.173 903.453 240.536C904.072 240.877 904.829 241.048 905.725 241.048ZM919.153 243V220.664H921.841V240.664H932.433V243H919.153ZM942.724 238.648H946.852L943.172 247.512H941.028L942.724 238.648ZM987.435 231.8V224.728H987.179L982.475 236.216L977.771 224.728H977.515V231.8V243H975.051V220.664H978.507L982.443 230.52H982.635L986.571 220.664H989.899V243H987.435V231.8ZM1001.95 243.384C1000.76 243.384 999.679 243.181 998.719 242.776C997.78 242.371 996.969 241.795 996.286 241.048C995.625 240.28 995.113 239.373 994.751 238.328C994.388 237.261 994.207 236.077 994.207 234.776C994.207 233.453 994.388 232.259 994.751 231.192C995.135 230.125 995.657 229.219 996.319 228.472C996.98 227.704 997.769 227.117 998.687 226.712C999.625 226.307 1000.66 226.104 1001.79 226.104C1002.9 226.104 1003.9 226.307 1004.8 226.712C1005.72 227.117 1006.49 227.683 1007.13 228.408C1007.77 229.112 1008.27 229.955 1008.61 230.936C1008.95 231.917 1009.12 232.995 1009.12 234.168V235.384H996.895V236.152C996.895 236.877 997.012 237.549 997.247 238.168C997.481 238.787 997.812 239.32 998.239 239.768C998.687 240.216 999.22 240.568 999.839 240.824C1000.48 241.059 1001.18 241.176 1001.95 241.176C1003.06 241.176 1004.02 240.92 1004.83 240.408C1005.64 239.896 1006.26 239.192 1006.69 238.296L1008.57 239.576C1008.08 240.685 1007.26 241.603 1006.11 242.328C1004.98 243.032 1003.59 243.384 1001.95 243.384ZM1001.79 228.216C1001.09 228.216 1000.44 228.344 999.839 228.6C999.241 228.856 998.719 229.208 998.271 229.656C997.844 230.104 997.503 230.637 997.247 231.256C997.012 231.853 996.895 232.515 996.895 233.24V233.464H1006.37V233.112C1006.37 232.387 1006.25 231.725 1006.01 231.128C1005.8 230.531 1005.49 230.019 1005.09 229.592C1004.7 229.144 1004.22 228.803 1003.65 228.568C1003.09 228.333 1002.47 228.216 1001.79 228.216ZM1024.85 240.312H1024.72C1023.66 242.36 1021.96 243.384 1019.63 243.384C1017.61 243.384 1016.02 242.627 1014.87 241.112C1013.74 239.597 1013.17 237.475 1013.17 234.744C1013.17 232.013 1013.74 229.891 1014.87 228.376C1016.02 226.861 1017.61 226.104 1019.63 226.104C1021.96 226.104 1023.66 227.128 1024.72 229.176H1024.85V219.32H1027.41V243H1024.85V240.312ZM1020.63 241.112C1021.2 241.112 1021.75 241.037 1022.26 240.888C1022.77 240.739 1023.22 240.525 1023.6 240.248C1023.99 239.949 1024.28 239.597 1024.5 239.192C1024.73 238.765 1024.85 238.275 1024.85 237.72V231.768C1024.85 231.213 1024.73 230.733 1024.5 230.328C1024.28 229.901 1023.99 229.549 1023.6 229.272C1023.22 228.973 1022.77 228.749 1022.26 228.6C1021.75 228.451 1021.2 228.376 1020.63 228.376C1019.13 228.376 1017.97 228.835 1017.14 229.752C1016.33 230.648 1015.92 231.843 1015.92 233.336V236.152C1015.92 237.645 1016.33 238.851 1017.14 239.768C1017.97 240.664 1019.13 241.112 1020.63 241.112ZM1041.06 222.84C1040.31 222.84 1039.79 222.691 1039.49 222.392C1039.19 222.072 1039.05 221.677 1039.05 221.208V220.696C1039.05 220.227 1039.19 219.843 1039.49 219.544C1039.79 219.224 1040.31 219.064 1041.06 219.064C1041.81 219.064 1042.33 219.224 1042.63 219.544C1042.93 219.843 1043.08 220.227 1043.08 220.696V221.208C1043.08 221.677 1042.93 222.072 1042.63 222.392C1042.33 222.691 1041.81 222.84 1041.06 222.84ZM1033.83 240.824H1039.78V228.664H1033.83V226.488H1042.34V240.824H1047.91V243H1033.83V240.824ZM1065.47 243C1064.46 243 1063.75 242.744 1063.32 242.232C1062.89 241.72 1062.63 241.08 1062.52 240.312H1062.36C1062 241.272 1061.41 242.029 1060.6 242.584C1059.81 243.117 1058.75 243.384 1057.4 243.384C1055.67 243.384 1054.3 242.936 1053.27 242.04C1052.25 241.144 1051.74 239.917 1051.74 238.36C1051.74 236.824 1052.29 235.64 1053.4 234.808C1054.53 233.976 1056.35 233.56 1058.84 233.56H1062.36V231.928C1062.36 230.712 1062.02 229.805 1061.34 229.208C1060.65 228.589 1059.68 228.28 1058.43 228.28C1057.32 228.28 1056.41 228.504 1055.71 228.952C1055 229.379 1054.44 229.965 1054.01 230.712L1052.28 229.432C1052.49 229.005 1052.78 228.589 1053.15 228.184C1053.51 227.779 1053.96 227.427 1054.49 227.128C1055.02 226.808 1055.63 226.563 1056.31 226.392C1057 226.2 1057.75 226.104 1058.59 226.104C1060.53 226.104 1062.06 226.595 1063.19 227.576C1064.35 228.557 1064.92 229.923 1064.92 231.672V240.76H1067.23V243H1065.47ZM1057.85 241.24C1058.51 241.24 1059.11 241.165 1059.64 241.016C1060.2 240.845 1060.68 240.632 1061.08 240.376C1061.49 240.099 1061.8 239.779 1062.01 239.416C1062.24 239.032 1062.36 238.627 1062.36 238.2V235.48H1058.84C1057.31 235.48 1056.19 235.693 1055.48 236.12C1054.78 236.547 1054.43 237.165 1054.43 237.976V238.648C1054.43 239.501 1054.72 240.152 1055.32 240.6C1055.94 241.027 1056.78 241.24 1057.85 241.24ZM1073.77 234.616V231.928H1083.05V234.616H1073.77ZM1090.66 240.824H1096.22V228.664H1090.34V226.488H1096.22V223.096C1096.22 221.987 1096.51 221.08 1097.09 220.376C1097.69 219.672 1098.61 219.32 1099.87 219.32H1105.41V221.496H1098.78V226.488H1105.41V228.664H1098.78V240.824H1104.67V243H1090.66V240.824ZM1117.81 222.84C1117.06 222.84 1116.54 222.691 1116.24 222.392C1115.94 222.072 1115.8 221.677 1115.8 221.208V220.696C1115.8 220.227 1115.94 219.843 1116.24 219.544C1116.54 219.224 1117.06 219.064 1117.81 219.064C1118.56 219.064 1119.08 219.224 1119.38 219.544C1119.68 219.843 1119.83 220.227 1119.83 220.696V221.208C1119.83 221.677 1119.68 222.072 1119.38 222.392C1119.08 222.691 1118.56 222.84 1117.81 222.84ZM1110.58 240.824H1116.53V228.664H1110.58V226.488H1119.09V240.824H1124.66V243H1110.58V240.824ZM1128.94 240.824H1134.7V221.496H1128.94V219.32H1137.26V240.824H1143.02V243H1128.94V240.824ZM1155.45 243.384C1154.26 243.384 1153.18 243.181 1152.22 242.776C1151.28 242.371 1150.47 241.795 1149.79 241.048C1149.13 240.28 1148.61 239.373 1148.25 238.328C1147.89 237.261 1147.71 236.077 1147.71 234.776C1147.71 233.453 1147.89 232.259 1148.25 231.192C1148.63 230.125 1149.16 229.219 1149.82 228.472C1150.48 227.704 1151.27 227.117 1152.19 226.712C1153.13 226.307 1154.16 226.104 1155.29 226.104C1156.4 226.104 1157.4 226.307 1158.3 226.712C1159.22 227.117 1159.99 227.683 1160.63 228.408C1161.27 229.112 1161.77 229.955 1162.11 230.936C1162.45 231.917 1162.62 232.995 1162.62 234.168V235.384H1150.39V236.152C1150.39 236.877 1150.51 237.549 1150.75 238.168C1150.98 238.787 1151.31 239.32 1151.74 239.768C1152.19 240.216 1152.72 240.568 1153.34 240.824C1153.98 241.059 1154.68 241.176 1155.45 241.176C1156.56 241.176 1157.52 240.92 1158.33 240.408C1159.14 239.896 1159.76 239.192 1160.19 238.296L1162.07 239.576C1161.58 240.685 1160.76 241.603 1159.61 242.328C1158.48 243.032 1157.09 243.384 1155.45 243.384ZM1155.29 228.216C1154.59 228.216 1153.94 228.344 1153.34 228.6C1152.74 228.856 1152.22 229.208 1151.77 229.656C1151.34 230.104 1151 230.637 1150.75 231.256C1150.51 231.853 1150.39 232.515 1150.39 233.24V233.464H1159.87V233.112C1159.87 232.387 1159.75 231.725 1159.51 231.128C1159.3 230.531 1158.99 230.019 1158.59 229.592C1158.2 229.144 1157.72 228.803 1157.15 228.568C1156.59 228.333 1155.97 228.216 1155.29 228.216ZM1174.54 243.384C1172.81 243.384 1171.32 243.096 1170.06 242.52C1168.82 241.923 1167.77 241.133 1166.89 240.152L1168.62 238.648C1169.41 239.48 1170.28 240.12 1171.21 240.568C1172.15 241.016 1173.28 241.24 1174.61 241.24C1175.89 241.24 1176.93 241.016 1177.74 240.568C1178.57 240.099 1178.99 239.373 1178.99 238.392C1178.99 237.965 1178.9 237.613 1178.73 237.336C1178.58 237.037 1178.37 236.803 1178.09 236.632C1177.82 236.461 1177.51 236.333 1177.17 236.248C1176.82 236.141 1176.46 236.056 1176.08 235.992L1173.49 235.608C1172.91 235.523 1172.28 235.405 1171.6 235.256C1170.94 235.107 1170.33 234.872 1169.77 234.552C1169.22 234.211 1168.75 233.763 1168.37 233.208C1168 232.653 1167.82 231.928 1167.82 231.032C1167.82 230.2 1167.98 229.485 1168.3 228.888C1168.64 228.269 1169.11 227.757 1169.71 227.352C1170.31 226.925 1171.01 226.616 1171.82 226.424C1172.63 226.211 1173.52 226.104 1174.48 226.104C1175.97 226.104 1177.26 226.339 1178.35 226.808C1179.46 227.277 1180.41 227.928 1181.2 228.76L1179.53 230.328C1179.34 230.093 1179.1 229.859 1178.8 229.624C1178.52 229.368 1178.17 229.144 1177.74 228.952C1177.34 228.739 1176.86 228.568 1176.3 228.44C1175.75 228.312 1175.11 228.248 1174.38 228.248C1173.08 228.248 1172.08 228.472 1171.37 228.92C1170.69 229.368 1170.35 230.019 1170.35 230.872C1170.35 231.299 1170.42 231.661 1170.57 231.96C1170.74 232.237 1170.97 232.461 1171.25 232.632C1171.52 232.803 1171.83 232.941 1172.17 233.048C1172.54 233.133 1172.9 233.208 1173.26 233.272L1175.85 233.656C1176.45 233.741 1177.08 233.859 1177.74 234.008C1178.4 234.157 1179.01 234.403 1179.57 234.744C1180.12 235.064 1180.58 235.501 1180.94 236.056C1181.33 236.611 1181.52 237.336 1181.52 238.232C1181.52 239.875 1180.88 241.144 1179.6 242.04C1178.34 242.936 1176.65 243.384 1174.54 243.384Z" fill="black"/>
<line x1="761" y1="462" x2="1405" y2="462" stroke="black" stroke-width="6"/>
<line x1="1402" y1="781" x2="1402" y2="141" stroke="black" stroke-width="6"/>
</g>
<defs>
<clipPath id="clip0">
<rect width="1546" height="971" fill="white"/>
</clipPath>
</defs>
</svg>
