<svg width="94" height="88" viewBox="0 0 94 88" fill="none" xmlns="http://www.w3.org/2000/svg">
<circle cx="64" cy="58" r="30" fill="#F4DB8D"/>
<path d="M31.7734 39H34.1605" stroke="#2D0469" stroke-width="2" stroke-miterlimit="10"/>
<path d="M36.5508 39H38.9379" stroke="#2D0469" stroke-width="2" stroke-miterlimit="10"/>
<path d="M27 39H29.3871" stroke="#2D0469" stroke-width="2" stroke-miterlimit="10"/>
<path d="M56.1389 14.0039L51.7471 25.7723L40.1401 21.7463" stroke="#2D0469" stroke-width="2" stroke-linecap="round" stroke-linejoin="round"/>
<path d="M49.8649 70.6833L40.1401 61.3924L49.8649 52.1016" stroke="#2D0469" stroke-width="2" stroke-linecap="round" stroke-linejoin="round"/>
<path d="M3.42822 35.0655L15.6625 32.5879L18.4858 44.666" stroke="#2D0469" stroke-width="2" stroke-linecap="round" stroke-linejoin="round"/>
<path d="M55.8252 34.4473L70.5691 58.9132C71.5102 60.4617 70.8828 61.7005 69.0006 61.7005H40.1401" stroke="#2D0469" stroke-width="2" stroke-linecap="round" stroke-linejoin="round"/>
<path d="M20.3726 25.7757L34.4891 2.23878C34.8028 1.61939 35.4302 1 36.0576 1C36.685 1 37.3124 1.3097 37.6261 2.23878L51.7426 25.7757" stroke="#2D0469" stroke-width="2" stroke-linecap="round" stroke-linejoin="round"/>
<path d="M29.782 61.3896H3.11748C2.49008 61.3896 1.54898 61.0799 1.23528 60.4605C0.921575 59.8411 0.921575 59.2217 1.23528 58.6023L15.3518 32.5879" stroke="#2D0469" stroke-width="2" stroke-linecap="round" stroke-linejoin="round"/>
</svg>
