<svg width="98" height="76" viewBox="0 0 98 76" fill="none" xmlns="http://www.w3.org/2000/svg">
<circle cx="30" cy="33" r="30" fill="#83EABF"/>
<path d="M76.5273 1V10.5166H86.044" stroke="#2D0469" stroke-width="2" stroke-miterlimit="10"/>
<path d="M86.0427 40.2561V10.5166L76.526 1H33.7012V40.2561" stroke="#2D0469" stroke-width="2" stroke-miterlimit="10"/>
<path d="M33.7012 54.5312V74.7541H86.0427V59.2896" stroke="#2D0469" stroke-width="2" stroke-miterlimit="10"/>
<path d="M33.7075 50.9629H90.8073" stroke="#2D0469" stroke-width="2" stroke-miterlimit="10"/>
<path d="M90.8073 43.8242H33.7075" stroke="#2D0469" stroke-width="2" stroke-miterlimit="10"/>
<path d="M96.7541 43.8242H90.8062V50.9617H96.7541V43.8242Z" stroke="#2D0469" stroke-width="2" stroke-miterlimit="10"/>
<path d="M33.7062 43.8242H31.3271L23 47.393L31.3271 50.9617H33.7062V43.8242Z" stroke="#2D0469" stroke-width="2" stroke-miterlimit="10" stroke-linecap="square" stroke-linejoin="round"/>
<path d="M47.98 50.9617V43.8242" stroke="#2D0469" stroke-width="2" stroke-miterlimit="10"/>
<path d="M68.2017 55.72H86.0454V43.8242" stroke="#2D0469" stroke-width="2" stroke-miterlimit="10"/>
<path d="M39.6514 60.4805C42.0305 60.4805 42.0305 62.8596 44.4097 62.8596C46.7888 62.8596 46.7888 60.4805 49.168 60.4805C51.5472 60.4805 51.5472 62.8596 53.9263 62.8596C56.3055 62.8596 56.3055 60.4805 58.6846 60.4805C61.0638 60.4805 61.0638 62.8596 63.443 62.8596" stroke="#2D0469" stroke-width="2" stroke-miterlimit="10"/>
<path d="M39.6514 10.5176H42.0305" stroke="#2D0469" stroke-width="2" stroke-miterlimit="10"/>
<path d="M44.4087 10.5176H46.7879" stroke="#2D0469" stroke-width="2" stroke-miterlimit="10"/>
<path d="M49.1665 10.5176H51.5457" stroke="#2D0469" stroke-width="2" stroke-miterlimit="10"/>
<path d="M39.6514 17.6543H80.0971" stroke="#2D0469" stroke-width="2" stroke-miterlimit="10"/>
<path d="M39.6514 22.4121H80.0971" stroke="#2D0469" stroke-width="2" stroke-miterlimit="10"/>
<path d="M39.6514 27.1699H80.0971" stroke="#2D0469" stroke-width="2" stroke-miterlimit="10"/>
<path d="M39.6514 31.9277H80.0971" stroke="#2D0469" stroke-width="2" stroke-miterlimit="10"/>
<path d="M39.6514 36.6875H58.6846" stroke="#2D0469" stroke-width="2" stroke-miterlimit="10"/>
<path d="M39.6514 67.6152H63.443" stroke="#2D0469" stroke-width="2" stroke-miterlimit="10"/>
</svg>
