<svg width="87" height="88" viewBox="0 0 87 88" fill="none" xmlns="http://www.w3.org/2000/svg">
<circle cx="57" cy="30" r="30" fill="#F4DB8D"/>
<path d="M45.4886 62.4996C45.4886 60.5759 46.9314 59.1331 48.8551 58.8926C48.254 54.9249 46.6909 51.3179 44.4065 48.1918C43.6851 48.9132 42.8435 49.2739 41.8816 49.2739C39.8376 49.2739 38.2746 47.7109 38.2746 45.6669C38.2746 44.705 38.6353 43.8634 39.2365 43.142C36.1104 40.8576 32.5034 39.2945 28.5357 38.6934C28.4154 40.4969 26.8524 42.0599 24.9287 42.0599C23.0049 42.0599 21.5621 40.6171 21.3217 38.6934C17.354 39.2945 13.747 40.8576 10.6209 43.142C11.4625 43.8634 11.8232 44.705 11.8232 45.6669C11.8232 47.7109 10.2602 49.2739 8.21622 49.2739C7.25435 49.2739 6.41272 48.9132 5.69131 48.312C3.40688 51.3179 1.84384 54.9249 1.24268 58.8926C3.16641 59.1331 4.60921 60.5759 4.60921 62.4996C4.60921 64.4233 3.16641 65.8661 1.24268 66.1066C1.84384 70.0743 3.40688 73.6813 5.69131 76.8074C6.41272 76.086 7.25435 75.7253 8.21622 75.7253C10.2602 75.7253 11.8232 77.2883 11.8232 79.3323C11.8232 80.2941 11.4625 81.1358 10.8614 81.8572C13.9874 84.1416 17.5944 85.7047 21.5621 86.3058C21.6824 84.5023 23.2454 82.9393 25.1691 82.9393C27.0929 82.9393 28.5357 84.3821 28.7761 86.3058C32.7438 85.7047 36.3509 84.1416 39.4769 81.8572C38.6353 81.1358 38.2746 80.2941 38.2746 79.3323C38.2746 77.2883 39.8376 75.7253 41.8816 75.7253C42.8435 75.7253 43.6851 76.086 44.4065 76.6871C46.6909 73.5611 48.254 69.9541 48.8551 65.9864C46.9314 65.8661 45.4886 64.4233 45.4886 62.4996Z" stroke="#2D0469" stroke-width="2" stroke-miterlimit="10"/>
<path d="M25.05 73.3217C31.0263 73.3217 35.871 68.477 35.871 62.5007C35.871 56.5244 31.0263 51.6797 25.05 51.6797C19.0737 51.6797 14.229 56.5244 14.229 62.5007C14.229 68.477 19.0737 73.3217 25.05 73.3217Z" stroke="#2D0469" stroke-width="2" stroke-miterlimit="10"/>
<path d="M25.0499 66.1066C27.042 66.1066 28.6569 64.4917 28.6569 62.4996C28.6569 60.5075 27.042 58.8926 25.0499 58.8926C23.0578 58.8926 21.4429 60.5075 21.4429 62.4996C21.4429 64.4917 23.0578 66.1066 25.0499 66.1066Z" stroke="#2D0469" stroke-width="2" stroke-miterlimit="10"/>
<path d="M71.9402 30.0356C71.9402 28.1119 73.383 26.6691 75.1865 26.4286C74.7056 24.024 73.7437 21.8598 72.4212 19.936C71.9402 20.2967 71.3391 20.417 70.7379 20.417C68.6939 20.417 67.1309 18.8539 67.1309 16.81C67.1309 16.2088 67.2511 15.6076 67.6118 15.1267C65.6881 13.8041 63.5239 12.8423 61.1192 12.3613C60.8787 14.1648 59.4359 15.6076 57.5122 15.6076C55.5885 15.6076 54.1457 14.1648 53.9052 12.3613C51.5005 12.8423 49.3363 13.8041 47.4126 15.1267C47.7733 15.6076 47.8935 16.2088 47.8935 16.81C47.8935 18.8539 46.3305 20.417 44.2865 20.417C43.6854 20.417 43.0842 20.2967 42.6033 19.936C41.2807 21.8598 40.3188 24.024 39.8379 26.4286C41.6414 26.6691 43.0842 28.1119 43.0842 30.0356C43.0842 31.9594 41.6414 33.4022 39.8379 33.6427C40.3188 36.0473 41.2807 38.2115 42.6033 40.1353C43.0842 39.7746 43.6854 39.6543 44.2865 39.6543C46.3305 39.6543 47.8935 41.2174 47.8935 43.2613C47.8935 43.8625 47.7733 44.4637 47.4126 44.9446C49.3363 46.2672 51.5005 47.229 53.9052 47.71C54.1457 45.9065 55.5885 44.4637 57.5122 44.4637C59.4359 44.4637 60.8787 45.9065 61.1192 47.71C63.5239 47.229 65.6881 46.2672 67.6118 44.9446C67.2511 44.4637 67.1309 43.8625 67.1309 43.2613C67.1309 41.2174 68.6939 39.6543 70.7379 39.6543C71.3391 39.6543 71.9402 39.7746 72.4212 40.1353C73.7437 38.2115 74.7056 36.0473 75.1865 33.6427C73.383 33.4022 71.9402 31.9594 71.9402 30.0356Z" stroke="#2D0469" stroke-width="2" stroke-miterlimit="10"/>
<path d="M57.512 34.8452C60.1681 34.8452 62.3213 32.692 62.3213 30.0359C62.3213 27.3798 60.1681 25.2266 57.512 25.2266C54.8559 25.2266 52.7026 27.3798 52.7026 30.0359C52.7026 32.692 54.8559 34.8452 57.512 34.8452Z" stroke="#2D0469" stroke-width="2" stroke-miterlimit="10"/>
<path d="M1 45.6654V44.463C2.20233 24.9852 20.9588 12 40.677 12C42.721 12 43.0817 12 43.0817 12" stroke="#2D0469" stroke-width="2" stroke-miterlimit="10"/>
<path d="M41.8794 86.5446H43.0817C62.5596 85.3423 75.5448 66.5858 75.5448 46.8676C75.5448 44.7034 75.5448 44.4629 75.5448 44.4629" stroke="#2D0469" stroke-width="2" stroke-miterlimit="10"/>
</svg>
