<svg width="83" height="86" viewBox="0 0 83 86" fill="none" xmlns="http://www.w3.org/2000/svg">
<circle cx="30" cy="56" r="30" fill="#F4DB8D"/>
<path d="M22.3228 45.1619V9.35547H30.6776" stroke="#2D0469" stroke-width="2" stroke-miterlimit="10"/>
<path d="M61.7099 9.35547H70.0647V75.0006H59.3228" stroke="#2D0469" stroke-width="2" stroke-miterlimit="10"/>
<path d="M52.1615 6.96774C52.1615 3.3871 49.5357 1 46.1938 1C42.8518 1 40.226 3.3871 40.226 6.96774H34.2583V11.7419H58.1293V6.96774H52.1615Z" stroke="#2D0469" stroke-width="2" stroke-miterlimit="10"/>
<path d="M45 6.9668H47.3871" stroke="#2D0469" stroke-width="2" stroke-miterlimit="10"/>
<path d="M27.0972 42.7748V9.35547" stroke="#2D0469" stroke-width="2" stroke-miterlimit="10"/>
<path d="M65.2905 9.35547V53.5168" stroke="#2D0469" stroke-width="2" stroke-miterlimit="10"/>
<path d="M33.0635 24.8711H35.4506" stroke="#2D0469" stroke-width="2" stroke-miterlimit="10"/>
<path d="M37.8379 24.8711H59.3218" stroke="#2D0469" stroke-width="2" stroke-miterlimit="10"/>
<path d="M33.0635 29.6465H35.4506" stroke="#2D0469" stroke-width="2" stroke-miterlimit="10"/>
<path d="M37.8379 29.6465H59.3218" stroke="#2D0469" stroke-width="2" stroke-miterlimit="10"/>
<path d="M33.0635 20.0977H35.4506" stroke="#2D0469" stroke-width="2" stroke-miterlimit="10"/>
<path d="M37.8379 20.0977H59.3218" stroke="#2D0469" stroke-width="2" stroke-miterlimit="10"/>
<path d="M33.0635 34.4199H35.4506" stroke="#2D0469" stroke-width="2" stroke-miterlimit="10"/>
<path d="M37.8379 34.4199H59.3218" stroke="#2D0469" stroke-width="2" stroke-miterlimit="10"/>
<path d="M33.0635 39.1953H35.4506" stroke="#2D0469" stroke-width="2" stroke-miterlimit="10"/>
<path d="M37.8379 39.1953H59.3218" stroke="#2D0469" stroke-width="2" stroke-miterlimit="10"/>
<path d="M81.9998 74.9987H77.2256V11.7406L78.4191 9.35352H80.8062L81.9998 11.7406V74.9987Z" stroke="#2D0469" stroke-width="2" stroke-miterlimit="10"/>
<path d="M79.6128 9.35408V5.77344" stroke="#2D0469" stroke-width="2" stroke-miterlimit="10"/>
<path d="M81.9998 18.9023H77.2256" stroke="#2D0469" stroke-width="2" stroke-miterlimit="10"/>
<path d="M81.9998 23.6758H77.2256" stroke="#2D0469" stroke-width="2" stroke-miterlimit="10"/>
<path d="M81.9998 28.4512H77.2256" stroke="#2D0469" stroke-width="2" stroke-miterlimit="10"/>
<path d="M81.9998 70.2246H77.2256" stroke="#2D0469" stroke-width="2" stroke-miterlimit="10"/>
<path d="M65.2903 60.678C65.2903 60.678 52.5194 75.0006 36.6452 75.0006C20.771 75.0006 8 60.678 8 60.678C8 60.678 20.771 46.3555 36.6452 46.3555C52.5194 46.3555 65.2903 60.678 65.2903 60.678Z" stroke="#2D0469" stroke-width="2" stroke-miterlimit="10" stroke-linejoin="round"/>
<path d="M36.6453 75.0006C44.5555 75.0006 50.9679 68.5882 50.9679 60.678C50.9679 52.7679 44.5555 46.3555 36.6453 46.3555C28.7352 46.3555 22.3228 52.7679 22.3228 60.678C22.3228 68.5882 28.7352 75.0006 36.6453 75.0006Z" stroke="#2D0469" stroke-width="2" stroke-miterlimit="10" stroke-linejoin="round"/>
<path d="M46.1935 60.6773C46.1935 65.9289 41.8967 70.2257 36.6451 70.2257C31.3935 70.2257 27.0967 65.9289 27.0967 60.6773C27.0967 55.4257 31.3935 51.1289 36.6451 51.1289" stroke="#2D0469" stroke-width="2" stroke-miterlimit="10" stroke-linejoin="round"/>
<path d="M43.8064 55.9023L36.6451 63.0636L33.0645 59.483" stroke="#2D0469" stroke-width="2" stroke-miterlimit="10" stroke-linejoin="round"/>
<path d="M56.9354 75H54.5483" stroke="#2D0469" stroke-width="2" stroke-miterlimit="10"/>
</svg>
