<svg width="101" height="87" viewBox="0 0 101 87" fill="none" xmlns="http://www.w3.org/2000/svg">
<circle cx="30" cy="57" r="30" fill="#83EABF"/>
<path d="M82.5824 31.9277H51.6533V43.8235H82.5824V31.9277Z" stroke="#2D0469" stroke-width="2" stroke-miterlimit="10"/>
<path d="M48.0833 35.498H43.325C42.0164 35.498 40.9458 34.4274 40.9458 33.1188V17.6543" stroke="#2D0469" stroke-width="2" stroke-miterlimit="10" stroke-linejoin="round"/>
<path d="M45.7051 22.4126L40.9468 17.6543L36.1885 22.4126" stroke="#2D0469" stroke-width="2" stroke-miterlimit="10" stroke-linejoin="round"/>
<path d="M86.1528 35.498H90.9112C92.2197 35.498 93.2903 34.4274 93.2903 33.1188V17.6543" stroke="#2D0469" stroke-width="2" stroke-miterlimit="10"/>
<path d="M88.5293 22.4126L93.2876 17.6543L98.0459 22.4126" stroke="#2D0469" stroke-width="2" stroke-miterlimit="10"/>
<path d="M67.1187 28.3605V17.6543" stroke="#2D0469" stroke-width="2" stroke-miterlimit="10"/>
<path d="M71.8775 22.4126L67.1192 17.6543L62.3608 22.4126" stroke="#2D0469" stroke-width="2" stroke-miterlimit="10"/>
<path d="M48.0833 40.2578H43.325C42.0164 40.2578 40.9458 41.3284 40.9458 42.637V58.1015" stroke="#2D0469" stroke-width="2" stroke-miterlimit="10" stroke-linejoin="round"/>
<path d="M45.7051 53.3418L40.9468 58.1001L36.1885 53.3418" stroke="#2D0469" stroke-width="2" stroke-miterlimit="10" stroke-linejoin="round"/>
<path d="M86.1528 40.2578H90.9112C92.2197 40.2578 93.2903 41.3284 93.2903 42.637V58.1015" stroke="#2D0469" stroke-width="2" stroke-miterlimit="10"/>
<path d="M88.5293 53.3418L93.2876 58.1001L98.0459 53.3418" stroke="#2D0469" stroke-width="2" stroke-miterlimit="10"/>
<path d="M67.1187 47.3926V58.0988" stroke="#2D0469" stroke-width="2" stroke-miterlimit="10"/>
<path d="M71.8775 53.3418L67.1192 58.1001L62.3608 53.3418" stroke="#2D0469" stroke-width="2" stroke-miterlimit="10"/>
<path d="M40.9479 12.8958C44.2328 12.8958 46.8958 10.2328 46.8958 6.9479C46.8958 3.66296 44.2328 1 40.9479 1C37.663 1 35 3.66296 35 6.9479C35 10.2328 37.663 12.8958 40.9479 12.8958Z" stroke="#2D0469" stroke-width="2" stroke-miterlimit="10"/>
<path d="M67.1208 12.8958C70.4057 12.8958 73.0686 10.2328 73.0686 6.9479C73.0686 3.66296 70.4057 1 67.1208 1C63.8358 1 61.1729 3.66296 61.1729 6.9479C61.1729 10.2328 63.8358 12.8958 67.1208 12.8958Z" stroke="#2D0469" stroke-width="2" stroke-miterlimit="10"/>
<path d="M93.2892 12.8958C96.5741 12.8958 99.2371 10.2328 99.2371 6.9479C99.2371 3.66296 96.5741 1 93.2892 1C90.0043 1 87.3413 3.66296 87.3413 6.9479C87.3413 10.2328 90.0043 12.8958 93.2892 12.8958Z" stroke="#2D0469" stroke-width="2" stroke-miterlimit="10"/>
<path d="M40.9479 74.7532C44.2328 74.7532 46.8958 72.0903 46.8958 68.8053C46.8958 65.5204 44.2328 62.8574 40.9479 62.8574C37.663 62.8574 35 65.5204 35 68.8053C35 72.0903 37.663 74.7532 40.9479 74.7532Z" stroke="#2D0469" stroke-width="2" stroke-miterlimit="10"/>
<path d="M67.1208 74.7532C70.4057 74.7532 73.0686 72.0903 73.0686 68.8053C73.0686 65.5204 70.4057 62.8574 67.1208 62.8574C63.8358 62.8574 61.1729 65.5204 61.1729 68.8053C61.1729 72.0903 63.8358 74.7532 67.1208 74.7532Z" stroke="#2D0469" stroke-width="2" stroke-miterlimit="10"/>
<path d="M93.2892 74.7532C96.5741 74.7532 99.2371 72.0903 99.2371 68.8053C99.2371 65.5204 96.5741 62.8574 93.2892 62.8574C90.0043 62.8574 87.3413 65.5204 87.3413 68.8053C87.3413 72.0903 90.0043 74.7532 93.2892 74.7532Z" stroke="#2D0469" stroke-width="2" stroke-miterlimit="10"/>
<path d="M65.9302 37.877H68.3093" stroke="#2D0469" stroke-width="2" stroke-miterlimit="10"/>
<path d="M61.1729 37.877H63.552" stroke="#2D0469" stroke-width="2" stroke-miterlimit="10"/>
<path d="M70.6875 37.877H73.0667" stroke="#2D0469" stroke-width="2" stroke-miterlimit="10"/>
</svg>
