<svg width="96" height="81" viewBox="0 0 96 81" fill="none" xmlns="http://www.w3.org/2000/svg">
<circle cx="30" cy="51" r="30" fill="#F4DB8D"/>
<path d="M71.7012 46.6895V62.3198H77.7128" stroke="#2D0469" stroke-width="2" stroke-miterlimit="10"/>
<path d="M70.499 67.1276H76.5107V71.9369H71.7013V75.544H64.4873V50.2949" stroke="#2D0469" stroke-width="2" stroke-miterlimit="10"/>
<path d="M68.094 32.2613C70.7501 32.2613 72.9033 30.108 72.9033 27.4519C72.9033 24.7958 70.7501 22.6426 68.094 22.6426C65.4379 22.6426 63.2847 24.7958 63.2847 27.4519C63.2847 30.108 65.4379 32.2613 68.094 32.2613Z" stroke="#2D0469" stroke-width="2" stroke-miterlimit="10"/>
<path d="M68.0935 46.6881C76.0619 46.6881 82.5216 40.2284 82.5216 32.26C82.5216 24.2917 76.0619 17.832 68.0935 17.832C60.1252 17.832 53.6655 24.2917 53.6655 32.26C53.6655 40.2284 60.1252 46.6881 68.0935 46.6881Z" stroke="#2D0469" stroke-width="2" stroke-miterlimit="10"/>
<path d="M41.642 31.0586L20 52.7006V58.7123H29.6187V55.1053H34.428V50.296H39.2374V45.4866L45.249 39.4749" stroke="#2D0469" stroke-width="2" stroke-miterlimit="10"/>
<path d="M50.1784 37.4304C44.5274 35.5067 40.4395 30.2164 40.4395 23.844C40.4395 15.9086 46.9321 9.41602 54.8675 9.41602C59.1959 9.41602 62.9231 11.2195 65.5683 14.2254" stroke="#2D0469" stroke-width="2" stroke-miterlimit="10"/>
<path d="M45.249 23.8452C45.249 18.555 49.5774 14.2266 54.8677 14.2266" stroke="#2D0469" stroke-width="2" stroke-miterlimit="10"/>
<path d="M65.689 8.21401C68.4543 3.8856 73.3839 1 78.9146 1C87.5715 1 94.545 7.97354 94.545 16.6304C94.545 25.2872 87.5715 32.2607 78.9146 32.2607C74.5862 32.2607 70.6185 30.4572 67.8532 27.6918" stroke="#2D0469" stroke-width="2" stroke-miterlimit="10"/>
</svg>
