<svg width="86" height="80" viewBox="0 0 86 80" fill="none" xmlns="http://www.w3.org/2000/svg">
<circle cx="56" cy="30" r="30" fill="#83EABF"/>
<path d="M41.4457 9.75781H55.7207V78.7534H1V9.75781H15.275" stroke="#2D0469" stroke-width="2" stroke-miterlimit="10" stroke-linejoin="round"/>
<path d="M41.4476 5H15.2769V16.8958H41.4476V5Z" stroke="#2D0469" stroke-width="2" stroke-miterlimit="10" stroke-linejoin="round"/>
<path d="M45.0152 14.5176H48.5839V71.6174H8.13818V14.5176H11.7069" stroke="#2D0469" stroke-width="2" stroke-miterlimit="10" stroke-linejoin="round"/>
<path d="M15.2715 62.0967C15.2715 46.989 26.3346 34.7363 41.4422 34.7363" stroke="#2D0469" stroke-width="2" stroke-miterlimit="10"/>
<path d="M36.6824 41.8763L41.4407 34.7388L34.3032 29.9805" stroke="#2D0469" stroke-width="2" stroke-miterlimit="10"/>
<path d="M29.5483 60.9073L39.065 51.3906" stroke="#2D0469" stroke-width="2" stroke-miterlimit="10"/>
<path d="M29.5483 51.3906L39.065 60.9073" stroke="#2D0469" stroke-width="2" stroke-miterlimit="10"/>
<path d="M18.8402 33.5476C20.8112 33.5476 22.409 31.9499 22.409 29.9789C22.409 28.0079 20.8112 26.4102 18.8402 26.4102C16.8693 26.4102 15.2715 28.0079 15.2715 29.9789C15.2715 31.9499 16.8693 33.5476 18.8402 33.5476Z" stroke="#2D0469" stroke-width="2" stroke-miterlimit="10"/>
<path d="M36.6883 8.56836V12.1371H20.0342V8.56836" stroke="#2D0469" stroke-width="2" stroke-miterlimit="10" stroke-linejoin="round"/>
</svg>
