<svg width="93" height="86" viewBox="0 0 93 86" fill="none" xmlns="http://www.w3.org/2000/svg">
<circle cx="30" cy="30" r="30" fill="#F4DB8D"/>
<path d="M47.0566 45.2514V29.6211H51.866V45.2514" stroke="#2D0469" stroke-width="2" stroke-miterlimit="10" stroke-linejoin="round"/>
<path d="M36.2356 20.002H31.4263V29.6206H36.2356C36.2356 28.2981 37.7986 27.216 39.8426 27.216C41.8866 27.216 43.4496 28.2981 43.4496 29.6206H54.2706V27.216C54.2706 27.216 63.8893 27.216 66.294 32.0253C66.294 21.2043 54.2706 21.2043 54.2706 21.2043V20.002H43.4496C43.4496 21.3245 41.8866 22.4066 39.8426 22.4066C37.7986 22.4066 36.2356 21.3245 36.2356 20.002Z" stroke="#2D0469" stroke-width="2" stroke-miterlimit="10" stroke-linejoin="round"/>
<path d="M49.4614 47.6562V50.0609" stroke="#2D0469" stroke-width="2" stroke-miterlimit="10" stroke-linejoin="round"/>
<path d="M49.4614 52.4648V54.8695" stroke="#2D0469" stroke-width="2" stroke-miterlimit="10" stroke-linejoin="round"/>
<path d="M49.4614 57.2734V59.6781" stroke="#2D0469" stroke-width="2" stroke-miterlimit="10" stroke-linejoin="round"/>
<path d="M54.2704 48.8582C54.2704 46.213 52.1062 44.0488 49.4611 44.0488C46.8159 44.0488 44.6517 46.213 44.6517 48.8582V80.1189L42.2471 82.5235V84.9282H54.2704V48.8582Z" stroke="#2D0469" stroke-width="2" stroke-miterlimit="10" stroke-linejoin="round"/>
<path d="M68.7017 75.3086C68.7017 80.1179 75.9157 84.9273 75.9157 84.9273V75.3086" stroke="#2D0469" stroke-width="2" stroke-miterlimit="10" stroke-linejoin="round"/>
<path d="M79.5227 71.7023C81.5666 71.7023 83.1297 73.2654 83.1297 75.3094V84.928C84.332 84.928 91.546 81.321 91.546 71.7023C91.546 62.0837 83.1297 59.679 83.1297 59.679V24.8113C83.1297 22.1662 80.9655 20.002 78.3203 20.002C75.6752 20.002 73.511 22.1662 73.511 24.8113V59.679C73.511 63.286 68.7017 64.4883 68.7017 71.7023H79.5227Z" stroke="#2D0469" stroke-width="2" stroke-miterlimit="10" stroke-linejoin="round"/>
<path d="M77.1182 66.8926H81.9275" stroke="#2D0469" stroke-width="2" stroke-miterlimit="10" stroke-linejoin="round"/>
<path d="M78.3203 26.014V23.6094" stroke="#2D0469" stroke-width="2" stroke-miterlimit="10" stroke-linejoin="round"/>
<path d="M78.3203 30.8226V28.418" stroke="#2D0469" stroke-width="2" stroke-miterlimit="10" stroke-linejoin="round"/>
<path d="M78.3203 35.6332V33.2285" stroke="#2D0469" stroke-width="2" stroke-miterlimit="10" stroke-linejoin="round"/>
<path d="M68.7017 75.3101V71.7031" stroke="#2D0469" stroke-width="2" stroke-miterlimit="10" stroke-linejoin="round"/>
<path d="M26.6187 53.666H17V56.0707L19.4047 58.4754L17 62.0824V84.9267H26.6187V62.0824L24.214 58.4754L26.6187 56.0707V53.666Z" stroke="#2D0469" stroke-width="2" stroke-miterlimit="10" stroke-linejoin="round"/>
<path d="M21.8096 29.6191V53.6658" stroke="#2D0469" stroke-width="2" stroke-miterlimit="10" stroke-linejoin="round"/>
<path d="M17 80.1172H26.6187" stroke="#2D0469" stroke-width="2" stroke-miterlimit="10" stroke-linejoin="round"/>
<path d="M24.2141 20H19.4048V29.6187H24.2141V20Z" stroke="#2D0469" stroke-width="2" stroke-miterlimit="10" stroke-linejoin="round"/>
<path d="M21.8096 64.4863V66.891" stroke="#2D0469" stroke-width="2" stroke-miterlimit="10" stroke-linejoin="round"/>
<path d="M21.8096 69.2949V71.6996" stroke="#2D0469" stroke-width="2" stroke-miterlimit="10" stroke-linejoin="round"/>
<path d="M21.8096 74.1055V76.5101" stroke="#2D0469" stroke-width="2" stroke-miterlimit="10" stroke-linejoin="round"/>
</svg>
