<svg width="76" height="100" viewBox="0 0 76 100" fill="none" xmlns="http://www.w3.org/2000/svg">
<circle cx="30" cy="30" r="30" fill="#F4DB8D"/>
<path d="M14.129 88.2581C21.38 88.2581 27.2581 82.38 27.2581 75.129C27.2581 67.8781 21.38 62 14.129 62C6.87807 62 1 67.8781 1 75.129C1 82.38 6.87807 88.2581 14.129 88.2581Z" stroke="#2D0469" stroke-width="2" stroke-miterlimit="10"/>
<path d="M61.8712 88.2581C69.1222 88.2581 75.0002 82.38 75.0002 75.129C75.0002 67.8781 69.1222 62 61.8712 62C54.6203 62 48.7422 67.8781 48.7422 75.129C48.7422 82.38 54.6203 88.2581 61.8712 88.2581Z" stroke="#2D0469" stroke-width="2" stroke-miterlimit="10"/>
<path d="M38.0001 51.2581C45.2511 51.2581 51.1292 45.38 51.1292 38.129C51.1292 30.8781 45.2511 25 38.0001 25C30.7492 25 24.8711 30.8781 24.8711 38.129C24.8711 45.38 30.7492 51.2581 38.0001 51.2581Z" stroke="#2D0469" stroke-width="2" stroke-miterlimit="10"/>
<path d="M50.7695 36.1016C59.005 39.8016 65.4502 47.0822 67.8373 56.0338" stroke="#2D0469" stroke-width="2" stroke-miterlimit="10"/>
<path d="M6.96875 64.3866C6.96875 54.8382 11.3849 46.2447 18.1881 40.5156" stroke="#2D0469" stroke-width="2" stroke-miterlimit="10"/>
<path d="M58.4116 87.7793C52.9212 92.5535 45.76 95.418 38.0019 95.418C33.8245 95.418 29.7664 94.5825 26.0664 93.0309" stroke="#2D0469" stroke-width="2" stroke-miterlimit="10"/>
<path d="M29.6471 98.9994L26.0664 93.0316L32.0341 90.6445" stroke="#2D0469" stroke-width="2" stroke-miterlimit="10" stroke-linecap="round"/>
<path d="M11.7422 40.5156H17.7099V46.4834" stroke="#2D0469" stroke-width="2" stroke-miterlimit="10" stroke-linecap="round"/>
<path d="M70.2259 50.0645L67.8388 56.0322L61.8711 53.6451" stroke="#2D0469" stroke-width="2" stroke-miterlimit="10" stroke-linecap="round"/>
<path d="M36.8047 62H39.1918" stroke="#2D0469" stroke-width="2" stroke-miterlimit="10"/>
<path d="M41.582 62H43.9691" stroke="#2D0469" stroke-width="2" stroke-miterlimit="10"/>
<path d="M32.0312 62H34.4183" stroke="#2D0469" stroke-width="2" stroke-miterlimit="10"/>
<path d="M57.0977 79.9039L66.646 70.3555" stroke="#2D0469" stroke-width="2" stroke-miterlimit="10"/>
<path d="M57.0977 70.3555L66.646 79.9039" stroke="#2D0469" stroke-width="2" stroke-miterlimit="10"/>
<path d="M43.9667 34.5488L36.8054 41.7101L32.0312 36.9359" stroke="#2D0469" stroke-width="2" stroke-miterlimit="10"/>
<path d="M14.1289 81.0977V83.4848" stroke="#2D0469" stroke-width="2" stroke-miterlimit="10"/>
<path d="M10.5469 71.5494C10.5469 69.5204 12.0985 67.9688 14.1275 67.9688C16.1566 67.9688 17.7082 69.5204 17.7082 71.5494C17.7082 73.5784 16.1566 75.13 14.1275 75.13V78.7107" stroke="#2D0469" stroke-width="2" stroke-miterlimit="10"/>
</svg>
