<svg width="92" height="80" viewBox="0 0 92 80" fill="none" xmlns="http://www.w3.org/2000/svg">
<circle cx="62" cy="30" r="30" fill="#83EABF"/>
<path d="M38.0688 7.75781V74.3743" stroke="#2D0469" stroke-width="2" stroke-miterlimit="10"/>
<path d="M4.75732 41.0664H71.3738" stroke="#2D0469" stroke-width="2" stroke-miterlimit="10"/>
<path d="M29.7403 13.7051L19.0341 24.4113L15.4653 20.8426" stroke="#2D0469" stroke-width="2" stroke-miterlimit="10" stroke-linejoin="round"/>
<path d="M27.3616 23.2217V30.3592H10.7075V13.7051H21.4137" stroke="#2D0469" stroke-width="2" stroke-miterlimit="10"/>
<path d="M68.9971 13.7051L58.2909 24.4113L54.7222 20.8426" stroke="#2D0469" stroke-width="2" stroke-miterlimit="10" stroke-linejoin="round"/>
<path d="M66.6146 23.2217V30.3592H49.9604V13.7051H60.6667" stroke="#2D0469" stroke-width="2" stroke-miterlimit="10"/>
<path d="M27.3616 51.7715H10.7075V68.4256H27.3616V51.7715Z" stroke="#2D0469" stroke-width="2" stroke-miterlimit="10"/>
<path d="M66.6146 51.7715H49.9604V68.4256H66.6146V51.7715Z" stroke="#2D0469" stroke-width="2" stroke-miterlimit="10"/>
<path d="M8.32666 70.805L29.7391 49.3926" stroke="#2D0469" stroke-width="2" stroke-miterlimit="10" stroke-linejoin="round"/>
<path d="M8.32666 49.3926L29.7391 70.805" stroke="#2D0469" stroke-width="2" stroke-miterlimit="10" stroke-linejoin="round"/>
<path d="M76.1311 41.0664H73.752" stroke="#2D0469" stroke-width="2" stroke-miterlimit="10"/>
<path d="M0 41.0664H2.37916" stroke="#2D0469" stroke-width="2" stroke-miterlimit="10"/>
<path d="M38.0688 5.37916V3" stroke="#2D0469" stroke-width="2" stroke-miterlimit="10"/>
<path d="M38.0688 76.7539V79.1331" stroke="#2D0469" stroke-width="2" stroke-miterlimit="10"/>
</svg>
