<svg width="85" height="82" viewBox="0 0 85 82" fill="none" xmlns="http://www.w3.org/2000/svg">
<circle cx="55" cy="30" r="30" fill="#F4DB8D"/>
<path d="M23.8709 76.2266H9.54834V81.0008H23.8709V76.2266Z" stroke="#2D0469" stroke-width="2" stroke-miterlimit="10" stroke-linejoin="round"/>
<path d="M42.9677 43.9999C49.5595 43.9999 54.9032 38.6562 54.9032 32.0644C54.9032 25.4726 49.5595 20.1289 42.9677 20.1289C36.3759 20.1289 31.0322 25.4726 31.0322 32.0644C31.0322 38.6562 36.3759 43.9999 42.9677 43.9999Z" stroke="#2D0469" stroke-width="2" stroke-miterlimit="10" stroke-linejoin="round"/>
<path d="M14.3228 12.9668H59.6776L78.7744 32.0636L59.6776 51.1603H14.3228" stroke="#2D0469" stroke-width="2" stroke-miterlimit="10" stroke-linejoin="round"/>
<path d="M48.9355 28.4844L41.7742 35.6457L37 30.8715" stroke="#2D0469" stroke-width="2" stroke-miterlimit="10" stroke-linejoin="round"/>
<path d="M22.6772 32.0645H25.0643" stroke="#2D0469" stroke-width="2" stroke-miterlimit="10" stroke-linejoin="round"/>
<path d="M22.6772 27.291H25.0643" stroke="#2D0469" stroke-width="2" stroke-miterlimit="10" stroke-linejoin="round"/>
<path d="M22.6772 36.8379H25.0643" stroke="#2D0469" stroke-width="2" stroke-miterlimit="10" stroke-linejoin="round"/>
<path d="M19.0969 12.9677V9.3871C19.0969 8.07419 18.0228 7 16.7099 7C15.3969 7 14.3228 8.07419 14.3228 9.3871V76.2258H19.0969V51.1613" stroke="#2D0469" stroke-width="2" stroke-miterlimit="10" stroke-linejoin="round"/>
<path d="M19.0967 47.5811V16.5488" stroke="#2D0469" stroke-width="2" stroke-miterlimit="10" stroke-linejoin="round"/>
<path d="M0 81H60.871" stroke="#2D0469" stroke-width="2" stroke-miterlimit="10" stroke-linejoin="round"/>
</svg>
