<svg width="231" height="261" viewBox="0 0 231 261" fill="none" xmlns="http://www.w3.org/2000/svg">
<circle cx="30" cy="109" r="30" fill="#F4DB8D"/>
<circle cx="145" cy="52" r="20" fill="#DAE9EA"/>
<circle cx="175" cy="216" r="45" fill="white"/>
<path d="M144.572 122.844C162.472 122.844 176.983 108.363 176.983 90.5C176.983 72.637 162.472 58.1562 144.572 58.1562C126.672 58.1562 112.161 72.637 112.161 90.5C112.161 108.363 126.672 122.844 144.572 122.844Z" stroke="#2D0469" stroke-width="2" stroke-miterlimit="10"/>
<path d="M153.001 122V166.167C153.001 171.025 149.176 175 144.501 175C139.826 175 136.001 171.025 136.001 166.167V122" stroke="#2D0469" stroke-width="2" stroke-miterlimit="10"/>
<path d="M144.572 142.25V146.562" stroke="#2D0469" stroke-width="2" stroke-miterlimit="10"/>
<path d="M144.572 150.875V155.188" stroke="#2D0469" stroke-width="2" stroke-miterlimit="10"/>
<path d="M144.572 159.5V163.812" stroke="#2D0469" stroke-width="2" stroke-miterlimit="10"/>
<path d="M179.144 71.0938H228.84V172.438L209.394 191.844H144.572V181.062" stroke="#2D0469" stroke-width="2" stroke-miterlimit="10"/>
<path d="M209.394 191.844V172.438H228.84" stroke="#2D0469" stroke-width="2" stroke-miterlimit="10"/>
<path d="M159.697 90.5V105.594H129.447V75.4062H153.215" stroke="#2D0469" stroke-width="2" stroke-miterlimit="10"/>
<path d="M159.697 79.7188L144.572 94.8125L138.09 88.3438" stroke="#2D0469" stroke-width="2" stroke-miterlimit="10"/>
<path d="M170.5 129.312H161.857V137.938H170.5V129.312Z" stroke="#2D0469" stroke-width="2" stroke-miterlimit="10"/>
<path d="M170.5 146.562H161.857V155.188H170.5V146.562Z" stroke="#2D0469" stroke-width="2" stroke-miterlimit="10"/>
<path d="M170.5 163.812H161.857V172.438H170.5V163.812Z" stroke="#2D0469" stroke-width="2" stroke-miterlimit="10"/>
<path d="M218.036 129.312H176.982" stroke="#2D0469" stroke-width="2" stroke-miterlimit="10"/>
<path d="M218.036 137.938H176.982" stroke="#2D0469" stroke-width="2" stroke-miterlimit="10"/>
<path d="M218.036 146.562H176.982" stroke="#2D0469" stroke-width="2" stroke-miterlimit="10"/>
<path d="M218.036 155.188H176.982" stroke="#2D0469" stroke-width="2" stroke-miterlimit="10"/>
<path d="M198.59 172.438H176.982" stroke="#2D0469" stroke-width="2" stroke-miterlimit="10"/>
<path d="M218.036 163.812H176.982" stroke="#2D0469" stroke-width="2" stroke-miterlimit="10"/>
<path d="M183.465 94.8125H215.875V116.375H176.982" stroke="#2D0469" stroke-width="2" stroke-miterlimit="10"/>
<path d="M218.036 86.1875H213.715" stroke="#2D0469" stroke-width="2" stroke-miterlimit="10"/>
<path d="M209.394 86.1875H205.072" stroke="#2D0469" stroke-width="2" stroke-miterlimit="10"/>
<path d="M200.75 86.1875H196.429" stroke="#2D0469" stroke-width="2" stroke-miterlimit="10"/>
<path d="M76.3288 52.5742V60.7833L61.5525 67.1864C51.7016 70.47 43.4925 75.0671 43.3284 85.0822L43 104.784" stroke="#2D0469" stroke-width="2" stroke-miterlimit="10" stroke-linejoin="round"/>
<path d="M59.418 68V104.948" stroke="#2D0469" stroke-width="2" stroke-miterlimit="10" stroke-linejoin="round"/>
<path d="M104.405 31.3928V34.6764L102.763 36.3183C102.763 44.5273 97.6736 56.02 86.1809 55.8559C74.6882 55.6917 69.927 44.199 69.927 35.9899L68.2852 34.3481V31.0645" stroke="#2D0469" stroke-width="2" stroke-miterlimit="10" stroke-linejoin="round"/>
<path d="M95.8658 60.7832L86.015 72.2759L76.1641 60.7832" stroke="#2D0469" stroke-width="2" stroke-miterlimit="10" stroke-linejoin="round"/>
<path d="M109.33 21.5413C109.33 26.1383 98.9868 29.5861 86.3448 29.5861C73.7028 29.5861 63.3594 25.81 63.3594 21.2129" stroke="#2D0469" stroke-width="2" stroke-miterlimit="10" stroke-linejoin="round"/>
<path d="M66.6445 21.2156C66.8087 10.3796 75.6745 1.51384 86.5105 1.67803C97.3465 1.84221 106.212 10.708 106.048 21.544" stroke="#2D0469" stroke-width="2" stroke-miterlimit="10" stroke-linejoin="round"/>
<path d="M89.7949 8.24576C89.7949 5.45467 92.0935 3.32031 94.7204 3.32031" stroke="#2D0469" stroke-width="2" stroke-miterlimit="10" stroke-linejoin="round"/>
<path d="M89.7931 8.24609L89.6289 21.3806" stroke="#2D0469" stroke-width="2" stroke-miterlimit="10" stroke-linejoin="round"/>
<path d="M78.3008 3.32031C81.0919 3.32031 83.2262 5.61885 83.2262 8.24576" stroke="#2D0469" stroke-width="2" stroke-miterlimit="10" stroke-linejoin="round"/>
<path d="M83.2252 8.24609L83.061 21.3806" stroke="#2D0469" stroke-width="2" stroke-miterlimit="10" stroke-linejoin="round"/>
<path d="M69.2656 64V104.946" stroke="#2D0469" stroke-width="2" stroke-miterlimit="10" stroke-linejoin="round"/>
<path d="M108.5 67L95.8672 60.7833L96.0314 52.5742" stroke="#2D0469" stroke-width="2" stroke-miterlimit="10" stroke-linejoin="round"/>
<path d="M50.5004 202.55C44.1254 198.366 39.5035 192.572 37.4316 185.812" stroke="#2D0469" stroke-width="2" stroke-miterlimit="10"/>
<path d="M88.75 208.344C84.7656 209.47 80.4625 209.953 76 209.953C71.5375 209.953 67.2344 209.309 63.25 208.344" stroke="#2D0469" stroke-width="2" stroke-miterlimit="10"/>
<path d="M99.9062 152.016C109.628 157.809 115.844 167.305 115.844 177.766C115.844 187.744 110.266 196.595 101.5 202.55" stroke="#2D0469" stroke-width="2" stroke-miterlimit="10"/>
<path d="M42.5312 185.812H29.7812C28.0281 185.812 26.5938 184.364 26.5938 182.594V172.938C26.5938 171.167 28.0281 169.719 29.7812 169.719H36.1562C37.9094 164.247 42.6906 159.097 47.3125 155.234V140.75L58.4688 148.797C62.9312 147.027 66.4375 145.578 71.2188 145.578" stroke="#2D0469" stroke-width="2" stroke-miterlimit="10"/>
<path d="M72.8125 152.016C81.7375 152.016 90.3438 153.625 96.7188 158.453" stroke="#2D0469" stroke-width="2" stroke-miterlimit="10"/>
<path d="M63.25 203.516V216.391H50.5V195.469" stroke="#2D0469" stroke-width="2" stroke-miterlimit="10"/>
<path d="M101.5 195.469V216.391H88.75V203.516" stroke="#2D0469" stroke-width="2" stroke-miterlimit="10"/>
<path d="M60.0625 166.5C60.0625 170.041 57.1938 172.938 53.6875 172.938C50.1812 172.938 47.3125 170.041 47.3125 166.5" stroke="#2D0469" stroke-width="2" stroke-miterlimit="10"/>
<path d="M125.406 168.109C125.406 173.42 121.103 177.766 115.844 177.766" stroke="#2D0469" stroke-width="2" stroke-miterlimit="10"/>
<path d="M88.75 124.656V115" stroke="#2D0469" stroke-width="2" stroke-miterlimit="10"/>
<path d="M82.375 134.312V124.656" stroke="#2D0469" stroke-width="2" stroke-miterlimit="10"/>
<path d="M88.75 127.875V131.094" stroke="#2D0469" stroke-width="2" stroke-miterlimit="10"/>
<path d="M82.375 118.219V121.438" stroke="#2D0469" stroke-width="2" stroke-miterlimit="10"/>
<path d="M79.1875 152.016C78.2312 150.728 77.5938 148.958 77.5938 147.188C77.5938 142.681 81.1 139.141 85.5625 139.141C90.025 139.141 93.5312 142.681 93.5312 147.188C93.5312 150.406 91.6188 153.142 89.0688 154.43" stroke="#2D0469" stroke-width="2" stroke-miterlimit="10"/>
<path d="M74.4062 197.078H77.5938" stroke="#2D0469" stroke-width="2" stroke-miterlimit="10"/>
<path d="M80.7812 197.078H83.9688" stroke="#2D0469" stroke-width="2" stroke-miterlimit="10"/>
<path d="M68.0312 197.078H71.2188" stroke="#2D0469" stroke-width="2" stroke-miterlimit="10"/>
<path d="M25 216.391H127" stroke="#2D0469" stroke-width="2" stroke-miterlimit="10"/>
</svg>
