<svg xmlns="http://www.w3.org/2000/svg" viewBox="0 0 474 588" width="81" height="100">
	<defs>
		<clipPath clipPathUnits="userSpaceOnUse" id="cp1">
			<path d="M-1872 -178L860 -178L860 1358L-1872 1358Z" />
		</clipPath>
	</defs>
	<style>
		tspan { white-space:pre }
		.shp0 { fill: none;stroke: #ffffff;stroke-linecap:round;stroke-linejoin:round;stroke-width: 20 } 
		.shp1 { fill: #ffffff;stroke: #ffffff;stroke-width: 2 } 
		.shp2 { fill: #ffffff } 
	</style>
	<g id="Page 1" clip-path="url(#cp1)">
		<path id="Path 1" class="shp0" d="M-532.88 212.48C-532.88 206.23 -527.57 201.17 -521.03 201.17L-283.91 201.17C-277.37 201.17 -272.06 206.23 -272.06 212.48L-272.06 438.58C-272.06 444.83 -277.37 449.89 -283.91 449.89L-521.03 449.89C-527.57 449.89 -532.88 444.83 -532.88 438.58L-532.88 212.48ZM-331.34 325.53L-473.6 325.53M-402.47 257.7L-402.47 393.36M235.53 311.95L235.53 100.38M163.13 173.62L235.53 100.38L307.93 173.62M283.8 230.58L348.16 230.58C357.04 230.58 364.25 237.86 364.25 246.85L364.25 458.41C364.25 467.39 357.04 474.68 348.16 474.68L122.9 474.68C114.02 474.68 106.82 467.39 106.82 458.41L106.82 246.85C106.82 237.86 114.02 230.58 122.9 230.58L187.26 230.58" />
		<path id="Path 2" class="shp1" d="M-1108.25 200.96C-1110.98 200.96 -1113.15 200.96 -1115.88 201.49L-1115.88 171.38L-1168.74 171.38L-1168.74 326.15L-1107.71 326.15C-1091.36 326.15 -1077.19 320.34 -1067.38 308.19C-1058.66 297.1 -1054.3 282.83 -1054.3 265.4L-1054.3 263.82C-1054.3 245.86 -1058.66 231.07 -1067.38 220.5C-1077.73 207.83 -1091.36 200.96 -1108.25 200.96Z" />
		<path id="Path 3" class="shp0" d="M-1043.02 572.32L-1206.11 572.32C-1226.87 572.25 -1243.68 556.05 -1243.75 536.04L-1243.75 127.02C-1243.68 107.01 -1226.87 90.81 -1206.11 90.74L-1030.47 90.74C-1009.68 90.74 -992.83 106.98 -992.83 127.02L-992.83 390.91M-1118.29 517.89C-1121.75 517.89 -1124.56 520.6 -1124.56 523.94C-1124.56 527.28 -1121.75 529.99 -1118.29 529.99C-1114.83 529.99 -1112.02 527.28 -1112.02 523.94C-1112.02 520.6 -1114.83 517.89 -1118.29 517.89ZM-1243.75 475.57L-1068.11 475.57M-992.83 269.97L-932.61 313.51C-907.34 331.78 -892.47 360.45 -892.47 390.91L-892.47 475.57L-817.19 572.32M-955.2 572.31L-977.78 543.28C-987.55 530.72 -992.83 515.44 -992.83 499.74L-992.83 475.55L-1060.93 398.97C-1065.56 393.77 -1068.11 387.14 -1068.11 380.28C-1068.1 369.9 -1061.62 360.55 -1051.67 356.58C-1041.73 352.61 -1030.28 354.8 -1022.67 362.14L-955.2 427.18" />
		<path id="Path 4" class="shp2" d="M193.43 777.26C193.43 818.38 134.8 851.6 134.8 851.6C134.8 851.6 76.17 818.38 76.17 777.26C76.17 735.9 134.8 736.14 134.8 777.26C134.8 736.14 193.43 735.9 193.43 777.26ZM-365.23 1067.49L-365.23 861.75L-472.9 861.75C-503.81 861.75 -530.47 872.41 -549.66 896.93C-566.71 919.31 -574.18 948.09 -574.18 982.21L-574.18 984.34C-574.18 1019.52 -565.65 1048.3 -548.59 1070.69C-547.52 1071.76 -546.46 1072.82 -545.39 1073.89L-578.44 1113.33C-578.44 1113.33 -549.66 1147.44 -518.74 1162.37C-502.75 1169.83 -486.76 1174.1 -468.64 1174.1C-437.72 1174.1 -412.14 1163.43 -392.95 1144.25C-374.83 1125.06 -365.23 1099.47 -365.23 1067.49ZM-617.88 1067.49L-617.88 861.75L-725.55 861.75C-756.46 861.75 -783.11 872.41 -802.3 896.93C-819.36 919.31 -826.82 948.09 -826.82 982.21L-826.82 984.34C-826.82 1019.52 -818.29 1048.3 -801.24 1070.69C-800.17 1071.76 -799.1 1072.82 -798.04 1073.89L-831.08 1113.33C-831.08 1113.33 -802.3 1147.44 -771.39 1162.37C-755.4 1169.83 -739.41 1174.1 -721.28 1174.1C-690.37 1174.1 -664.78 1163.43 -645.6 1144.25C-627.47 1125.06 -617.88 1099.47 -617.88 1067.49ZM-1027.24 1010.99L-1077.34 1148.51C-1077.34 1148.51 -1062.42 1159.17 -1044.29 1167.7C-1038.96 1169.83 -1029.37 1171.96 -1029.37 1171.96C-1020.84 1174.1 -1013.38 1175.16 -1004.85 1175.16C-971.8 1175.16 -945.15 1157.04 -929.16 1123.99L-924.9 1113.33L-834.28 861.75L-1081.6 861.75L-1027.24 1010.99ZM-1195.67 860.68C-1201 860.68 -1205.27 860.68 -1210.6 861.75L-1210.6 800.98L-1314 800.98L-1314 1113.33L-1194.61 1113.33C-1162.63 1113.33 -1134.91 1101.61 -1115.72 1077.08C-1098.66 1054.7 -1090.14 1025.91 -1090.14 990.74L-1090.14 987.54C-1090.14 951.3 -1098.66 921.44 -1115.72 900.12C-1135.97 874.54 -1162.63 860.68 -1195.67 860.68ZM-66.15 800.98L36.64 800.98L36.64 1113.33L-66.15 1113.33L-66.15 800.98ZM84.98 861.75L187.77 861.75L187.77 1113.33L84.98 1113.33L84.98 861.75ZM441.06 1065.09L441.06 859.35L333.39 859.35C302.47 859.35 275.83 870.01 256.63 894.53C239.58 916.91 232.11 945.7 232.11 979.81L232.11 981.94C232.11 1017.12 240.64 1045.91 257.7 1068.29C258.77 1069.36 259.84 1070.43 260.9 1071.49L227.85 1110.93C227.85 1110.93 256.63 1145.04 287.55 1159.97C303.54 1167.43 319.53 1171.7 337.66 1171.7C368.57 1171.7 394.15 1161.04 413.35 1141.85C431.46 1122.66 441.06 1097.07 441.06 1065.09ZM-270.44 1096.22L-270.57 1096.13C-288.07 1084.74 -301.57 1069.22 -311.06 1050.39C-320.62 1031.43 -325.16 1010.78 -325.16 989L-325.16 981.21C-325.16 959.59 -320.8 939.02 -311.68 920.02C-302.57 901.04 -289.49 885.25 -272.24 873.74C-255.07 862.29 -235.82 856.36 -215.21 856.36C-185.86 856.36 -160.1 867.27 -140.57 889.18C-121.12 910.98 -112.7 938.53 -112.7 968.73L-112.7 1005.48L-160.61 1005.48L-112.7 1050.57L-123.8 1069.51C-144.38 1099.28 -175.4 1113.33 -211.74 1113.33C-232.79 1113.33 -252.54 1107.61 -270.3 1096.31L-270.44 1096.22Z" />
	</g>
</svg>