<svg width="166" height="41" viewBox="0 0 166 41" fill="none" xmlns="http://www.w3.org/2000/svg">
<path d="M142 2.90139C142 6.75909 136.5 9.87466 136.5 9.87466C136.5 9.87466 131 6.75909 131 2.90139C131 -0.978672 136.5 -0.95558 136.5 2.90139C136.5 -0.95558 142 -0.978672 142 2.90139Z" fill="white"/>
<path d="M89.5942 30.1269V10.8269H79.4942C76.5942 10.8269 74.0942 11.8269 72.2942 14.1269C70.6942 16.2269 69.9942 18.9269 69.9942 22.1269V22.3269C69.9942 25.6269 70.7942 28.3269 72.3942 30.4269C72.4942 30.5269 72.5942 30.6269 72.6942 30.7269L69.5942 34.4269C69.5942 34.4269 72.2942 37.6269 75.1942 39.0269C76.6942 39.7269 78.1942 40.1269 79.8942 40.1269C82.7942 40.1269 85.1942 39.1269 86.9942 37.3269C88.6942 35.5269 89.5942 33.1269 89.5942 30.1269Z" fill="white"/>
<path d="M65.8945 30.1269V10.8269H55.7945C52.8945 10.8269 50.3945 11.8269 48.5945 14.1269C46.9945 16.2269 46.2945 18.9269 46.2945 22.1269V22.3269C46.2945 25.6269 47.0945 28.3269 48.6945 30.4269C48.7945 30.5269 48.8945 30.6269 48.9945 30.7269L45.8945 34.4269C45.8945 34.4269 48.5945 37.6269 51.4945 39.0269C52.9945 39.7269 54.4945 40.1269 56.1945 40.1269C59.0945 40.1269 61.4945 39.1269 63.2945 37.3269C64.9945 35.5269 65.8945 33.1269 65.8945 30.1269Z" fill="white"/>
<path d="M27.4945 24.8269L22.7945 37.7269C22.7945 37.7269 24.1945 38.7269 25.8945 39.5269C26.3945 39.7269 27.2945 39.9269 27.2945 39.9269C28.0945 40.1269 28.7945 40.2269 29.5945 40.2269C32.6945 40.2269 35.1945 38.5269 36.6945 35.4269L37.0945 34.4269L45.5945 10.8269H22.3945L27.4945 24.8269Z" fill="white"/>
<path d="M11.6942 10.7268C11.1942 10.7268 10.7942 10.7268 10.2942 10.8268V5.12683H0.594238V34.4268H11.7942C14.7942 34.4268 17.3942 33.3268 19.1942 31.0268C20.7942 28.9268 21.5942 26.2268 21.5942 22.9268V22.6268C21.5942 19.2268 20.7942 16.4268 19.1942 14.4268C17.2942 12.0268 14.7942 10.7268 11.6942 10.7268Z" fill="white"/>
<rect x="117.65" y="5.12683" width="9.64208" height="29.3" fill="white"/>
<rect x="131.827" y="10.8269" width="9.64208" height="23.6" fill="white"/>
<path d="M165.229 29.9018V10.6018H155.129C152.229 10.6018 149.729 11.6018 147.929 13.9018C146.329 16.0018 145.629 18.7018 145.629 21.9018V22.1018C145.629 25.4018 146.429 28.1018 148.029 30.2018C148.129 30.3018 148.229 30.4018 148.329 30.5018L145.229 34.2018C145.229 34.2018 147.929 37.4018 150.829 38.8018C152.329 39.5018 153.829 39.9018 155.529 39.9018C158.429 39.9018 160.829 38.9018 162.629 37.1018C164.329 35.3018 165.229 32.9018 165.229 29.9018Z" fill="white"/>
<path d="M98.4866 32.8219L98.4735 32.8134C96.8325 31.7444 95.566 30.2892 94.6753 28.5221C93.779 26.744 93.3535 24.8066 93.3535 22.7641V22.0329C93.3535 20.0046 93.7621 18.0759 94.6177 16.2934C95.4726 14.5124 96.6988 13.0312 98.3174 11.9521C99.9282 10.8782 101.734 10.3214 103.667 10.3214C106.421 10.3214 108.837 11.3448 110.669 13.4001C112.493 15.4456 113.283 18.0297 113.283 20.8629V24.3102H108.789L113.283 28.5397L112.242 30.3166C110.311 33.1093 107.402 34.4268 103.992 34.4268C102.018 34.4268 100.165 33.8899 98.4997 32.8302L98.4866 32.8219Z" fill="white"/>
</svg>
