<svg width="192" height="52" viewBox="0 0 192 52" fill="none" xmlns="http://www.w3.org/2000/svg">
<path d="M40.3031 48.9308L38.2507 43.7215L37.2244 45.768V49.0238H36.3848V38.3262H37.2244V44.0936L40.0233 38.3262H40.9562L38.8104 42.6983L41.2361 48.9308H40.3031V48.9308Z" fill="white"/>
<path d="M46.1807 48.9301V48.372C46.0874 48.558 45.9009 48.7441 45.7143 48.8371C45.4344 49.0232 45.1545 49.1162 44.8746 49.1162C44.4081 49.1162 44.035 48.9301 43.6618 48.6511C43.3819 48.372 43.1953 47.9069 43.1953 47.1627V41.4883H44.035V47.1627C44.035 47.9999 44.5014 48.372 45.0612 48.372C45.621 48.372 46.0874 47.9999 46.0874 47.1627V41.4883H46.9271V49.0232H46.1807V48.9301Z" fill="white"/>
<path d="M52.6182 48.9306V43.2562C52.6182 42.419 52.1517 42.0469 51.592 42.0469C51.0322 42.0469 50.5657 42.419 50.5657 43.2562V48.9306H49.7261V41.3958H50.5657V42.0469C50.659 41.8609 50.8456 41.6748 51.0322 41.5818C51.3121 41.3958 51.592 41.3027 51.8718 41.3027C52.3383 41.3027 52.7115 41.4888 53.0847 41.8609C53.3646 42.1399 53.5512 42.6051 53.5512 43.3492V49.0237H52.6182V48.9306Z" fill="white"/>
<path d="M59.1485 48.9306V43.2562C59.1485 42.419 58.682 42.0469 58.1222 42.0469C57.5625 42.0469 57.096 42.419 57.096 43.2562V48.9306H56.2563V41.3958H57.096V42.0469C57.1893 41.8609 57.3759 41.6748 57.5625 41.5818C57.8424 41.3958 58.1222 41.3027 58.4021 41.3027C58.8686 41.3027 59.2418 41.4888 59.6149 41.8609C59.8948 42.1399 60.0814 42.6051 60.0814 43.3492V49.0237H59.1485V48.9306Z" fill="white"/>
<path d="M65.5857 48.4653C65.2125 48.8374 64.746 49.0234 64.093 49.0234C63.5332 49.0234 63.0667 48.8374 62.6936 48.4653C62.2271 48.0002 62.1338 47.442 62.1338 46.7909H62.9734C62.9734 47.256 63.0667 47.6281 63.3466 47.9072C63.5332 48.0932 63.8131 48.1862 64.093 48.1862C64.4661 48.1862 64.746 48.0932 64.9326 47.8141C65.1192 47.6281 65.3058 47.256 65.3058 46.8839C65.3058 46.6048 65.2125 46.3258 65.1192 46.0467C64.9326 45.7676 64.746 45.5816 64.3729 45.3955L63.4399 44.8374C62.9734 44.5583 62.6003 44.1862 62.4137 43.9072C62.2271 43.6281 62.2271 43.349 62.2271 42.9769C62.2271 42.4188 62.507 41.8606 62.7869 41.5816C63.16 41.2095 63.6265 41.0234 64.1863 41.0234C64.746 41.0234 65.2125 41.2095 65.5857 41.4886C65.9589 41.8606 66.1455 42.4188 66.1455 43.163H65.3058C65.3058 42.6048 65.2125 42.3258 64.9326 42.0467C64.746 41.8606 64.4662 41.7676 64.1863 41.7676C63.8131 41.7676 63.6265 41.8606 63.4399 42.0467C63.16 42.2327 63.0667 42.6048 63.0667 42.9769C63.0667 43.256 63.0667 43.442 63.2533 43.6281C63.3466 43.8141 63.6265 44.0002 63.9997 44.1862L64.9326 44.7444C65.3991 45.0234 65.7723 45.3025 65.9589 45.6746C66.1454 46.0467 66.2387 46.4188 66.2387 46.8839C66.2387 47.6281 65.9589 48.0932 65.5857 48.4653Z" fill="white"/>
<path d="M72.0232 48.9308L70.3439 45.0238L69.3177 46.6052V48.9308H68.478V38.3262H69.3177V45.3029L71.7433 41.3029H72.6763L70.9037 44.2797L72.9562 48.9308H72.0232Z" fill="white"/>
<path d="M77.7144 48.9306V48.2795C77.6211 48.4655 77.4345 48.6516 77.3413 48.7446C77.0614 48.9306 76.8748 49.0237 76.4083 49.0237C75.9418 49.0237 75.5687 48.8376 75.1955 48.5586C74.9156 48.2795 74.729 47.6283 74.729 46.8841C74.729 46.1399 74.9156 45.5818 75.3821 45.2097C75.7552 44.8376 76.2217 44.7446 76.8748 44.7446H77.7144V43.3492C77.7144 42.512 77.3412 42.0469 76.6882 42.0469C76.4083 42.0469 76.1284 42.1399 76.0351 42.326C75.662 42.512 75.5687 42.7911 75.5687 43.3492H74.729C74.729 42.7911 74.8223 42.233 75.2888 41.7679C75.5687 41.4888 76.0351 41.3027 76.5949 41.3027C77.1547 41.3027 77.6211 41.4888 77.9943 41.7679C78.3675 42.1399 78.5541 42.6051 78.5541 43.3492V49.0237H77.7144V48.9306ZM77.6211 45.3027H76.7815C76.4083 45.3027 76.1284 45.3958 75.8485 45.6748C75.5687 45.9539 75.4754 46.419 75.4754 46.8841C75.4754 47.8144 75.8485 48.3725 76.5016 48.3725C77.1547 48.3725 77.6211 47.8144 77.6211 46.9772V45.3027V45.3027Z" fill="white"/>
<path d="M84.5246 48.5585C84.2447 48.9306 83.8716 49.1167 83.3118 49.1167C82.9386 49.1167 82.6587 49.0237 82.4721 48.8376C82.2856 48.7446 82.099 48.5585 82.099 48.3725V52.0004H81.166V41.3958H82.0057V42.0469C82.099 41.8609 82.2856 41.6748 82.4721 41.5818C82.752 41.3958 83.0319 41.3027 83.3118 41.3027C83.7783 41.3027 84.1514 41.4888 84.5246 41.8609C84.9911 42.419 85.0844 43.3492 85.0844 45.2097C85.0844 47.0702 84.8978 48.0004 84.5246 48.5585ZM83.7783 42.326C83.5917 42.1399 83.3118 41.9539 83.0319 41.9539C82.752 41.9539 82.4721 42.0469 82.2855 42.233C82.099 42.419 81.9124 42.7911 81.9124 43.2562V46.9772C81.9124 47.4423 82.0057 47.8144 82.2855 48.0004C82.4721 48.1865 82.752 48.2795 83.0319 48.2795C83.3118 48.2795 83.5917 48.0934 83.7783 47.9074C84.1514 47.5353 84.1514 46.6981 84.1514 45.1167C84.2447 43.5353 84.1514 42.7911 83.7783 42.326Z" fill="white"/>
<path d="M92.3615 42.0471V48.9308H91.5218V42.0471H90.5889V41.3959H91.5218V40.2797C91.5218 39.5355 91.7084 39.0704 92.0816 38.7913C92.548 38.4192 93.1078 38.3262 93.6676 38.3262V39.0704C92.8279 39.0704 92.3615 39.4425 92.3615 40.3727V41.489H93.6676V42.1401H92.3615V42.0471Z" fill="white"/>
<path d="M98.7053 48.466C98.3321 48.8381 97.9589 49.0242 97.3059 49.0242C96.6528 49.0242 96.1863 48.8381 95.9065 48.466C95.44 47.9079 95.3467 46.9777 95.3467 45.1172C95.3467 43.3497 95.44 42.3265 95.9065 41.7684C96.2796 41.3963 96.6528 41.1172 97.3059 41.1172C97.9589 41.1172 98.4254 41.3032 98.7053 41.7684C99.1718 42.3265 99.2651 43.2567 99.2651 45.1172C99.3583 46.9777 99.1718 47.9079 98.7053 48.466ZM98.0522 42.3265C97.8656 42.1404 97.679 41.9544 97.3059 41.9544C96.9327 41.9544 96.7461 42.1404 96.5595 42.3265C96.1863 42.6986 96.1863 43.5358 96.1863 45.1172C96.1863 46.6986 96.1863 47.5358 96.5595 47.9079C96.7461 48.0939 97.026 48.28 97.3059 48.28C97.679 48.28 97.8656 48.0939 98.0522 47.9079C98.4254 47.5358 98.4254 46.6986 98.4254 45.1172C98.5187 43.5358 98.4254 42.7916 98.0522 42.3265Z" fill="white"/>
<path d="M104.117 42.0469C103.184 42.0469 102.624 42.6051 102.624 43.5353V48.9306H101.784V41.3958H102.624V42.233C102.717 42.0469 102.904 41.8609 102.997 41.7679C103.37 41.4888 103.743 41.3027 104.303 41.3027V42.0469H104.117V42.0469Z" fill="white"/>
<path d="M110.741 45.3027C110.741 46.8841 110.741 47.6283 111.114 48.0004C111.3 48.1865 111.487 48.3725 111.86 48.3725C112.14 48.3725 112.42 48.2795 112.606 48.0934C112.793 47.8144 112.98 47.4423 112.98 46.9772H113.819C113.819 47.7213 113.633 48.1865 113.26 48.5585C112.886 48.9306 112.42 49.1167 111.86 49.1167C111.3 49.1167 110.834 48.9306 110.461 48.5585C109.994 48.0004 109.808 47.0702 109.808 45.2097C109.808 43.3492 109.901 42.419 110.461 41.8609C110.834 41.4888 111.207 41.3027 111.86 41.3027C112.42 41.3027 112.886 41.4888 113.26 41.8609C113.819 42.419 113.819 43.5353 113.819 45.3027H110.741ZM112.606 42.326C112.42 42.1399 112.233 41.9539 111.86 41.9539C111.487 41.9539 111.3 42.1399 111.114 42.326C110.834 42.6981 110.741 43.3492 110.741 44.5585H112.98C112.98 43.3492 112.886 42.6981 112.606 42.326Z" fill="white"/>
<path d="M119.23 48.9306V43.2562C119.23 42.419 118.764 42.0469 118.204 42.0469C117.644 42.0469 117.178 42.419 117.178 43.2562V48.9306H116.338V41.3958H117.178V42.0469C117.271 41.8609 117.457 41.6748 117.644 41.5818C117.924 41.3958 118.204 41.3027 118.484 41.3027C118.95 41.3027 119.323 41.4888 119.696 41.8609C119.976 42.1399 120.163 42.6051 120.163 43.3492V49.0237H119.23V48.9306Z" fill="white"/>
<path d="M129.773 48.5587C129.493 48.9308 129.026 49.1169 128.56 49.1169C128.187 49.1169 127.907 49.0238 127.72 48.8378C127.627 48.7448 127.347 48.5587 127.254 48.3727V49.0238H126.414V38.3262H127.254V41.9541C127.347 41.768 127.534 41.582 127.627 41.489C127.907 41.3029 128.187 41.2099 128.467 41.2099C129.026 41.2099 129.399 41.3959 129.679 41.768C130.146 42.3262 130.239 43.2564 130.239 45.1169C130.332 47.0704 130.239 48.0006 129.773 48.5587ZM129.12 42.3262C128.933 42.1401 128.653 41.9541 128.373 41.9541C128.093 41.9541 127.813 42.0471 127.627 42.2331C127.44 42.4192 127.254 42.7913 127.254 43.2564V46.9773C127.254 47.4424 127.347 47.8145 127.627 48.0006C127.813 48.1866 128.093 48.2797 128.373 48.2797C128.653 48.2797 128.933 48.0936 129.12 47.9076C129.493 47.5355 129.493 46.6983 129.493 45.1169C129.493 43.5355 129.493 42.7913 129.12 42.3262Z" fill="white"/>
<path d="M133.411 45.3027C133.411 46.8841 133.411 47.6283 133.784 48.0004C133.971 48.1865 134.157 48.3725 134.53 48.3725C134.81 48.3725 135.09 48.2795 135.277 48.0934C135.463 47.8144 135.65 47.4423 135.65 46.9772H136.49C136.49 47.7213 136.303 48.1865 135.93 48.5585C135.557 48.9306 135.09 49.1167 134.53 49.1167C133.971 49.1167 133.504 48.9306 133.131 48.5585C132.665 48.0004 132.478 47.0702 132.478 45.2097C132.478 43.3492 132.571 42.419 133.131 41.8609C133.504 41.4888 133.877 41.3027 134.53 41.3027C135.09 41.3027 135.557 41.4888 135.93 41.8609C136.49 42.419 136.49 43.5353 136.49 45.3027H133.411ZM135.277 42.326C135.09 42.1399 134.904 41.9539 134.53 41.9539C134.157 41.9539 133.971 42.1399 133.784 42.326C133.504 42.6981 133.411 43.3492 133.411 44.5585H135.65C135.65 43.3492 135.65 42.6981 135.277 42.326Z" fill="white"/>
<path d="M141.714 48.9316V48.3734C141.621 48.5595 141.435 48.7455 141.341 48.8385C141.061 49.0246 140.781 49.1176 140.502 49.1176C140.035 49.1176 139.662 48.9316 139.289 48.5595C138.822 48.0013 138.729 47.0711 138.729 45.2106C138.729 43.3502 138.822 42.3269 139.289 41.8618C139.569 41.4897 139.942 41.3036 140.502 41.3036C140.875 41.3036 141.155 41.3967 141.341 41.5827C141.528 41.6757 141.621 41.8618 141.714 42.0478V38.4199H142.554V49.0246H141.714V48.9316ZM141.714 43.3502C141.714 42.885 141.621 42.5129 141.341 42.3269C141.155 42.1409 140.875 42.0478 140.595 42.0478C140.315 42.0478 140.035 42.2339 139.849 42.4199C139.475 42.792 139.475 43.6292 139.475 45.2106C139.475 46.792 139.475 47.6292 139.849 48.0013C140.035 48.1874 140.315 48.3734 140.595 48.3734C140.875 48.3734 141.155 48.2804 141.341 48.0943C141.528 47.9083 141.714 47.5362 141.714 47.0711V43.3502Z" fill="white"/>
<path d="M147.592 42.0469C146.659 42.0469 146.099 42.6051 146.099 43.5353V48.9306H145.259V41.3958H146.099V42.233C146.192 42.0469 146.379 41.8609 146.472 41.7679C146.845 41.4888 147.218 41.3027 147.778 41.3027V42.0469H147.592V42.0469Z" fill="white"/>
<path d="M150.297 45.3027C150.297 46.8841 150.297 47.6283 150.67 48.0004C150.857 48.1865 151.044 48.3725 151.417 48.3725C151.697 48.3725 151.976 48.2795 152.163 48.0934C152.35 47.8144 152.536 47.4423 152.536 46.9772H153.376C153.376 47.7213 153.189 48.1865 152.816 48.5585C152.443 48.9306 151.976 49.1167 151.417 49.1167C150.857 49.1167 150.39 48.9306 150.017 48.5585C149.551 48.0004 149.364 47.0702 149.364 45.2097C149.364 43.3492 149.458 42.419 150.017 41.8609C150.39 41.4888 150.764 41.3027 151.417 41.3027C151.976 41.3027 152.443 41.4888 152.816 41.8609C153.376 42.419 153.376 43.5353 153.376 45.3027H150.297ZM152.256 42.326C152.07 42.1399 151.883 41.9539 151.51 41.9539C151.137 41.9539 150.95 42.1399 150.764 42.326C150.484 42.6981 150.39 43.3492 150.39 44.5585H152.63C152.536 43.3492 152.536 42.6981 152.256 42.326Z" fill="white"/>
<path d="M161.399 48.9314H160.56L158.787 41.3965H159.72L161.026 47.629L162.332 41.3965H163.265L161.399 48.9314Z" fill="white"/>
<path d="M165.784 45.3027C165.784 46.8841 165.784 47.6283 166.157 48.0004C166.344 48.1865 166.53 48.3725 166.904 48.3725C167.183 48.3725 167.463 48.2795 167.65 48.0934C167.837 47.8144 168.023 47.4423 168.023 46.9772H168.863C168.863 47.7213 168.676 48.1865 168.303 48.5585C167.93 48.9306 167.463 49.1167 166.904 49.1167C166.344 49.1167 165.877 48.9306 165.504 48.5585C165.038 48.0004 164.851 47.0702 164.851 45.2097C164.851 43.3492 164.944 42.419 165.504 41.8609C165.877 41.4888 166.25 41.3027 166.904 41.3027C167.463 41.3027 167.93 41.4888 168.303 41.8609C168.863 42.419 168.863 43.5353 168.863 45.3027H165.784ZM167.65 42.326C167.463 42.1399 167.277 41.9539 166.904 41.9539C166.53 41.9539 166.344 42.1399 166.157 42.326C165.877 42.6981 165.784 43.3492 165.784 44.5585H168.023C168.023 43.3492 167.93 42.6981 167.65 42.326Z" fill="white"/>
<path d="M173.621 42.0469C172.688 42.0469 172.128 42.6051 172.128 43.5353V48.9306H171.289V41.3958H172.128V42.233C172.222 42.0469 172.408 41.8609 172.501 41.7679C172.875 41.4888 173.248 41.3027 173.808 41.3027V42.0469H173.621V42.0469Z" fill="white"/>
<path d="M178.565 48.9316V48.3734C178.472 48.5595 178.286 48.7455 178.192 48.8385C177.912 49.0246 177.633 49.1176 177.353 49.1176C176.886 49.1176 176.513 48.9316 176.14 48.5595C175.673 48.0013 175.58 47.0711 175.58 45.2106C175.58 43.3502 175.673 42.3269 176.14 41.8618C176.42 41.4897 176.793 41.3036 177.353 41.3036C177.726 41.3036 178.006 41.3967 178.192 41.5827C178.379 41.6757 178.472 41.8618 178.565 42.0478V38.4199H179.405V49.0246H178.565V48.9316ZM178.472 43.3502C178.472 42.885 178.379 42.5129 178.099 42.3269C177.912 42.1409 177.633 42.0478 177.353 42.0478C177.073 42.0478 176.793 42.2339 176.606 42.4199C176.233 42.792 176.233 43.6292 176.233 45.2106C176.233 46.792 176.233 47.6292 176.606 48.0013C176.793 48.1874 177.073 48.3734 177.353 48.3734C177.633 48.3734 177.912 48.2804 178.099 48.0943C178.286 47.9083 178.472 47.5362 178.472 47.0711V43.3502Z" fill="white"/>
<path d="M182.67 45.3027C182.67 46.8841 182.67 47.6283 183.043 48.0004C183.23 48.1865 183.417 48.3725 183.79 48.3725C184.07 48.3725 184.35 48.2795 184.536 48.0934C184.723 47.8144 184.909 47.4423 184.909 46.9772H185.749C185.749 47.7213 185.562 48.1865 185.189 48.5585C184.816 48.9306 184.35 49.1167 183.79 49.1167C183.23 49.1167 182.764 48.9306 182.39 48.5585C181.924 48.0004 181.737 47.0702 181.737 45.2097C181.737 43.3492 181.831 42.419 182.39 41.8609C182.764 41.4888 183.137 41.3027 183.79 41.3027C184.35 41.3027 184.816 41.4888 185.189 41.8609C185.749 42.419 185.749 43.5353 185.749 45.3027H182.67ZM184.536 42.326C184.35 42.1399 184.163 41.9539 183.79 41.9539C183.417 41.9539 183.23 42.1399 183.043 42.326C182.764 42.6981 182.67 43.3492 182.67 44.5585H184.909C184.909 43.3492 184.816 42.6981 184.536 42.326Z" fill="white"/>
<path d="M191.16 48.9306V43.2562C191.16 42.419 190.694 42.0469 190.134 42.0469C189.574 42.0469 189.108 42.419 189.108 43.2562V48.9306H188.268V41.3958H189.108V42.0469C189.201 41.8609 189.388 41.6748 189.574 41.5818C189.854 41.3958 190.134 41.3027 190.414 41.3027C190.88 41.3027 191.253 41.4888 191.627 41.8609C191.907 42.1399 192.093 42.6051 192.093 43.3492V49.0237H191.16V48.9306Z" fill="white"/>
<path d="M22.0175 0H7.37026C3.26531 0 0 3.25581 0 7.34884V21.9535C0 25.9535 3.26531 29.3023 7.37026 29.3023H22.0175C26.0292 29.3023 29.3878 26.0465 29.3878 21.9535V7.34884C29.3878 3.25581 26.0292 0 22.0175 0ZM7.37026 7.34884H22.0175V21.9535H7.37026V7.34884Z" fill="white"/>
<path d="M14.6471 8.55859C11.2885 8.55859 8.58301 11.2563 8.58301 14.6051C8.58301 17.9539 11.2885 20.6516 14.6471 20.6516C18.0057 20.6516 20.7113 17.9539 20.7113 14.6051C20.618 11.2563 17.9125 8.55859 14.6471 8.55859Z" fill="white"/>
<path d="M45.3412 0L59.6152 20.7442V4.83721V1.02326H55.3237V0H64.4665V1.02326H60.9213V4.83721V29.4884L60.2683 29.6744L41.0496 1.86047V24.186L41.1429 28.093H45.5278V29.1163H36.0117V28.093H39.8368V24.186V4.83721V1.02326H36.0117V0H45.3412Z" fill="white"/>
<path d="M93.0144 0V9.30233H91.8016C91.7083 7.90698 91.5217 6.04651 90.2156 3.90698C88.7229 1.39535 86.6704 1.30233 84.7112 1.2093H82.3789V4.93023V23.907V28.093H86.857V29.1163H73.3293V28.093H77.8074V23.907V4.93023V1.2093H75.9416C73.5159 1.2093 71.7433 1.2093 69.9707 4C68.5713 6.13953 68.478 7.90698 68.3847 9.30233H67.1719V0H93.0144Z" fill="white"/>
<path d="M104.77 0L119.044 20.7442V4.83721V1.02326H114.752V0H123.895V1.02326H120.35V4.83721V29.4884L119.697 29.6744L100.478 1.86047V24.186L100.572 28.093H104.956V29.1163H95.4404V28.093H99.2655V24.186V4.83721V1.02326H95.4404V0H104.77Z" fill="white"/>
<path d="M139.942 0V1.02326H135.837V4.55814V20.2791C135.837 24.3721 135.93 28.186 143.674 28.186C151.417 28.186 151.977 24.8372 152.07 21.1163V4.55814V1.02326H147.872V0H157.015V1.02326H153.376V4.55814V19.5349C153.376 24.9302 153.283 29.5814 142.554 29.5814C141.061 29.5814 137.423 29.3953 135.09 28.4651C131.452 26.8837 131.359 23.7209 131.265 19.7209V4.55814V1.02326H127.72V0H139.942Z" fill="white"/>
</svg>
