<svg width="106" height="21" fill="none" xmlns="http://www.w3.org/2000/svg"><path d="M14.864 0H4.976C2.204 0 0 2.241 0 5.06v10.054c0 2.753 2.204 5.059 4.976 5.059h9.888c2.708 0 4.976-2.242 4.976-5.06V5.06C19.84 2.241 17.572 0 14.864 0zM4.976 5.06h9.888v10.054H4.976V5.059z" fill="#fff"/><path d="M9.888 5.89c-2.268 0-4.094 1.858-4.094 4.163 0 2.306 1.826 4.163 4.094 4.163 2.267 0 4.094-1.857 4.094-4.163-.063-2.305-1.89-4.162-4.094-4.162zM30.61 0l9.636 14.281V.704H37.35V0h6.172v.704h-2.393V20.3l-.441.129L27.713 1.281v15.37l.063 2.69h2.96v.704H24.31v-.705h2.583V.704h-2.582V0h6.298zM62.794 0v6.404h-.819c-.063-.96-.189-2.241-1.07-3.714C59.896.96 58.51.897 57.187.833h-1.574V19.34h3.023v.705h-9.133v-.705h3.024V.833h-1.26c-1.638 0-2.834 0-4.03 1.92-.946 1.474-1.009 2.69-1.072 3.651h-.818V0h17.446zM70.73 0l9.636 14.281V.704H77.47V0h6.172v.704h-2.393V20.3l-.44.129L67.832 1.281v15.37l.063 2.69h2.96v.704h-6.424v-.705h2.582V.704h-2.582V0h6.298zM94.474 0v.704h-2.77V13.961c0 2.818.062 5.443 5.29 5.443 5.227 0 5.605-2.305 5.668-4.867V.704h-2.834V0H106v.704h-2.456v12.744c0 3.715-.063 6.917-7.306 6.917-1.008 0-3.464-.128-5.039-.768-2.456-1.09-2.519-3.267-2.582-6.02V.704h-2.393V0h8.25z" fill="#fff"/></svg>