<svg xmlns="http://www.w3.org/2000/svg" viewBox="0 0 474 588" width="474" height="588">
	<defs>
		<clipPath clipPathUnits="userSpaceOnUse" id="cp1">
			<path d="M-607 -223L2125 -223L2125 1313L-607 1313Z" />
		</clipPath>
	</defs>
	<style>
		tspan { white-space:pre }
		.shp0 { fill: none;stroke: #ffffff;stroke-linecap:round;stroke-linejoin:round;stroke-width: 20 } 
		.shp1 { fill: #ffffff;stroke: #ffffff;stroke-width: 2 } 
		.shp2 { fill: #ffffff } 
	</style>
	<g id="Page 1" clip-path="url(#cp1)">
		<path id="Path 1" class="shp0" d="M732.12 167.48C732.12 161.23 737.43 156.17 743.97 156.17L981.09 156.17C987.63 156.17 992.94 161.23 992.94 167.48L992.94 393.58C992.94 399.83 987.63 404.89 981.09 404.89L743.97 404.89C737.43 404.89 732.12 399.83 732.12 393.58L732.12 167.48ZM933.66 280.53L791.4 280.53M862.53 212.7L862.53 348.36M1500.53 266.95L1500.53 55.38M1428.13 128.62L1500.53 55.38L1572.93 128.62M1548.8 185.58L1613.16 185.58C1622.04 185.58 1629.25 192.86 1629.25 201.85L1629.25 413.41C1629.25 422.39 1622.04 429.68 1613.16 429.68L1387.9 429.68C1379.02 429.68 1371.82 422.39 1371.82 413.41L1371.82 201.85C1371.82 192.86 1379.02 185.58 1387.9 185.58L1452.26 185.58" />
		<path id="Path 2" class="shp1" d="M156.75 155.96C154.02 155.96 151.85 155.96 149.12 156.49L149.12 126.38L96.26 126.38L96.26 281.15L157.29 281.15C173.64 281.15 187.81 275.34 197.62 263.19C206.34 252.1 210.7 237.83 210.7 220.4L210.7 218.82C210.7 200.86 206.34 186.07 197.62 175.5C187.27 162.83 173.64 155.96 156.75 155.96Z" />
		<path id="Path 3" class="shp0" d="M221.98 527.32L58.89 527.32C38.13 527.25 21.32 511.05 21.25 491.04L21.25 82.02C21.32 62.01 38.13 45.81 58.89 45.74L234.53 45.74C255.32 45.74 272.17 61.98 272.17 82.02L272.17 345.91M146.71 472.89C143.25 472.89 140.44 475.6 140.44 478.94C140.44 482.28 143.25 484.99 146.71 484.99C150.17 484.99 152.98 482.28 152.98 478.94C152.98 475.6 150.17 472.89 146.71 472.89ZM21.25 430.57L196.89 430.57M272.17 224.97L332.39 268.51C357.66 286.78 372.53 315.45 372.53 345.91L372.53 430.57L447.81 527.32M309.8 527.31L287.22 498.28C277.45 485.72 272.17 470.44 272.17 454.74L272.17 430.55L204.07 353.97C199.44 348.77 196.89 342.14 196.89 335.28C196.9 324.9 203.38 315.55 213.33 311.58C223.27 307.61 234.72 309.8 242.33 317.14L309.8 382.18" />
		<path id="Path 4" class="shp2" d="M1458.43 732.26C1458.43 773.38 1399.8 806.6 1399.8 806.6C1399.8 806.6 1341.17 773.38 1341.17 732.26C1341.17 690.9 1399.8 691.14 1399.8 732.26C1399.8 691.14 1458.43 690.9 1458.43 732.26ZM899.77 1022.49L899.77 816.75L792.1 816.75C761.19 816.75 734.53 827.41 715.34 851.93C698.29 874.31 690.82 903.09 690.82 937.21L690.82 939.34C690.82 974.52 699.35 1003.3 716.41 1025.69C717.48 1026.76 718.54 1027.82 719.61 1028.89L686.56 1068.33C686.56 1068.33 715.34 1102.44 746.26 1117.37C762.25 1124.83 778.24 1129.1 796.36 1129.1C827.28 1129.1 852.86 1118.43 872.05 1099.25C890.17 1080.06 899.77 1054.47 899.77 1022.49ZM647.12 1022.49L647.12 816.75L539.45 816.75C508.54 816.75 481.89 827.41 462.7 851.93C445.64 874.31 438.18 903.09 438.18 937.21L438.18 939.34C438.18 974.52 446.71 1003.3 463.76 1025.69C464.83 1026.76 465.9 1027.82 466.96 1028.89L433.92 1068.33C433.92 1068.33 462.7 1102.44 493.61 1117.37C509.6 1124.83 525.59 1129.1 543.72 1129.1C574.63 1129.1 600.22 1118.43 619.4 1099.25C637.53 1080.06 647.12 1054.47 647.12 1022.49ZM237.76 965.99L187.66 1103.51C187.66 1103.51 202.58 1114.17 220.71 1122.7C226.04 1124.83 235.63 1126.96 235.63 1126.96C244.16 1129.1 251.62 1130.16 260.15 1130.16C293.2 1130.16 319.85 1112.04 335.84 1078.99L340.1 1068.33L430.72 816.75L183.4 816.75L237.76 965.99ZM69.33 815.68C64 815.68 59.73 815.68 54.4 816.75L54.4 755.98L-49 755.98L-49 1068.33L70.39 1068.33C102.37 1068.33 130.09 1056.61 149.28 1032.08C166.34 1009.7 174.86 980.91 174.86 945.74L174.86 942.54C174.86 906.3 166.34 876.44 149.28 855.12C129.03 829.54 102.37 815.68 69.33 815.68ZM1198.85 755.98L1301.64 755.98L1301.64 1068.33L1198.85 1068.33L1198.85 755.98ZM1349.98 816.75L1452.77 816.75L1452.77 1068.33L1349.98 1068.33L1349.98 816.75ZM1706.06 1020.09L1706.06 814.35L1598.39 814.35C1567.47 814.35 1540.83 825.01 1521.63 849.53C1504.58 871.91 1497.11 900.7 1497.11 934.81L1497.11 936.94C1497.11 972.12 1505.64 1000.91 1522.7 1023.29C1523.77 1024.36 1524.84 1025.43 1525.9 1026.49L1492.85 1065.93C1492.85 1065.93 1521.63 1100.04 1552.55 1114.97C1568.54 1122.43 1584.53 1126.7 1602.66 1126.7C1633.57 1126.7 1659.15 1116.04 1678.35 1096.85C1696.46 1077.66 1706.06 1052.07 1706.06 1020.09ZM994.56 1051.22L994.43 1051.13C976.93 1039.74 963.43 1024.22 953.94 1005.39C944.38 986.43 939.84 965.78 939.84 944L939.84 936.21C939.84 914.59 944.2 894.02 953.32 875.02C962.43 856.04 975.51 840.25 992.76 828.74C1009.93 817.29 1029.18 811.36 1049.79 811.36C1079.14 811.36 1104.9 822.27 1124.43 844.18C1143.88 865.98 1152.3 893.53 1152.3 923.73L1152.3 960.48L1104.39 960.48L1152.3 1005.57L1141.2 1024.51C1120.62 1054.28 1089.6 1068.33 1053.26 1068.33C1032.21 1068.33 1012.46 1062.61 994.7 1051.31L994.56 1051.22Z" />
	</g>
</svg>