<svg xmlns="http://www.w3.org/2000/svg" viewBox="0 0 474 588" width="474" height="588">
	<defs>
		<clipPath clipPathUnits="userSpaceOnUse" id="cp1">
			<path d="M-1230 -223L1502 -223L1502 1313L-1230 1313Z" />
		</clipPath>
	</defs>
	<style>
		tspan { white-space:pre }
		.shp0 { fill: none;stroke: #ffffff;stroke-linecap:round;stroke-linejoin:round;stroke-width: 20 } 
		.shp1 { fill: #ffffff;stroke: #ffffff;stroke-width: 2 } 
		.shp2 { fill: #ffffff } 
	</style>
	<g id="Page 1" clip-path="url(#cp1)">
		<path id="Path 1" class="shp0" d="M109.12 167.48C109.12 161.23 114.43 156.17 120.97 156.17L358.09 156.17C364.63 156.17 369.94 161.23 369.94 167.48L369.94 393.58C369.94 399.83 364.63 404.89 358.09 404.89L120.97 404.89C114.43 404.89 109.12 399.83 109.12 393.58L109.12 167.48ZM310.66 280.53L168.4 280.53M239.53 212.7L239.53 348.36M877.53 266.95L877.53 55.38M805.13 128.62L877.53 55.38L949.93 128.62M925.8 185.58L990.16 185.58C999.04 185.58 1006.25 192.86 1006.25 201.85L1006.25 413.41C1006.25 422.39 999.04 429.68 990.16 429.68L764.9 429.68C756.02 429.68 748.82 422.39 748.82 413.41L748.82 201.85C748.82 192.86 756.02 185.58 764.9 185.58L829.26 185.58" />
		<path id="Path 2" class="shp1" d="M-466.25 155.96C-468.98 155.96 -471.15 155.96 -473.88 156.49L-473.88 126.38L-526.74 126.38L-526.74 281.15L-465.71 281.15C-449.36 281.15 -435.19 275.34 -425.38 263.19C-416.66 252.1 -412.3 237.83 -412.3 220.4L-412.3 218.82C-412.3 200.86 -416.66 186.07 -425.38 175.5C-435.73 162.83 -449.36 155.96 -466.25 155.96Z" />
		<path id="Path 3" class="shp0" d="M-401.02 527.32L-564.11 527.32C-584.87 527.25 -601.68 511.05 -601.75 491.04L-601.75 82.02C-601.68 62.01 -584.87 45.81 -564.11 45.74L-388.47 45.74C-367.68 45.74 -350.83 61.98 -350.83 82.02L-350.83 345.91M-476.29 472.89C-479.75 472.89 -482.56 475.6 -482.56 478.94C-482.56 482.28 -479.75 484.99 -476.29 484.99C-472.83 484.99 -470.02 482.28 -470.02 478.94C-470.02 475.6 -472.83 472.89 -476.29 472.89ZM-601.75 430.57L-426.11 430.57M-350.83 224.97L-290.61 268.51C-265.34 286.78 -250.47 315.45 -250.47 345.91L-250.47 430.57L-175.19 527.32M-313.2 527.31L-335.78 498.28C-345.55 485.72 -350.83 470.44 -350.83 454.74L-350.83 430.55L-418.93 353.97C-423.56 348.77 -426.11 342.14 -426.11 335.28C-426.1 324.9 -419.62 315.55 -409.67 311.58C-399.73 307.61 -388.28 309.8 -380.67 317.14L-313.2 382.18" />
		<path id="Path 4" class="shp2" d="M835.43 732.26C835.43 773.38 776.8 806.6 776.8 806.6C776.8 806.6 718.17 773.38 718.17 732.26C718.17 690.9 776.8 691.14 776.8 732.26C776.8 691.14 835.43 690.9 835.43 732.26ZM276.77 1022.49L276.77 816.75L169.1 816.75C138.19 816.75 111.53 827.41 92.34 851.93C75.29 874.31 67.82 903.09 67.82 937.21L67.82 939.34C67.82 974.52 76.35 1003.3 93.41 1025.69C94.48 1026.76 95.54 1027.82 96.61 1028.89L63.56 1068.33C63.56 1068.33 92.34 1102.44 123.26 1117.37C139.25 1124.83 155.24 1129.1 173.36 1129.1C204.28 1129.1 229.86 1118.43 249.05 1099.25C267.17 1080.06 276.77 1054.47 276.77 1022.49ZM24.12 1022.49L24.12 816.75L-83.55 816.75C-114.46 816.75 -141.11 827.41 -160.3 851.93C-177.36 874.31 -184.82 903.09 -184.82 937.21L-184.82 939.34C-184.82 974.52 -176.29 1003.3 -159.24 1025.69C-158.17 1026.76 -157.1 1027.82 -156.04 1028.89L-189.08 1068.33C-189.08 1068.33 -160.3 1102.44 -129.39 1117.37C-113.4 1124.83 -97.41 1129.1 -79.28 1129.1C-48.37 1129.1 -22.78 1118.43 -3.6 1099.25C14.53 1080.06 24.12 1054.47 24.12 1022.49ZM-385.24 965.99L-435.34 1103.51C-435.34 1103.51 -420.42 1114.17 -402.29 1122.7C-396.96 1124.83 -387.37 1126.96 -387.37 1126.96C-378.84 1129.1 -371.38 1130.16 -362.85 1130.16C-329.8 1130.16 -303.15 1112.04 -287.16 1078.99L-282.9 1068.33L-192.28 816.75L-439.6 816.75L-385.24 965.99ZM-553.67 815.68C-559 815.68 -563.27 815.68 -568.6 816.75L-568.6 755.98L-672 755.98L-672 1068.33L-552.61 1068.33C-520.63 1068.33 -492.91 1056.61 -473.72 1032.08C-456.66 1009.7 -448.14 980.91 -448.14 945.74L-448.14 942.54C-448.14 906.3 -456.66 876.44 -473.72 855.12C-493.97 829.54 -520.63 815.68 -553.67 815.68ZM575.85 755.98L678.64 755.98L678.64 1068.33L575.85 1068.33L575.85 755.98ZM726.98 816.75L829.77 816.75L829.77 1068.33L726.98 1068.33L726.98 816.75ZM1083.06 1020.09L1083.06 814.35L975.39 814.35C944.47 814.35 917.83 825.01 898.63 849.53C881.58 871.91 874.11 900.7 874.11 934.81L874.11 936.94C874.11 972.12 882.64 1000.91 899.7 1023.29C900.77 1024.36 901.84 1025.43 902.9 1026.49L869.85 1065.93C869.85 1065.93 898.63 1100.04 929.55 1114.97C945.54 1122.43 961.53 1126.7 979.66 1126.7C1010.57 1126.7 1036.15 1116.04 1055.35 1096.85C1073.46 1077.66 1083.06 1052.07 1083.06 1020.09ZM371.56 1051.22L371.43 1051.13C353.93 1039.74 340.43 1024.22 330.94 1005.39C321.38 986.43 316.84 965.78 316.84 944L316.84 936.21C316.84 914.59 321.2 894.02 330.32 875.02C339.43 856.04 352.51 840.25 369.76 828.74C386.93 817.29 406.18 811.36 426.79 811.36C456.14 811.36 481.9 822.27 501.43 844.18C520.88 865.98 529.3 893.53 529.3 923.73L529.3 960.48L481.39 960.48L529.3 1005.57L518.2 1024.51C497.62 1054.28 466.6 1068.33 430.26 1068.33C409.21 1068.33 389.46 1062.61 371.7 1051.31L371.56 1051.22Z" />
	</g>
</svg>